<svg height="512pt" viewBox="0 0 512 512" width="512pt" xmlns="http://www.w3.org/2000/svg"><path d="M486.398 162.133H324.266a8.533 8.533 0 00-8.532 8.535c0 4.71 3.82 8.531 8.532 8.531h162.132a8.534 8.534 0 018.536 8.535v170.664H179.199v-93.863a8.533 8.533 0 10-17.066 0v153.598c0 14.14 11.46 25.601 25.601 25.601h102.399v17.918C270.28 465.734 256.027 483.2 256 503.465a8.534 8.534 0 008.535 8.535h145.067c4.71 0 8.53-3.82 8.53-8.535-.023-20.266-14.28-37.73-34.132-41.813v-17.918h102.398c14.141 0 25.602-11.46 25.602-25.601V187.734c0-14.14-11.46-25.601-25.602-25.601zm-86.789 332.8H274.527a25.648 25.648 0 0124.141-17.066h76.797a25.657 25.657 0 0124.144 17.067zm-32.675-34.132h-59.735v-17.067h59.735zm128-42.668a8.534 8.534 0 01-8.536 8.535H187.734a8.534 8.534 0 01-8.535-8.535v-42.668h315.735zm0 0"/><path d="M324.266 409.602h25.601c4.711 0 8.531-3.82 8.531-8.536 0-4.71-3.82-8.53-8.53-8.53h-25.602a8.532 8.532 0 00-8.532 8.53 8.533 8.533 0 008.532 8.536zM25.602 238.934h247.464c14.141 0 25.602-11.461 25.602-25.602V68.266c0-14.137-11.461-25.598-25.602-25.598h-79.855a8.533 8.533 0 01-8.285-6.461l-4.2-16.82C177.88 7.992 167.642 0 155.896 0H68.797C57.047 0 46.8 7.996 43.957 19.395l-4.2 16.804a8.54 8.54 0 01-8.284 6.469h-5.871C11.46 42.668 0 54.128 0 68.266v145.066c0 14.14 11.46 25.602 25.602 25.602zm-8.536-137.926l17.067 5.027v67.695l-17.067 5.036zm264.536 77.758l-17.067-5.036v-67.695l17.067-5.027zm-256-119.032h5.87c11.75.004 22-7.992 24.848-19.398l4.2-16.8a8.529 8.529 0 018.277-6.47h87.098a8.533 8.533 0 018.277 6.461l4.2 16.817a25.605 25.605 0 0024.839 19.39h79.855a8.533 8.533 0 018.536 8.532v14.96l-21.872 6.442a17.157 17.157 0 00-12.265 16.367v67.695a17.159 17.159 0 0012.254 16.368l21.883 6.449v16.785a8.534 8.534 0 01-8.536 8.535H25.602a8.534 8.534 0 01-8.536-8.535v-16.785l21.872-6.442a17.15 17.15 0 0012.261-16.375v-67.695a17.159 17.159 0 00-12.254-16.367l-21.879-6.441V68.266a8.534 8.534 0 018.536-8.532zm0 0"/><path d="M93.867 204.8h76.801c14.137 0 25.598-11.46 25.598-25.6V128c0-14.137-11.461-25.602-25.598-25.602h-76.8c-14.141 0-25.602 11.465-25.602 25.602v51.2c0 14.14 11.46 25.6 25.601 25.6zM85.332 128c0-4.71 3.82-8.535 8.535-8.535h76.801c4.71 0 8.531 3.824 8.531 8.535v51.2a8.533 8.533 0 01-8.531 8.534h-76.8a8.534 8.534 0 01-8.536-8.535zm8.535-42.668H128c9.426 0 17.066-7.64 17.066-17.066V51.199c0-9.426-7.64-17.066-17.066-17.066H93.867c-9.426 0-17.066 7.64-17.066 17.066v17.067c0 9.425 7.64 17.066 17.066 17.066zm0-34.133H128v17.067H93.867zm136.531 59.735c0 4.71-3.82 8.53-8.53 8.53a8.533 8.533 0 110-17.066c4.71 0 8.53 3.82 8.53 8.536zm0 34.132a8.533 8.533 0 11-17.066 0c0-4.71 3.82-8.53 8.535-8.53a8.531 8.531 0 018.531 8.53zm0 34.134a8.533 8.533 0 11-17.066 0 8.533 8.533 0 018.535-8.532 8.532 8.532 0 018.531 8.531zm-93.132 224.3l-51.684-31.012a17.064 17.064 0 00-17.191-.215 17.056 17.056 0 00-8.657 14.852v22.477H42.668a8.534 8.534 0 01-8.535-8.536v-136.53a8.533 8.533 0 10-17.067 0v136.53c0 14.141 11.461 25.602 25.602 25.602h17.066v22.477c.04 9.406 7.657 17.023 17.067 17.066a17.107 17.107 0 008.781-2.457l51.684-31.012a17.072 17.072 0 008.289-14.633c0-5.996-3.149-11.55-8.29-14.636zM76.8 449.145v-62.02l51.687 31.008zm256-107.813h128c9.427 0 17.067-7.64 17.067-17.066V221.867c0-9.426-7.64-17.066-17.066-17.066h-128c-9.426 0-17.067 7.64-17.067 17.066v102.399c0 9.425 7.641 17.066 17.067 17.066zm0-119.465h128v102.399h-128zm0 0"/><path d="M422.852 261.613l-37.391-18.695a12.802 12.802 0 00-18.527 11.453v37.39c0 7.071 5.73 12.801 12.8 12.801 1.989 0 3.954-.464 5.735-1.355l37.39-18.695a12.802 12.802 0 000-22.907zM384 284.86v-23.586l23.586 11.793zM247.465 256h-25.598c-9.426 0-17.066 7.64-17.066 17.066v51.2c0 9.425 7.64 17.066 17.066 17.066h51.2c9.425 0 17.066-7.64 17.066-17.066v-51.2c0-9.425-7.64-17.066-17.067-17.066zm25.601 34.133H256v-17.067h17.066zm-51.199-17.067h17.067v17.067h-17.067zm0 34.133h17.067v17.067h-17.067zM256 324.266v-17.067h17.066v17.067zm0 0"/></svg>