<svg height="512" width="512" xmlns="http://www.w3.org/2000/svg"><path d="M27.383 314.082a32.878 32.878 0 007.682 11.962c5.981 5.981 14.203 9.694 23.273 9.694 9.043 0 17.292-3.713 23.272-9.694 5.981-5.98 9.694-14.229 9.694-23.272v-18.34c-6.944.595-13.039-.907-17.801-2.892-.426 2.069-.907 4.082-1.531 6.066-2.353 7.653-6.293 14.627-12.529 19.644-6.321 5.103-14.711 8.051-25.824 7.483-1.984-.085-4.054-.311-6.236-.651zm194.29-49.124h65.934v-20.722h-50.769c-4.167 0-7.966 1.73-10.715 4.479-2.75 2.75-4.45 6.52-4.45 10.687zm65.933 14.995h-65.934v22.818c0 9.043 3.713 17.292 9.694 23.272 5.98 5.981 14.229 9.694 23.272 9.694 9.07 0 17.319-3.713 23.273-9.694 5.98-5.98 9.694-14.229 9.694-23.272v-22.818zm205.515 50.06c4.025 2.126 7.568 5.018 10.488 8.447 5.244 6.18 8.391 14.145 8.391 22.79v50.57c0 4.139-3.345 7.483-7.483 7.483s-7.512-3.345-7.512-7.483v-50.57c0-4.988-1.815-9.581-4.819-13.124a20.599 20.599 0 00-10.375-6.576 47.491 47.491 0 01-28.12 9.184c-10.856 0-20.892-3.628-28.971-9.779-1.53.17-3.005.596-4.422 1.248-1.928.906-3.685 2.296-5.103 4.166l-40.281 53.349c-1.417 1.871-3.628 3.005-5.98 3.005h-51.619c-3.827 0-7.285 1.53-9.779 4.024-2.495 2.523-4.054 5.981-4.054 9.78 0 3.826 1.559 7.285 4.054 9.779a13.796 13.796 0 009.779 4.054h61.653c2.468 0 4.366-.255 6.72-1.446 4.365-2.183 8.447-8.815 11.423-12.784l26.675-35.291a7.47 7.47 0 0110.487-1.474c3.288 2.494 3.94 7.199 1.446 10.488l-25.37 33.618v65.367h86.656v-43.059c0-4.139 3.373-7.483 7.512-7.483s7.483 3.345 7.483 7.483v50.57a7.476 7.476 0 01-7.483 7.483H7.512c-4.138 0-7.512-3.345-7.512-7.483v-50.57c0-4.139 3.374-7.483 7.512-7.483a7.476 7.476 0 017.483 7.483v43.059h86.685v-65.367l-25.398-33.618c-2.494-3.289-1.842-7.994 1.475-10.488 3.288-2.495 7.993-1.843 10.488 1.474l26.078 34.526c2.381 3.146 4.763 6.32 7.143 9.496 1.36 1.785 3.033 3.146 4.876 4.053 2.069 1.049 3.997 1.446 6.265 1.446h62.107c3.799 0 7.257-1.56 9.779-4.054 2.495-2.494 4.025-5.953 4.025-9.779a13.87 13.87 0 00-4.025-9.78 13.869 13.869 0 00-9.779-4.024h-51.647a7.486 7.486 0 01-5.98-3.005l-40.281-53.349a13.865 13.865 0 00-9.524-5.414c-8.051 6.123-18.085 9.779-28.942 9.779a47.741 47.741 0 01-28.148-9.155c-4.025 1.049-7.597 3.345-10.262 6.406-3.062 3.571-4.933 8.192-4.933 13.266v50.57c0 4.139-3.345 7.483-7.483 7.483s-7.512-3.345-7.512-7.483v-50.57c0-8.759 3.26-16.837 8.617-23.045 2.892-3.316 6.378-6.123 10.29-8.192a47.563 47.563 0 01-8.532-27.241v-43.37c0-8.306 3.373-15.846 8.844-21.316 5.472-5.442 12.983-8.844 21.288-8.844H76.14c8.306 0 15.846 3.401 21.316 8.844 5.472 5.471 8.845 13.011 8.845 21.316v43.37a47.646 47.646 0 01-7.768 26.107c4.054 2.041 7.483 4.847 10.233 8.476l38.014 50.343h30.018v-30.415c0-8.617 4.564-16.413 11.962-23.018 5.727-5.102 13.267-9.553 21.601-13.067a47.615 47.615 0 01-3.684-18.426v-43.371c0-8.306 3.401-15.846 8.845-21.316 5.471-5.442 13.011-8.844 21.316-8.844h58.28c4.14 0 7.513 3.373 7.513 7.512v66.019c0 6.151-1.19 12.048-3.316 17.49 8.957 3.515 17.064 8.05 23.188 13.322 7.851 6.747 12.699 14.797 12.699 23.698v30.415h30.018l38.014-50.343a28.712 28.712 0 0110.262-8.447 47.604 47.604 0 01-7.796-26.136v-43.37c0-8.306 3.402-15.846 8.845-21.316 5.471-5.442 13.011-8.844 21.316-8.844h35.633c8.305 0 15.846 3.401 21.316 8.844 5.442 5.471 8.844 13.011 8.844 21.316v43.37c-.001 9.75-2.977 19.218-8.533 27.241zm-8.504-15.931c-2.154.34-4.252.566-6.236.651-11.084.567-19.475-2.381-25.796-7.483-6.265-5.017-10.205-11.99-12.558-19.644a61.264 61.264 0 01-1.503-6.066c-4.79 1.984-10.856 3.486-17.829 2.892v18.34c0 9.043 3.713 17.292 9.694 23.272 5.98 5.981 14.23 9.694 23.301 9.694 9.042 0 17.292-3.713 23.273-9.694a33.167 33.167 0 007.654-11.962zm-63.922-44.674c10.006 1.417 17.319-4.394 18.623-5.528 1.475-1.247 2.863-2.012 4.876-2.098a7.46 7.46 0 017.823 7.115c.256 4.876.935 9.809 2.324 14.315 1.531 5.017 3.94 9.439 7.598 12.387 3.6 2.892 8.675 4.536 15.733 4.195 2.721-.142 5.697-.566 8.985-1.304V259.4c0-4.167-1.729-7.937-4.479-10.687-2.749-2.749-6.52-4.479-10.686-4.479H435.86c-4.167 0-7.938 1.73-10.687 4.479-2.75 2.75-4.478 6.52-4.478 10.687zm-329.39 0v-10.007c0-4.167-1.7-7.937-4.45-10.687-2.749-2.749-6.548-4.479-10.715-4.479H40.507c-4.138 0-7.937 1.73-10.687 4.479-2.749 2.75-4.45 6.52-4.45 10.687v39.09c3.26.737 6.236 1.162 8.958 1.304 7.059.341 12.133-1.304 15.732-4.195 3.657-2.947 6.066-7.37 7.626-12.387 1.389-4.507 2.069-9.439 2.296-14.315a7.477 7.477 0 017.823-7.115c1.928.086 3.401.794 4.819 2.041 1.05.935 8.477 7.029 18.681 5.584zm127.08 64.687c-7.825 3.033-14.741 6.888-19.674 11.311-4.28 3.798-6.917 7.88-6.917 11.877v30.415h2.92c7.938 0 15.166 3.231 20.382 8.447s8.447 12.416 8.447 20.382c0 5.017-1.304 9.723-3.543 13.833h72a28.811 28.811 0 01-3.515-13.833c0-7.966 3.231-15.166 8.448-20.382 5.216-5.216 12.415-8.447 20.381-8.447h2.892v-30.415c0-4.139-2.835-8.391-7.427-12.331-5.386-4.62-12.87-8.617-21.204-11.65a48.962 48.962 0 01-3.033 3.345c-8.702 8.702-20.693 14.088-33.902 14.088-13.182 0-25.2-5.386-33.874-14.088a50.358 50.358 0 01-2.381-2.552zM62.505 63.697c-4.139 0-7.483-3.373-7.483-7.512s3.345-7.483 7.483-7.483h138.842a7.476 7.476 0 017.484 7.483c0 4.139-3.346 7.512-7.484 7.512zm0 78.917c-4.139 0-7.483-3.373-7.483-7.512s3.345-7.512 7.483-7.512h69.422c4.139 0 7.512 3.373 7.512 7.512s-3.373 7.512-7.512 7.512zm0-39.458c-4.139 0-7.483-3.374-7.483-7.512a7.476 7.476 0 017.483-7.483h138.842c4.139 0 7.484 3.345 7.484 7.483s-3.346 7.512-7.484 7.512zm146.524 79.965a20.733 20.733 0 004.848 7.653 20.96 20.96 0 0014.938 6.208h44.079c4.139 0 7.483 3.345 7.483 7.512a7.476 7.476 0 01-7.483 7.483h-44.079c-10.006 0-19.021-4.081-25.541-10.658a36.451 36.451 0 01-9.808-18.198H88.896L54.937 217.08a7.491 7.491 0 01-5.329 2.211c-4.139 0-7.512-3.345-7.512-7.483v-29.31c-9.525-1.588-18.058-6.151-24.605-12.728-8.249-8.221-13.351-19.588-13.351-32.117V53.635c0-12.501 5.103-23.868 13.351-32.116 8.22-8.221 19.587-13.352 32.117-13.352h164.639c12.528 0 23.896 5.131 32.116 13.352 8.249 8.248 13.351 19.615 13.351 32.116v13.89h127.392c9.949 0 18.964 4.054 25.512 10.602s10.602 15.562 10.602 25.512v72.227c0 9.95-4.054 18.964-10.602 25.512a36.153 36.153 0 01-18.028 9.809v29.48a7.47 7.47 0 01-2.183 5.301c-2.92 2.919-7.682 2.919-10.603 0l-33.987-33.988h-40.961c-4.139 0-7.512-3.345-7.512-7.483a7.507 7.507 0 017.512-7.512h44.079c2.098 0 3.968.851 5.329 2.239l23.329 23.329v-18.057a7.507 7.507 0 017.513-7.512c5.782 0 11.083-2.381 14.91-6.208 3.827-3.826 6.208-9.099 6.208-14.91v-72.227c0-5.811-2.381-11.083-6.208-14.91s-9.128-6.208-14.91-6.208H259.713v55.134c0 12.529-5.102 23.896-13.351 32.117-8.221 8.248-19.588 13.351-32.116 13.351h-5.217zM85.777 168.126h128.469c8.391 0 15.987-3.43 21.515-8.957 5.527-5.528 8.957-13.153 8.957-21.516V53.635c0-8.362-3.43-15.987-8.957-21.515s-13.124-8.958-21.515-8.958H49.607c-8.391 0-15.988 3.43-21.516 8.958-5.527 5.527-8.958 13.152-8.958 21.515v84.019c0 8.362 3.431 15.987 8.958 21.516 5.527 5.527 13.125 8.957 21.516 8.957 4.139 0 7.483 3.373 7.483 7.512v18.057l23.386-23.357a7.446 7.446 0 015.301-2.213zm309.576 277.228H116.676v43.483h278.678v-43.483z"/></svg>