<svg height="512" viewBox="0 0 64 64" width="512" xmlns="http://www.w3.org/2000/svg"><path d="M27.83 39.51c1.05.25 2.13.41 3.24.47-4.84-.13-9.51-1.28-13.74-3.31A33.958 33.958 0 012.29 22.52L2 22l.29-.52A33.962 33.962 0 0123.21 5.16c-.34.5-.61 1.04-.8 1.61h-.01C17.35 9.96 14 15.59 14 22c0 5.33 2.32 10.12 6 13.41 2.19 1.97 4.87 3.4 7.83 4.1zM40.79 5.16a33.962 33.962 0 0120.92 16.32L62 22l-.29.52c-2.99 5.4-7.34 9.76-12.47 12.79-.84.49-1.69.95-2.57 1.36l-13.74 3.31c1.11-.06 2.19-.22 3.24-.47 2.96-.7 5.64-2.13 7.83-4.1 3.68-3.29 6-8.08 6-13.41 0-6.41-3.35-12.04-8.4-15.23h-.01c-.19-.57-.46-1.11-.8-1.61z" fill="#ccd1d9"/><path d="M26 18c0 1.76 1.14 3.26 2.73 3.79v.01L28 24c-.95.24-1.85.6-2.67 1.08A10.55 10.55 0 0020 34.25v1.16c-3.68-3.29-6-8.08-6-13.41 0-6.41 3.35-12.04 8.4-15.23h.01C22.14 7.5 22 8.3 22 9.12c0 .59.07 1.17.21 1.73l.54 2.16.01.01a2.974 2.974 0 00.12 4.1c.54.54 1.29.88 2.12.88zm12.67 7.08c-.82-.48-1.72-.84-2.67-1.08l-.73-2.2v-.01A3.996 3.996 0 0038 18h1c.83 0 1.58-.34 2.12-.88S42 15.83 42 15c0-.76-.29-1.45-.76-1.98l.01-.01.54-2.16c.14-.56.21-1.14.21-1.73 0-.82-.14-1.62-.41-2.35h.01C46.65 9.96 50 15.59 50 22c0 5.33-2.32 10.12-6 13.41v-1.16c0-2.43-.82-4.69-2.24-6.5-.84-1.08-1.89-1.99-3.09-2.67z" fill="#69d6f4"/><path d="M41.79 10.85l-.54 2.16-.01.01A2.93 2.93 0 0039 12h-1l-6.02-.6a4.418 4.418 0 01-3.59-2.59l-.73.36A3 3 0 0026 11.85V12h-1c-.9 0-1.7.39-2.24 1.02l-.01-.01-.54-2.16c-.14-.56-.21-1.14-.21-1.73 0-.82.14-1.62.41-2.35.19-.57.46-1.11.8-1.61.26-.38.55-.74.88-1.07A7.098 7.098 0 0129.12 2h5.76c2.46 0 4.64 1.25 5.91 3.16.34.5.61 1.04.8 1.61.27.73.41 1.53.41 2.35 0 .59-.07 1.17-.21 1.73z" fill="#b27946"/><path d="M33 30l3.17 9.51c-1.05.25-2.13.41-3.24.47-.31.02-.62.02-.93.02s-.62 0-.93-.02c-1.11-.06-2.19-.22-3.24-.47L31 30z" fill="#e6e9ed"/><path d="M34.21 27.32L33 30h-2l-1.21-2.68L32 26z" fill="#ccd1d9"/><path d="M27 29l2.79-1.68L31 30l-3.17 9.51c-2.96-.7-5.64-2.13-7.83-4.1v-1.16c0-3.87 2.1-7.33 5.33-9.17zm17 5.25v1.16c-2.19 1.97-4.87 3.4-7.83 4.1L33 30l1.21-2.68L37 29l1.67-3.92c1.2.68 2.25 1.59 3.09 2.67 1.42 1.81 2.24 4.07 2.24 6.5z" fill="#ff826e"/><path d="M32 26l4-2c.95.24 1.85.6 2.67 1.08L37 29l-2.79-1.68zm-4-2l4 2-2.21 1.32L27 29l-1.67-3.92c.82-.48 1.72-.84 2.67-1.08z" fill="#fc6e51"/><path d="M36 24l-4 2-4-2 .73-2.2v-.01c.4.14.82.21 1.27.21h4c.45 0 .87-.07 1.27-.21v.01zM26 12v6h-1c-.83 0-1.58-.34-2.12-.88S22 15.83 22 15c0-.76.29-1.45.76-1.98A2.93 2.93 0 0125 12zm13 0c.9 0 1.7.39 2.24 1.02a2.974 2.974 0 01-.12 4.1c-.54.54-1.29.88-2.12.88h-1v-6z" fill="#f0d0b4"/><path d="M38 12v6c0 1.76-1.14 3.26-2.73 3.79-.4.14-.82.21-1.27.21h-4c-.45 0-.87-.07-1.27-.21A3.996 3.996 0 0126 18v-6.15a3 3 0 011.66-2.68l.73-.36c.63 1.4 1.97 2.43 3.59 2.59z" fill="#f0d0b4"/><path d="M14 47v14c0 .55-.45 1-1 1H3c-.55 0-1-.45-1-1V47c0-.55.45-1 1-1h10c.55 0 1 .45 1 1zm24 0v14c0 .55-.45 1-1 1H27c-.55 0-1-.45-1-1V47c0-.55.45-1 1-1h10c.55 0 1 .45 1 1zm12 14V47c0-.55.45-1 1-1h10c.55 0 1 .45 1 1v14c0 .55-.45 1-1 1H51c-.55 0-1-.45-1-1z" fill="#ffeaa7"/><path d="M29 19h3a4.212 4.212 0 003.789-2.342l.105-.211-1.789-.895-.105.212A2.224 2.224 0 0132 17h-3zm0 38h6v2h-6zm0-4h6v2h-6zm0-4h6v2h-6z"/><path d="M61 45h-4.586l-8.072-8.072a34.962 34.962 0 0014.245-13.926L63.145 22l-.558-1.002C58.065 12.859 50.352 6.79 41.391 4.29 39.909 2.298 37.545 1 34.877 1h-5.754c-2.668 0-5.032 1.298-6.514 3.29-8.961 2.5-16.674 8.568-21.196 16.708L.855 22l.558 1.002a34.968 34.968 0 0014.245 13.926L7.586 45H3c-1.103 0-2 .897-2 2v14c0 1.103.897 2 2 2h10c1.103 0 2-.897 2-2V47c0-1.103-.897-2-2-2h-2.586l7.143-7.143A34.927 34.927 0 0031 40.966V45h-4c-1.103 0-2 .897-2 2v14c0 1.103.897 2 2 2h10c1.103 0 2-.897 2-2V47c0-1.103-.897-2-2-2h-4v-4.034a34.927 34.927 0 0013.443-3.109L53.586 45H51c-1.103 0-2 .897-2 2v14c0 1.103.897 2 2 2h10c1.103 0 2-.897 2-2V47c0-1.103-.897-2-2-2zM13.002 61H3V47h10zm24 0H27V47h10zm23.837-39.031l.016.031-.017.031c-3.79 6.821-9.809 11.942-16.851 14.693C48.262 33.237 51 27.934 51 22a18.903 18.903 0 00-6.998-14.73c7.093 2.785 13.113 7.997 16.837 14.699zM25 17c-1.103 0-2-.897-2-2s.897-2 2-2zm-3.757-5.907l.425 1.701A3.979 3.979 0 0021 15c0 2.206 1.794 4 4 4h.101c.289 1.419 1.193 2.604 2.408 3.31l-.29.868a11.536 11.536 0 00-8.146 9.835A16.913 16.913 0 0115 22c0-5.06 2.21-9.753 6.004-12.962 0 .028-.004.056-.004.085 0 .665.082 1.328.243 1.97zM39 13c1.103 0 2 .897 2 2s-.897 2-2 2zm-.101 6H39c2.206 0 4-1.794 4-4 0-.815-.248-1.573-.668-2.206l.425-1.7A8.121 8.121 0 0043 9.123c0-.029-.004-.057-.004-.086A16.908 16.908 0 0149 22c0 4.201-1.539 8.043-4.073 11.013a11.54 11.54 0 00-8.146-9.835l-.29-.868c1.215-.706 2.119-1.891 2.408-3.31zM30 23h4c.203 0 .396-.036.593-.06l.184.553L32 24.882l-2.777-1.389.184-.553c.197.024.39.06.593.06zm4.077 3.08l2.02-1.01a9.42 9.42 0 011.286.469l-.855 2.012zm-6.174-1.01l2.02 1.01-2.452 1.471-.855-2.012a9.531 9.531 0 011.287-.469zm-3.025 1.492l1.65 3.887 2.816-1.689.584 1.296-2.746 8.239A16.973 16.973 0 0121 34.939v-.692a9.543 9.543 0 013.878-7.685zM31.646 29l-.575-1.277.929-.557.929.557L32.354 29zm3.01-.24l2.816 1.689 1.65-3.887A9.543 9.543 0 0143 34.246v.692a16.973 16.973 0 01-6.182 3.356l-2.746-8.239zM37 18c0 1.654-1.346 3-3 3h-4c-1.654 0-3-1.346-3-3v-6.146c0-.718.375-1.367.987-1.726a5.41 5.41 0 003.894 2.265l5.119.512zm-7.859 20.74L31.72 31h.559l2.58 7.74c-.931.159-1.883.26-2.859.26s-1.928-.101-2.859-.26zM29.123 3h5.754a6.13 6.13 0 015.94 7.608l-.187.747A3.965 3.965 0 0039 11h-.948l-5.972-.597A3.409 3.409 0 0129 7h-2c0 .449.054.886.156 1.304A3.964 3.964 0 0025.1 11H25c-.582 0-1.131.131-1.631.355l-.187-.748A6.13 6.13 0 0129.123 3zM3.161 22.031L3.145 22l.017-.031c3.724-6.703 9.745-11.915 16.84-14.7A18.898 18.898 0 0013 22c0 5.934 2.738 11.237 7.012 14.724-7.042-2.751-13.061-7.872-16.851-14.693zM51 61V47h10l.002 14z"/><path d="M5 57h6v2H5zm0-4h6v2H5zm0-4h6v2H5zm49.845 6.431l-1.138-1.138-1.414 1.414 2.862 2.862 4.677-7.014-1.664-1.11z"/></svg>