<svg xmlns="http://www.w3.org/2000/svg" viewBox="0 0 512 512"><path d="M386.499 326.499c-31.8 32.1-51.299 75.101-54.899 120.101-.601 7.798-7.2 13.799-15 13.799H195.399c-7.8 0-14.399-6-15-13.799-3.6-45-23.099-88.001-54.899-120.101-5.101-4.799-6-12.9-2.1-18.9l117.6-176.4 13.2 23.401 1.8-2.401 15-21 117.599 176.4c3.901 6 3.002 14.101-2.1 18.9z" fill="#ffda45"/><path d="M386.499 326.499c-31.8 32.1-51.299 75.101-54.899 120.101-.601 7.798-7.2 13.799-15 13.799H256v-308.2l15-21 117.599 176.4c3.901 6 3.002 14.101-2.1 18.9z" fill="#ffbc36"/><path d="M286 422h-60c-41.4 0-75 33.6-75 75 0 8.399 6.599 15 15 15h180c8.401 0 15-6.601 15-15 0-41.4-33.6-75-75-75z" fill="#bf6015"/><path d="M361 497c0 8.399-6.599 15-15 15h-90v-90h30c41.4 0 75 33.6 75 75z" fill="#994c10"/><path d="M451 45c0 8.399-6.599 15-15 15H76c-8.401 0-15-6.601-15-15 0-8.401 6.599-15 15-15h360c8.401 0 15 6.599 15 15z" fill="#1689fc"/><path d="M451 45c0 8.399-6.599 15-15 15H256V30h180c8.401 0 15 6.599 15 15z" fill="#136ef1"/><path d="M76 240c-8.291 0-15-6.709-15-15 0-95.684 68.394-176.572 162.627-192.319 8.13-1.45 15.894 4.16 17.271 12.319 1.362 8.174-4.146 15.908-12.319 17.271C148.861 75.601 91 144.038 91 225c0 8.291-6.709 15-15 15z" fill="#1689fc"/><path d="M436 240c-8.291 0-15-6.709-15-15 0-80.962-57.861-149.399-137.578-162.729-8.174-1.362-13.682-9.097-12.319-17.271 1.362-8.159 9.082-13.784 17.271-12.319C382.606 48.428 451 129.316 451 225c0 8.291-6.709 15-15 15z" fill="#136ef1"/><path d="M76 300c-24.814 0-45-20.186-45-45s20.186-45 45-45 45 20.186 45 45-20.186 45-45 45z" fill="#00c8c8"/><path d="M76 270c-8.271 0-15-6.729-15-15s6.729-15 15-15 15 6.729 15 15-6.729 15-15 15z" fill="#e1f1fa"/><path d="M436 300c-24.814 0-45-20.186-45-45s20.186-45 45-45 45 20.186 45 45-20.186 45-45 45z" fill="#00a1b2"/><path d="M436 270c-8.271 0-15-6.729-15-15s6.729-15 15-15 15 6.729 15 15-6.729 15-15 15z" fill="#bfe1ff"/><path d="M256 0c-24.901 0-45 20.099-45 45 0 24.899 20.099 45 45 45s45-20.101 45-45c0-24.901-20.099-45-45-45zM75 90H15C6.709 90 0 83.291 0 75V15C0 6.709 6.709 0 15 0h60c8.291 0 15 6.709 15 15v60c0 8.291-6.709 15-15 15z" fill="#00c8c8"/><path fill="#e1f1fa" d="M30 30h30v30H30z"/><path d="M497 90h-60c-8.291 0-15-6.709-15-15V15c0-8.291 6.709-15 15-15h60c8.291 0 15 6.709 15 15v60c0 8.291-6.709 15-15 15z" fill="#00a1b2"/><path fill="#bfe1ff" d="M452 30h30v30h-30z"/><g fill="#994c0f"><path d="M256 271c-24.901 0-45 20.099-45 45 0 24.899 20.099 45 45 45s45-20.101 45-45c0-24.901-20.099-45-45-45z"/><path d="M271 131.199V286c0 8.399-6.599 15-15 15s-15-6.601-15-15V131.199l2.401-3.6c2.999-4.2 7.8-6.299 12.599-6.299s9.6 2.098 12.599 6.299l2.401 3.6z"/></g><path d="M256 90V0c24.901 0 45 20.099 45 45 0 24.899-20.099 45-45 45z" fill="#00a1b2"/><path d="M256 60c-8.271 0-15-6.729-15-15s6.729-15 15-15 15 6.729 15 15-6.729 15-15 15z" fill="#e1f1fa"/><path d="M271 45c0-8.271-6.729-15-15-15v30c8.271 0 15-6.729 15-15z" fill="#bfe1ff"/><g fill="#713708"><path d="M256 301V121.3c4.799 0 9.6 2.098 12.599 6.299l2.401 3.6V286c0 8.399-6.599 15-15 15z"/><path d="M301 316c0 24.899-20.099 45-45 45v-90c24.901 0 45 20.099 45 45z"/></g></svg>