<svg xmlns="http://www.w3.org/2000/svg" viewBox="0 0 512 512"><path d="M497 0h-60c-8.284 0-15 6.716-15 15v15H298.42C292.228 12.542 275.555 0 256 0s-36.228 12.542-42.42 30H90V15c0-8.284-6.716-15-15-15H15C6.716 0 0 6.716 0 15v60c0 8.284 6.716 15 15 15h60c8.284 0 15-6.716 15-15V59.8h62.377c-54.116 34.274-87.012 92.175-90.969 153.642C43.738 219.518 31 236.294 31 256c0 24.813 20.187 45 45 45s45-20.187 45-45c0-19.38-12.315-35.938-29.53-42.26 5.326-70.647 56.198-131.494 124.226-148.758C223.07 79.794 238.361 90 256 90c17.639 0 32.93-10.206 40.304-25.017 68.029 17.264 118.9 78.111 124.226 148.758C403.315 220.062 391 236.62 391 256c0 24.813 20.187 45 45 45s45-20.187 45-45c0-19.706-12.738-36.482-30.408-42.558-3.965-61.59-36.959-119.235-90.969-153.442H422v15c0 8.284 6.716 15 15 15h60c8.284 0 15-6.716 15-15V15c0-8.284-6.716-15-15-15zM60 60H30V30h30v30zm16 211c-8.271 0-15-6.729-15-15s6.729-15 15-15 15 6.729 15 15-6.729 15-15 15zM256 60c-8.271 0-15-6.729-15-15s6.729-15 15-15 15 6.729 15 15-6.729 15-15 15zm180 181c8.271 0 15 6.729 15 15s-6.729 15-15 15-15-6.729-15-15 6.729-15 15-15zm46-181h-30V30h30v30z"/><path d="M388.48 307.679l-120-179.999-.013-.019c-.043-.064-.09-.125-.134-.188a14.617 14.617 0 00-.649-.868c-6.321-7.854-18.357-7.324-24.017.868-.044.063-.091.124-.134.188l-.013.019-120 180a14.999 14.999 0 001.874 18.927c29.927 29.927 48.975 69.047 54.164 110.901a77.314 77.314 0 00-6.71 6.081C158.759 458.001 151 476.97 151 497c0 8.284 6.716 15 15 15h180c8.284 0 15-6.716 15-15 0-20.03-7.759-38.999-21.847-53.412a77.326 77.326 0 00-6.711-6.081c5.188-41.856 24.236-80.976 54.163-110.9a15 15 0 001.875-18.928zM256 301c8.271 0 15 6.729 15 15s-6.729 15-15 15-15-6.729-15-15 6.729-15 15-15zm-72.442 181c6.241-17.833 23.159-31 42.442-31h60c19.283 0 36.201 13.167 42.442 31H183.558zm120.687-58.717A73.695 73.695 0 00286 421h-60c-6.229 0-12.345.777-18.245 2.284-7.02-40.429-25.251-78.221-52.65-108.899L241 185.542v88.039c-17.459 6.192-30 22.865-30 42.42 0 24.813 20.187 45 45 45s45-20.187 45-45c0-19.555-12.541-36.228-30-42.42v-88.039l85.896 128.843c-27.4 30.675-45.632 68.468-52.651 108.898z"/></svg>