<svg height="512" viewBox="0 0 58 58" width="512" xmlns="http://www.w3.org/2000/svg"><g fill="none"><path d="M46.8 43.42c-3 2.21-5.85 4-7 6.22a19.85 19.85 0 00-1.69 7.42 1 1 0 01-1.51.79l-3-1.84a1 1 0 00-1 0l-2.91 1.73a1 1 0 01-1.51-.93A29.53 29.53 0 0131 44.86a20.75 20.75 0 015.7-6.39z" fill="#df4d60"/><path d="M19.42 29H24l1.94-3.58-4.51-2.33a1 1 0 01-.43-1.37C24.33 15.77 19 9 11 9 4.92 9 0 13 0 18s4.92 9 11 9c2.92 0 3.41-.75 4.12-.36zM11 23c-3.79 0-7-2.29-7-5s3.21-5 7-5 7 2.29 7 5-3.21 5-7 5z" fill="#3b97d3"/><path d="M46.8 14.58c6.26-2.16 9.86-2.09 10.79 0l.41.91-6.07 3.65zm-8.55 4.09L15.12 31.36a1 1 0 01-.74.08C7.59 29.58 0 33.7 0 40c0 5 4.92 9 11 9 8 0 13.3-6.79 10-12.72a1 1 0 01.41-1.37l4.51-2.33L31 32l1.87-3 9.69-5zM11 45c-3.79 0-7-2.29-7-5s3.21-5 7-5a8 8 0 015.83 2.29C20 40.64 16.33 45 11 45z" fill="#2980ba"/><path d="M42.56 34.51c1.8-1.53 3.52-3.84 3.45-5.17v-.68c.15-2.72-6.75-7.09-9.34-9.13A21 21 0 0131 13.14a29.53 29.53 0 01-2.91-12A1 1 0 0129.6.22L32.48 2a1 1 0 001 0l3-1.84a1 1 0 011.51.79 19.85 19.85 0 001.69 7.42c1.25 2.28 4.19 4.11 7 6.22C51.66 18.17 56.24 23 56 29a15.17 15.17 0 01-4.08 10.35z" fill="#ff5364"/><path d="M32.87 29L58 42.5l-.41.91c-1.12 2.52-6.52 2.12-14.73-1.55l-16.92-9.28z" fill="#3b97d3"/><circle cx="26" cy="29" fill="#d1d4d1" r="1"/></g></svg>