<svg height="512" viewBox="0 0 60 60" width="512" xmlns="http://www.w3.org/2000/svg"><g transform="translate(0 -1)"><path d="M12 14c-4.34 0-8 2.75-8 6s3.66 6 8 6 8-2.75 8-6-3.66-6-8-6zm0 10c-3.2 0-6-1.87-6-4s2.8-4 6-4 6 1.87 6 4-2.8 4-6 4z"/><circle cx="27" cy="31" r="1"/><path d="M0 42c0 5.51 5.38 10 12 10 8.82 0 14.54-7.65 10.89-14.2l4-2.09 9 4.92c-4.27 3.64-7.33 8.37-7.84 18.11a2 2 0 003 1.85L34 58.87l3 1.83a2 2 0 003-1.58 18.59 18.59 0 011.57-7c1.07-2 3.88-3.8 6.31-5.57 2.68.91 6.94 2.08 9.57 1.07 1.6-.62 1.91-1.62 2.4-2.71a1 1 0 00-.44-1.29l-5.21-2.8c2.67-3.15 3.94-6.46 3.8-9.82a14.29 14.29 0 00-3.57-9.63l5.08-3.05a1 1 0 00.39-1.27l-.41-.9c-1.18-2.68-5-2.91-11.53-.72-2.51-1.82-5.27-3.63-6.34-5.59a18.6 18.6 0 01-1.57-7A2 2 0 0037 1.29l-3 1.85-2.92-1.73a2 2 0 00-3 1.83c.51 9.69 3.57 14.49 7.83 18.12l-9 4.93-4-2.08C26.57 17.6 20.75 10 12 10 5.38 10 0 14.49 0 20c0 6.93 8.19 11.57 15.64 9.52l2.7 1.48-2.7 1.48C8.14 30.42 0 35.1 0 42zm43.42-14.81c2.46 2.19 2.58 3.15 2.58 3.43v.79c0 .29-.14 1.24-2.72 3.51L36 31zm-3.55 24c-1.35 2.49-1.71 6.31-1.8 7.83l-3-1.83a2 2 0 00-2.06 0L30.1 58.9a27.89 27.89 0 012.79-11.51 19.15 19.15 0 014.93-5.68c6.35 3.49 5.5 3.09 7.91 4.05-2.09 1.44-4.64 3.24-5.86 5.4zm16.92-5.41c-2.74 1-8.76-1.3-8.86-1.32-3.67-1.32-2.75-1-18.86-9.82l4.79-2.48L57.68 45a1.48 1.48 0 01-.89.75zm.93-28.65l-4.61 2.77a34.37 34.37 0 00-3.2-2.9c2.09-.68 6.91-1.91 7.81.1zm-24.87-2.47a28 28 0 01-2.79-11.53L33 4.87a2 2 0 002 0l3-1.85c.1 1.53.46 5.35 1.81 7.84 1.12 2 3.27 3.6 5.56 5.25C50.7 19.91 56.26 24.44 56 31c.12 3-1 5.92-3.55 8.81l-7.3-3.92C48.33 33 48 31.82 48 30.73c.18-2.73-4.58-6.2-6.84-7.84-3.31-2.41-6.32-4.56-8.31-8.23zM16.61 27.77a2 2 0 00-1.49-.17C8.91 29.28 2 25.58 2 20c0-4.41 4.49-8 10-8s10 3.59 10 8c0 2.82-1.49 3.25-1 4.78A2 2 0 0022 26l2.84 1.47-4.39 2.41zm21-5.05c1.65 1.26 2.72 2 4.16 3.09L22 36a2 2 0 00-1 1.21c-.45 1.53 1 1.94 1 4.77 0 4.41-4.49 8-10 8S2 46.41 2 42c0-5.66 7-9.27 13.11-7.6a2 2 0 001.49-.16c39-21.36 9.4-5.16 20.98-11.52z"/><path d="M4 42c0 3.25 3.66 6 8 6s8-2.75 8-6c0-2.45-2-4.36-4.22-5.28C10.23 34.47 4 37.75 4 42zm13.1-2c2.62 2.76-.88 6-5.1 6-3.2 0-6-1.87-6-4s2.8-4 6-4a7 7 0 015.1 2z"/></g></svg>