<svg height="640" viewBox="0 -1 480 480" width="640" xmlns="http://www.w3.org/2000/svg"><path d="M56 173.664c13.254 0 24-10.746 24-24s-10.746-24-24-24-24 10.746-24 24 10.746 24 24 24zm0-32a8 8 0 110 16 8 8 0 010-16zm368 32c13.254 0 24-10.746 24-24s-10.746-24-24-24-24 10.746-24 24 10.746 24 24 24zm0-32a8 8 0 110 16 8 8 0 010-16zm-344 104c0-13.254-10.746-24-24-24s-24 10.746-24 24 10.746 24 24 24 24-10.746 24-24zm-32 0a8 8 0 1116 0 8 8 0 01-16 0zm0-56v16a8 8 0 0016 0v-16a8 8 0 00-16 0zm0 0"/><path d="M472 93.664h-96a8 8 0 00-8 8v192a8 8 0 008 8h24v40h-56v-24a8 8 0 00-8-8h-24v-24a8 8 0 00-8-8h-48a8 8 0 00-8 8v24h-16v-24a8 8 0 00-8-8h-48a8 8 0 00-8 8v24h-24a8 8 0 00-8 8v24H80v-40h24a8 8 0 008-8v-192a8 8 0 00-8-8H8a8 8 0 00-8 8v192a8 8 0 008 8h24v40H8a8 8 0 00-8 8v48a8 8 0 008 8v64a8 8 0 008 8h448a8 8 0 008-8v-64a8 8 0 008-8v-48a8 8 0 00-8-8h-24v-40h24a8 8 0 008-8v-192a8 8 0 00-8-8zm-208 200h32v16h-32zm-80 0h32v16h-32zm-32 32h176v16H152zm-136-216h80v176H16zm32 192h16v40H48zm408 160H24v-56h432zm8-72H16v-32h448zm-32-48h-16v-40h16zm32-56h-80v-176h80zm0 0"/><path d="M424 269.664c13.254 0 24-10.746 24-24s-10.746-24-24-24-24 10.746-24 24 10.746 24 24 24zm0-32a8 8 0 110 16 8 8 0 010-16zm-8-48v16a8 8 0 0016 0v-16a8 8 0 00-16 0zM134.625 15.04c-10.45-9.942-26.168-11.888-38.73-4.802L85.656 0 74.344 11.32 84.52 21.496C77.008 34 79.012 50.02 89.375 60.29l16.969 16.969a8.004 8.004 0 0011.312 0l33.946-33.938a8.004 8.004 0 000-11.312zM112 60.29l-11.313-11.313a16 16 0 1122.626-22.625l11.312 11.312zM380.29.008l-10.25 10.238c-12.56-7.086-28.278-5.14-38.728 4.8l-16.968 16.962a8.004 8.004 0 000 11.312l33.945 33.938c3.121 3.12 8.188 3.12 11.313 0l16.964-16.969c10.368-10.27 12.372-26.289 4.86-38.793l10.176-10.176zm-15.032 48.969l-11.313 11.312-22.632-22.625 11.312-11.312c6.332-6.047 16.3-6.047 22.633 0 6.246 6.25 6.246 16.375 0 22.625zM128.41 104.195l15.176-5.058 40 119.996-15.18 5.058zm35.703-43.543l7.774-13.984 72 40-7.77 13.988zm95.442 18.356l48-31.996 8.875 13.312-48 32zm36.965 131.777l40.027-103.984 14.941 5.75-40.031 103.984zm-38.66-50.238l40-47.996 12.288 10.242-40 47.996zm-72.805-22.918l13.89-7.938 32 56-13.89 7.938zm0 0"/></svg>