<svg height="512" viewBox="0 0 64 64" width="512" xmlns="http://www.w3.org/2000/svg"><g data-name="screen-mobile-laptop-megaphone-Digital Marketing"><path d="M59 53H5V21a2 2 0 012-2h50a2 2 0 012 2z" fill="#3780ea"/><rect fill="#e8e5fb" height="40" rx="2" width="26" x="35" y="3"/><path d="M35 7h26v26H35z" fill="#5bcbfa"/><circle cx="48" cy="38" fill="#f6cc4f" r="2"/><path d="M61 53v4a4.012 4.012 0 01-4 4H7a4.012 4.012 0 01-4-4v-4z" fill="#e8e5fb"/><path d="M38 53v3a1 1 0 01-1 1H27a1 1 0 01-1-1v-3z" fill="#acabb1"/><path d="M47 22l-1 6h-3v-6z" fill="#c7bec5"/><path d="M42 14h7v8h-7z" fill="#e8e5fb"/><path d="M56.41 16.59A1.955 1.955 0 0157 18a2.006 2.006 0 01-2 2h-2v-4h2a1.955 1.955 0 011.41.59zM42 15v6l-3-1v-4z" fill="#ec455a"/><path d="M54 12v12l-5-2v-8z" fill="#f6cc4f"/><path d="M20 37l-1 6h-3v-6z" fill="#c7bec5"/><path d="M15 29h7v8h-7z" fill="#e8e5fb"/><path d="M29.41 31.59A1.955 1.955 0 0130 33a2.006 2.006 0 01-2 2h-2v-4h2a1.955 1.955 0 011.41.59zM15 30v6l-3-1v-4z" fill="#ec455a"/><path d="M27 27v12l-5-2v-8z" fill="#f6cc4f"/><path d="M11 21H8a1 1 0 00-1 1v3h2v-2h2zm44 28h-2v2h3a1 1 0 001-1v-3h-2z" fill="#5bcbfa"/></g></svg>