<svg height="512" viewBox="0 0 496 496" width="512" xmlns="http://www.w3.org/2000/svg"><path d="M480 351.826v6c0 13.25-10.75 24-24 24h-21v82c0 8.84-7.16 16-16 16H77c-8.84 0-16-7.16-16-16v-82H40c-13.25 0-24-10.75-24-24v-6c0-13.25 10.75-24 24-24h83c0-13.028-2.051-38.236 18.51-63.16a81.013 81.013 0 0162.53-29.49h87.81c44.713 0 81.03 36.281 81.03 81.03v11.62H456c13.25 0 24 10.75 24 24z" fill="#ffaa64"/><path d="M480 351.826v6c0 13.25-10.75 24-24 24H40c-13.25 0-24-10.75-24-24v-6c0-13.25 10.75-24 24-24h416c13.25 0 24 10.75 24 24z" fill="#ffbd7b"/><path d="M310.95 149.656c-11.351 66.167-114.24 67.268-125.74.21-7.484-43.558-7.511-39.757-6.07-83.33.92-28.08 23.34-50.36 50.69-50.36h34.38c28.51 0 51.88 23.22 52.85 52.49 1.263 38.79 1.734 35.294-6.11 80.99z" fill="#ffebd2"/><path d="M61 381.826h374v23H61z" fill="#faa157"/><path d="M456.487 347.826H70c-13.258 0-24 10.755-24 24.013 0 1.64-.006 2.938-.007 4.004C45.977 388.426 16 380.704 16 357.826v-6c0-13.255 10.745-24 24-24h416c14.515 0 13.354 20 .487 20z" fill="#ffd3a6"/><path d="M297.07 235.356c-.86 26.33-22.76 47.55-49.13 47.55s-48.27-21.22-49.12-47.55c3.933-.273 93.998-.295 98.25 0z" fill="#ffebd2"/><path d="M233.274 280.65c-19.168-6.091-33.76-23.803-34.454-45.295 3.363-.233 4.038-.18 19.92-.18.588 14.863 7.928 28.295 18.964 37.089 4.169 3.323.651 10.001-4.43 8.386z" fill="#ffdfba"/><path d="M372.88 327.826H123c0-13.027-2.051-38.236 18.51-63.16 14.009-17.015 34.68-27.876 57.31-29.31.85 26.33 22.75 47.55 49.12 47.55s48.27-21.22 49.13-47.55c32.227 2.057 60.1 23.062 71.05 53.47 5.421 15.15 4.76 25.653 4.76 39z" fill="#b5f26d"/><path d="M201.69 250.326c-34.494 9.857-58.516 41.412-58.69 77.5h-20v-11.62c0-42.689 33.204-78.149 75.82-80.85a48.573 48.573 0 002.87 14.97z" fill="#cdfdaa"/><path d="M294.19 250.326c34.494 9.857 58.516 41.412 58.69 77.5h20v-11.62c0-42.689-33.204-78.149-75.82-80.85a48.573 48.573 0 01-2.87 14.97z" fill="#ace667"/><path d="M214.475 83.135c-9.084 11.555-23.643 17.716-35.995 18.231-.341-8.423-.107-11.625.66-34.83.92-28.08 23.34-50.36 50.69-50.36h34.38c28.51 0 51.88 23.22 52.85 52.49.738 22.664.668 20.243.71 22.47-7.598.055-46.116 9.087-93.945-10.536-3.33-1.367-7.126-.294-9.35 2.535z" fill="#aaa"/><path d="M216.369 171.291c7.216 8.423-4.5 19.77-12.764 12.373-9.208-8.242-15.953-19.557-18.395-33.798-4.442-25.85-6.158-33.709-6.73-48.5 6.275-.262 12.843-2.138 18.12-4.49.685 13.286 2.134 19.94 6.61 45.99 1.921 11.201 6.593 20.76 13.159 28.425z" fill="#fff3e4"/><path d="M266.111 16.21c8.333.303 8.037 12.831-.302 12.886-5.053.033-10.958.08-17.979.08-27.35 0-49.77 22.28-50.69 50.36l-.57 17.36c-5.301 2.362-11.845 4.209-18.09 4.47-.34-8.415-.108-11.597.66-34.83.92-28.08 23.34-50.36 50.69-50.36 37.486 0 34.935-.015 36.281.034z" fill="#b2b2b2"/><path d="M310.95 149.656a63.064 63.064 0 01-1.216 5.57c-2.277 8.528-15.015 5.309-13.209-3.331.155-.741.297-1.487.426-2.239 4.397-25.615 7.01-37.308 6.83-57.1 10.319-.936 8.556-1.381 13.99-1.42.34 20.555-2.409 32.816-6.821 58.52z" fill="#ffdfba"/><path d="M317.77 91.136c-5.416.039-3.658.483-13.99 1.42.031-1.478-.122-5.523-.72-23.89-.183-5.507-1.203-10.687-2.921-15.488-2.793-7.805 8.531-12.562 11.896-4.986 5.807 13.074 5.391 24.922 5.735 42.944z" fill="#999"/><path d="M169.437 152.573c14.507 84.468 142.852 83.828 157.285-.21 4.29-24.977 7.77-40.411 6.964-64.885-.686-20.837 1.103-44.984-21.445-67.385C299.311 7.248 282.256.174 264.215.174h-34.382c-36.147 0-65.483 29.255-66.688 65.837-1.497 45.434-1.257 42.602 6.292 86.562zm125.746-5.626c-8.374 48.762-85.731 49.561-94.208.21-4.578-26.66-4.764-27.376-5.42-32.805 8.698-2.726 18.901-7.721 27.622-16.852 24.973 9.385 51.209 13.195 77.96 11.314-.779 8.89-1.416 11.707-5.954 38.133zM229.832 32.174h34.382c19.981 0 36.169 16.263 36.853 37.022l.247 7.512c-21.888 1.877-43.536-.848-64.204-8.18-2.49-16.197-25.018-18.609-30.792-3.201-2.21 5.893-6.003 10.819-11.61 14.45l.419-12.713c.644-19.564 15.888-34.89 34.705-34.89zM295 430.826c0 8.837-7.163 16-16 16h-62c-8.836 0-16-7.163-16-16s7.164-16 16-16h62c8.837 0 16 7.163 16 16zm161-119h-5.117v-67c0-7.343-2.377-8.604-22.8-33.777 14.468-27.134-5.279-60.223-36.2-60.223-22.607 0-41 18.393-41 41 0 27.108 26.066 46.977 52.353 39.389l15.647 19.285v61.326h-30.104c-2.19-48.064-39.46-87.888-88.175-92.255-2.489-.56-102.31-.679-105.326 0-48.744 4.37-85.987 44.223-88.176 92.255H77V250.5l15.647-19.285c26.262 7.58 52.353-12.259 52.353-39.389 0-22.607-18.393-41-41-41-30.877 0-50.693 33.042-36.2 60.223C47.378 236.22 45 237.482 45 244.826v67h-5c-22.056 0-40 17.944-40 40v6c0 22.056 17.944 40 40 40h5v82c0 8.837 7.164 16 16 16s16-7.163 16-16v-82h342v82c0 8.837 7.163 16 16 16s16-7.163 16-16v-82h5c22.056 0 40-17.944 40-40v-6c0-22.056-17.944-40-40-40zm-179.939-60.654c-13.108 20.908-43.088 20.978-56.239 0zm-90.075 2.545c8.56 26.101 33.341 45.186 61.956 45.186s53.396-19.085 61.956-45.186c26.5 7.627 45 31.095 46.836 58.108H139.149c1.841-27.047 20.373-50.491 46.837-58.108zM464 357.826c0 4.411-3.589 8-8 8H40c-4.411 0-8-3.589-8-8v-6c0-4.411 3.589-8 8-8h416c4.411 0 8 3.589 8 8z"/></svg>