<svg height="512" viewBox="0 0 480 480" width="512" xmlns="http://www.w3.org/2000/svg"><g fill="#fe4f60"><circle cx="38.5" cy="38.5" r="30.5"/><circle cx="38.5" cy="441.5" r="30.5"/><circle cx="441.5" cy="441.5" r="30.5"/><circle cx="441.5" cy="38.5" r="30.5"/></g><path d="M51.725 28.726C40.394 31.33 31.321 40.38 28.718 51.723c-1.755 7.647-12.077 9.439-16.196 2.762C.393 34.82 13.912 9.458 36.568 8.06c6.591-.407 12.768 1.284 17.927 4.469 6.679 4.122 4.88 14.438-2.77 16.197zm403 0c-11.331 2.605-20.403 11.654-23.007 22.997-1.755 7.647-12.077 9.439-16.196 2.762-3.181-5.157-4.869-11.331-4.462-17.918 1.4-22.674 26.784-36.17 46.435-24.039 6.679 4.123 4.88 14.439-2.77 16.198zm-403 403c-11.331 2.605-20.403 11.654-23.007 22.997-1.755 7.647-12.077 9.439-16.196 2.762-3.181-5.157-4.869-11.331-4.462-17.918 1.4-22.674 26.784-36.17 46.435-24.039 6.679 4.123 4.88 14.439-2.77 16.198zm403 0c-11.331 2.605-20.403 11.654-23.007 22.997-1.755 7.647-12.077 9.439-16.196 2.762-3.181-5.157-4.869-11.331-4.462-17.918 1.4-22.674 26.784-36.17 46.435-24.039 6.679 4.123 4.88 14.439-2.77 16.198z" fill="#ff6d7a"/><circle cx="240" cy="239.94" fill="#f1fafc" r="155.06"/><path d="M240 239.94V395c4.653-2.849 86.885-55.226 86.885-155.06z" fill="#caf2fc"/><path d="M240 84.88v155.06h86.885c0-99.834-82.232-152.211-86.885-155.06z" fill="#d6f4fc"/><path d="M240 84.88c4.653 2.849 86.885 55.226 86.885 155.06h68.175c0-85.636-69.424-155.06-155.06-155.06z" fill="#bdeffc"/><path d="M326.885 239.94c0 99.834-82.232 152.211-86.885 155.06 85.636 0 155.06-69.424 155.06-155.06z" fill="#b0edfc"/><path d="M240 239.94V395c-4.653-2.849-86.885-55.226-86.885-155.06z" fill="#dbf5fc"/><path d="M240 84.88v155.06h-86.885c0-99.834 82.232-152.211 86.885-155.06z" fill="#e8f8fc"/><path d="M153.115 239.94c0 99.834 82.232 152.211 86.885 155.06-85.636 0-155.06-69.424-155.06-155.06z" fill="#e5f8fc"/><path d="M403 240c0-89.878-73.122-163-163-163S77 150.122 77 240c0 42.321 16.217 80.923 42.757 109.929l-34.664 34.664c-5.056 5.055-1.405 13.657 5.657 13.657a7.976 7.976 0 005.657-2.343l34.714-34.714c29.047 26.122 67.28 41.81 108.888 41.808C329.884 402.995 403 329.875 403 240zm-84.34-8H248V100.508c22.271 17.583 67.416 61.613 70.66 131.492zM232 93.22V232h-70.649c2.293-48.31 24.958-84.146 44.144-106.089a8 8 0 00-12.045-10.531c-20.996 24.013-45.817 63.36-48.113 116.62H93.22C97.246 157.299 157.299 97.246 232 93.22zM93.22 248h52.11c2.89 67.935 42.044 113.604 67.933 136.556C147.911 372.497 96.926 316.767 93.22 248zm68.115 0H232v131.413C192.415 347.99 163.817 301.929 161.335 248zM248 386.78V248h70.647c-2.367 49.99-26.473 86.74-46.873 109.146a8 8 0 00.53 11.301 8 8 0 0011.301-.53c22.309-24.502 48.689-64.826 51.058-119.917H360a8 8 0 000-16h-25.329c-2.885-67.919-42.022-113.593-67.9-136.549C335.088 108.073 387 168.085 387 240c0 78.372-61.65 142.611-139 146.78zm171.936 22.842l-38.779-38.779a8 8 0 00-11.313 0 7.998 7.998 0 000 11.313l38.995 38.995C392.878 446.677 411.335 480 441.5 480c21.229 0 38.5-17.271 38.5-38.5 0-30.897-34.701-49.091-60.064-31.878zM441.5 464c-12.407 0-22.5-10.093-22.5-22.5s10.093-22.5 22.5-22.5 22.5 10.093 22.5 22.5-10.093 22.5-22.5 22.5zM58.848 71.162l38.995 38.995a7.999 7.999 0 0011.313 0 7.998 7.998 0 000-11.313l-38.778-38.78C87.59 34.701 69.395 0 38.5 0 17.271 0 0 17.271 0 38.5c0 30.208 33.368 48.593 58.848 32.662zM38.5 16C50.907 16 61 26.093 61 38.5S50.907 61 38.5 61 16 50.907 16 38.5 26.093 16 38.5 16zm0 387C17.271 403 0 420.271 0 441.5S17.271 480 38.5 480 77 462.729 77 441.5 59.729 403 38.5 403zm0 61C26.093 464 16 453.907 16 441.5S26.093 419 38.5 419 61 429.093 61 441.5 50.907 464 38.5 464zm342.657-354.843l38.779-38.779C445.299 87.59 480 69.395 480 38.5 480 17.271 462.729 0 441.5 0c-30.208 0-48.593 33.368-32.662 58.848l-38.995 38.995a7.998 7.998 0 000 11.313 8 8 0 0011.314.001zM441.5 16c12.407 0 22.5 10.093 22.5 22.5S453.907 61 441.5 61 419 50.907 419 38.5 429.093 16 441.5 16z"/></svg>