<svg height="469pt" viewBox="-2 0 469 469.655" width="469pt" xmlns="http://www.w3.org/2000/svg"><path d="M368.328 101.656h96v192h-96zm-360 296h448v72h-448zm0 0" fill="#5a6470"/><path d="M.328 349.656h464v48h-464zm0 0" fill="#aabece"/><path d="M.328 101.656h96v192h-96zm0 0" fill="#5a6470"/><path d="M64.328 149.656c0 8.836-7.164 16-16 16s-16-7.164-16-16 7.164-16 16-16 16 7.164 16 16zm368 0c0 8.836-7.164 16-16 16s-16-7.164-16-16 7.164-16 16-16 16 7.164 16 16zm-368 96c0 8.836-7.164 16-16 16s-16-7.164-16-16 7.164-16 16-16 16 7.164 16 16zm-16-32a8 8 0 01-8-8v-16a8 8 0 0116 0v16a8 8 0 01-8 8zm0 0" fill="#aabece"/><path d="M32.328 293.656h32v56h-32zm0 0" fill="#f4c864"/><path d="M432.328 245.656c0 8.836-7.164 16-16 16s-16-7.164-16-16 7.164-16 16-16 16 7.164 16 16zm-16-32a8 8 0 01-8-8v-16a8 8 0 0116 0v16a8 8 0 01-8 8zm0 0" fill="#aabece"/><path d="M400.328 293.656h32v56h-32zm0 0" fill="#f4c864"/><path d="M136.328 317.656h192v32h-192zm0 0" fill="#5a6470"/><path d="M168.328 285.656h48v32h-48zm80 0h48v32h-48zm0 0" fill="#f4c864"/><path d="M87.36 20.684c9.374-9.372 24.57-9.372 33.94 0l16.973 16.972-33.941 33.942-16.973-16.973c-9.37-9.371-9.37-24.566 0-33.941zm0 0" fill="#5a6470"/><path d="M66.672 11.313L77.984 0 93.98 15.996 82.668 27.312zm0 0" fill="#aabece"/><path d="M346.266 71.594l-33.942-33.942 16.969-16.972c9.371-9.371 24.57-9.371 33.941 0 9.371 9.375 9.371 24.57 0 33.941zm0 0" fill="#5a6470"/><path d="M356.605 15.996l16-15.996 11.313 11.313-15.996 16zm0 0" fill="#aabece"/><path d="M120.734 104.188l15.18-5.063 40 120-15.18 5.059zm35.707-43.543l7.77-13.985 72.004 40-7.77 13.988zM251.883 79l48-32 8.875 13.313-48 32zm36.965 131.777l40.027-103.988 14.941 5.754-40.03 103.984zm-38.672-50.257l40.023-47.98 12.285 10.25-40.02 47.98zm-72.793-22.899l13.89-7.937 32 55.996-13.894 7.941zm0 0" fill="#e97424"/></svg>