<svg xmlns="http://www.w3.org/2000/svg" viewBox="0 0 64 64" width="512" height="512"><g data-name="screen-mobile-laptop-megaphone-Digital Marketing"><path d="M62 41V5a3.009 3.009 0 00-3-3H37a3.009 3.009 0 00-3 3v13H7a3.009 3.009 0 00-3 3v31a2.006 2.006 0 00-2 2v3a5 5 0 005 5h50a5 5 0 005-5v-3a2.006 2.006 0 00-2-2v-8.18A3.01 3.01 0 0062 41zM36 5a1 1 0 011-1h22a1 1 0 011 1v1H36zm0 3h24v24H36zM6 21a1 1 0 011-1h27v21a3.009 3.009 0 003 3h21v8H6zm31 33v2H27v-2zm23 3a3.009 3.009 0 01-3 3H7a3.009 3.009 0 01-3-3v-3h21v2a2.006 2.006 0 002 2h10a2.006 2.006 0 002-2v-2h21zm-1-15H37a1 1 0 01-1-1v-7h24v7a1 1 0 01-1 1z"/><path d="M48 35a3 3 0 103 3 3 3 0 00-3-3zm0 4a1 1 0 111-1 1 1 0 01-1 1zM11 21H8a1 1 0 00-1 1v3h2v-2h2zm44 28h-2v2h3a1 1 0 001-1v-3h-2zm0-34v-3a1 1 0 00-.44-.83 1.021 1.021 0 00-.93-.1L48.81 13H42a1 1 0 00-1 1v.28l-2.32.77A1.014 1.014 0 0038 16v4a1.014 1.014 0 00.68.95l2.32.77V22a1 1 0 001 1v5a1 1 0 001 1h3a1 1 0 00.99-.84l.86-5.16h.96l4.82 1.93A.937.937 0 0054 25a1.023 1.023 0 00.56-.17A1 1 0 0055 24v-3a3 3 0 000-6zm-14 4.61l-1-.33v-2.56l1-.33zM45.15 27H44v-4h1.82zM48 21h-5v-6h5zm5 1.52l-3-1.2v-6.64l3-1.2zM55 19v-2a1 1 0 010 2zM28 30v-3a1 1 0 00-.44-.83 1.021 1.021 0 00-.93-.1L21.81 28H15a1 1 0 00-1 1v.28l-2.32.77A1.014 1.014 0 0011 31v4a1.014 1.014 0 00.68.95l2.32.77V37a1 1 0 001 1v5a1 1 0 001 1h3a1 1 0 00.99-.84l.86-5.16h.96l4.82 1.93A.937.937 0 0027 40a1.023 1.023 0 00.56-.17A1 1 0 0028 39v-3a3 3 0 000-6zm-14 4.61l-1-.33v-2.56l1-.33zM18.15 42H17v-4h1.82zM21 36h-5v-6h5zm5 1.52l-3-1.2v-6.64l3-1.2zM28 34v-2a1 1 0 010 2z"/></g></svg>