<svg height="512" width="512" xmlns="http://www.w3.org/2000/svg"><path d="M128.533 232.8h254.934v130.667H128.533zm244.194 160.667H139.273l17.126 34.266h199.202zM128.533 168.533h254.934V202.8H128.533zm-11.212-30H394.68l16.527-16.527a15 15 0 004.394-10.606V15a14.998 14.998 0 00-9.26-13.858 15.004 15.004 0 00-16.347 3.252L368.467 25.92 346.939 4.394A14.992 14.992 0 00336.333 0H175.667c-3.979 0-7.794 1.58-10.606 4.394L143.533 25.92 122.007 4.394A15 15 0 0096.4 15v96.4c0 3.978 1.58 7.793 4.394 10.606zm43.346 319.2V497c0 8.284 6.716 15 15 15h160.666c8.284 0 15-6.716 15-15v-39.267z"/></svg>