<svg height="512" width="512" xmlns="http://www.w3.org/2000/svg"><path d="M144.882 453.992h222.236V504.5H144.882z" fill="#e4f6ff"/><path d="M342.874 453.992h24.244V504.5h-24.244z" fill="#e4f6ff"/><path d="M417.626 128.719L427.728 7.5h-56.569l-10.102 32.325h-30.305L320.65 7.5h-129.3l-10.102 32.325h-30.305L140.842 7.5h-56.57l10.102 121.219z" fill="#3d4fc3"/><path d="M401.464 7.5l-10.102 121.219h26.264L427.728 7.5z" fill="#3342aa"/><path d="M104.476 286.305v50.508c0 11.158 9.045 20.203 20.203 20.203h262.642c11.158 0 20.203-9.045 20.203-20.203v-50.508c0-11.158-9.045-20.203-20.203-20.203H124.679c-11.158 0-20.203 9.045-20.203 20.203z" fill="#3d4fc3"/><path d="M387.321 266.102h-5.051v90.915h5.051c11.158 0 20.203-9.045 20.203-20.203v-50.508c0-11.159-9.045-20.204-20.203-20.204z" fill="#3342aa"/><path d="M124.679 169.126h262.642v96.976H124.679z" fill="#f6e781"/><path d="M365.098 169.126h22.224v96.976h-22.224z" fill="#f1cb86"/><path d="M157.004 201.451h197.992v32.325H157.004z" fill="#3d4fc3"/><path d="M124.679 357.016h262.642v96.976H124.679z" fill="#2b3890"/><path d="M363.077 357.016h24.244v96.976h-24.244z" fill="#21386b"/><path d="M114.577 128.719l10.102 40.407h262.642l10.102-40.407z" fill="#2b3890"/><path d="M375.199 128.719l-10.101 40.407h22.223l10.102-40.407z" fill="#21386b"/><path d="M205.492 405.504c0-8.926 7.236-16.163 16.163-16.163h68.691c8.926 0 16.163 7.236 16.163 16.163 0 8.926-7.236 16.163-16.163 16.163h-68.691c-8.927 0-16.163-7.237-16.163-16.163z" fill="#e4f6ff"/><circle cx="290.346" cy="405.504" fill="#dd5790" r="16.163"/><path d="M362.496 233.776v-32.325a7.5 7.5 0 00-7.5-7.5H157.004a7.5 7.5 0 00-7.5 7.5v32.325a7.5 7.5 0 007.5 7.5h197.992a7.5 7.5 0 007.5-7.5zm-15-7.5H164.504v-17.325h182.992z"/><path d="M433.249 2.421A7.501 7.501 0 00427.73 0h-56.57a7.5 7.5 0 00-7.159 5.264l-8.456 27.066h-19.281l-8.456-27.066A7.497 7.497 0 00320.65 0h-129.3a7.5 7.5 0 00-7.159 5.264l-8.456 27.066h-19.281l-8.456-27.066A7.497 7.497 0 00140.84 0H84.27a7.498 7.498 0 00-7.474 8.123l10.1 121.22a7.5 7.5 0 007.474 6.877h14.352l8.458 33.83v89.59c-11.64 3.28-20.199 13.985-20.199 26.659v50.51c0 12.679 8.56 23.389 20.2 26.669v90.511a7.5 7.5 0 007.5 7.5h12.702v43.01a7.5 7.5 0 007.5 7.5h222.236a7.5 7.5 0 007.5-7.5v-43.01h12.702a7.5 7.5 0 007.5-7.5v-90.511c11.64-3.281 20.2-13.99 20.2-26.669V286.3c0-12.674-8.56-23.38-20.199-26.659v-89.59l8.458-33.83h14.352a7.5 7.5 0 007.474-6.877l2.89-34.71a7.5 7.5 0 00-6.852-8.097 7.497 7.497 0 00-8.097 6.852l-2.317 27.833H101.271L92.421 15h42.904l8.456 27.066a7.5 7.5 0 007.159 5.264h30.31a7.5 7.5 0 007.159-5.264L196.865 15h118.271l8.456 27.066a7.5 7.5 0 007.159 5.264h30.31a7.5 7.5 0 007.159-5.264L376.675 15h42.905l-3.614 43.408a7.5 7.5 0 006.852 8.096 7.5 7.5 0 008.096-6.852l4.29-51.53a7.502 7.502 0 00-1.955-5.701zM379.82 446.49h-45.46a7.5 7.5 0 000 15h25.258V497H152.382v-35.51H299.26a7.5 7.5 0 000-15H132.18v-81.97h247.64zm20.2-160.19v50.51c0 7.008-5.697 12.71-12.7 12.71H124.68c-7.003 0-12.7-5.702-12.7-12.71V286.3c0-6.997 5.689-12.691 12.685-12.699l.014.001.029-.001h34.742a7.5 7.5 0 000-15h-27.271v-81.974h247.642V258.6H194.55a7.5 7.5 0 000 15h192.742l.029.001.014-.001c6.996.009 12.685 5.702 12.685 12.7zm-18.555-124.674h-250.93l-6.352-25.406h263.634z"/><path d="M142.862 290.927a7.5 7.5 0 00-7.5 7.5v26.264a7.5 7.5 0 0015 0v-26.264a7.5 7.5 0 00-7.5-7.5zm32.325 0a7.5 7.5 0 00-7.5 7.5v26.264a7.5 7.5 0 0015 0v-26.264a7.5 7.5 0 00-7.5-7.5zm32.325 0a7.5 7.5 0 00-7.5 7.5v26.264a7.5 7.5 0 0015 0v-26.264a7.5 7.5 0 00-7.5-7.5zm32.325 0a7.5 7.5 0 00-7.5 7.5v26.264a7.5 7.5 0 0015 0v-26.264a7.5 7.5 0 00-7.5-7.5zm32.326 0a7.5 7.5 0 00-7.5 7.5v26.264a7.5 7.5 0 0015 0v-26.264a7.5 7.5 0 00-7.5-7.5zm32.325 0a7.5 7.5 0 00-7.5 7.5v26.264a7.5 7.5 0 0015 0v-26.264a7.5 7.5 0 00-7.5-7.5zm32.325 0a7.5 7.5 0 00-7.5 7.5v26.264a7.5 7.5 0 0015 0v-26.264a7.5 7.5 0 00-7.5-7.5zm32.325 0a7.5 7.5 0 00-7.5 7.5v26.264a7.5 7.5 0 0015 0v-26.264a7.5 7.5 0 00-7.5-7.5zm-147.484 138.24h68.691c11.825 0 21.651-8.718 23.389-20.064.18-1.174.273-2.375.273-3.599s-.093-2.425-.273-3.599c-1.739-11.346-11.565-20.064-23.389-20.064h-68.691c-13.048 0-23.663 10.615-23.663 23.663s10.616 23.663 23.663 23.663zm77.354-23.663c0 4.776-3.886 8.663-8.663 8.663s-8.663-3.886-8.663-8.663 3.886-8.663 8.663-8.663 8.663 3.887 8.663 8.663zm-77.354-8.663h46.678c-1.06 2.685-1.65 5.605-1.65 8.663s.589 5.978 1.65 8.663h-46.678c-4.776 0-8.663-3.886-8.663-8.663s3.887-8.663 8.663-8.663z"/></svg>