<svg height="512" viewBox="0 0 480 480" width="512" xmlns="http://www.w3.org/2000/svg"><path d="M403 240c0-89.878-73.122-163-163-163S77 150.122 77 240c0 42.321 16.217 80.923 42.757 109.929l-34.664 34.664c-5.056 5.055-1.405 13.657 5.657 13.657a7.976 7.976 0 005.657-2.343l34.714-34.714c29.047 26.122 67.28 41.81 108.888 41.808C329.884 402.995 403 329.875 403 240zm-84.34-8H248V100.508c22.271 17.583 67.416 61.613 70.66 131.492zM232 93.22V232h-70.649c2.293-48.31 24.958-84.146 44.144-106.089a8 8 0 00-12.045-10.531c-20.996 24.013-45.817 63.36-48.113 116.62H93.22C97.246 157.299 157.299 97.246 232 93.22zM93.22 248h52.11c2.89 67.935 42.044 113.604 67.933 136.556C147.911 372.497 96.926 316.767 93.22 248zm68.115 0H232v131.413C192.415 347.99 163.817 301.929 161.335 248zM248 386.78V248h70.647c-2.367 49.99-26.473 86.74-46.873 109.146a8 8 0 00.53 11.301 8 8 0 0011.301-.53c22.309-24.502 48.689-64.826 51.058-119.917H360a8 8 0 000-16h-25.329c-2.885-67.919-42.022-113.593-67.9-136.549C335.088 108.073 387 168.085 387 240c0 78.372-61.65 142.611-139 146.78zm171.936 22.842l-38.779-38.779a8 8 0 00-11.313 0 7.998 7.998 0 000 11.313l38.995 38.995C392.878 446.677 411.335 480 441.5 480c21.229 0 38.5-17.271 38.5-38.5 0-30.897-34.701-49.091-60.064-31.878zM441.5 464c-12.407 0-22.5-10.093-22.5-22.5s10.093-22.5 22.5-22.5 22.5 10.093 22.5 22.5-10.093 22.5-22.5 22.5zM58.848 71.162l38.995 38.995a7.999 7.999 0 0011.313 0 7.998 7.998 0 000-11.313l-38.778-38.78C87.59 34.701 69.395 0 38.5 0 17.271 0 0 17.271 0 38.5c0 30.208 33.368 48.593 58.848 32.662zM38.5 16C50.907 16 61 26.093 61 38.5S50.907 61 38.5 61 16 50.907 16 38.5 26.093 16 38.5 16zm0 387C17.271 403 0 420.271 0 441.5S17.271 480 38.5 480 77 462.729 77 441.5 59.729 403 38.5 403zm0 61C26.093 464 16 453.907 16 441.5S26.093 419 38.5 419 61 429.093 61 441.5 50.907 464 38.5 464zm342.657-354.843l38.779-38.779C445.299 87.59 480 69.395 480 38.5 480 17.271 462.729 0 441.5 0c-30.208 0-48.593 33.368-32.662 58.848l-38.995 38.995a7.998 7.998 0 000 11.313 8 8 0 0011.314.001zM441.5 16c12.407 0 22.5 10.093 22.5 22.5S453.907 61 441.5 61 419 50.907 419 38.5 429.093 16 441.5 16z"/></svg>