<svg xmlns="http://www.w3.org/2000/svg" xmlns:xlink="http://www.w3.org/1999/xlink" viewBox="0 0 36.87 40"><defs><style>.cls-1{fill:url(#Dégradé_sans_nom_7);}.cls-2{fill:url(#Dégradé_sans_nom_7-2);}.cls-3{fill:url(#Dégradé_sans_nom_7-3);}.cls-4{fill:url(#Dégradé_sans_nom_7-4);}.cls-5{fill:url(#Dégradé_sans_nom_7-5);}.cls-6{fill:url(#Dégradé_sans_nom_7-6);}.cls-7{fill:url(#Dégradé_sans_nom_7-7);}.cls-8{fill:url(#Dégradé_sans_nom_7-8);}.cls-9{fill:url(#Dégradé_sans_nom_7-9);}.cls-10{fill:url(#Dégradé_sans_nom_7-10);}</style><linearGradient id="Dégradé_sans_nom_7" x1="12.81" y1="32.84" x2="24.06" y2="32.84" gradientUnits="userSpaceOnUse"><stop offset="0" stop-color="#009fe3"/><stop offset="1" stop-color="#1d71b8"/></linearGradient><linearGradient id="Dégradé_sans_nom_7-2" x1="13.42" y1="37.47" x2="23.45" y2="37.47" xlink:href="#Dégradé_sans_nom_7"/><linearGradient id="Dégradé_sans_nom_7-3" x1="0" y1="17.06" x2="36.87" y2="17.06" xlink:href="#Dégradé_sans_nom_7"/><linearGradient id="Dégradé_sans_nom_7-4" x1="28.35" y1="13.01" x2="28.39" y2="13.01" xlink:href="#Dégradé_sans_nom_7"/><linearGradient id="Dégradé_sans_nom_7-5" x1="28.39" y1="13.08" x2="28.45" y2="13.08" xlink:href="#Dégradé_sans_nom_7"/><linearGradient id="Dégradé_sans_nom_7-6" x1="7.99" y1="13.26" x2="8.05" y2="13.26" xlink:href="#Dégradé_sans_nom_7"/><linearGradient id="Dégradé_sans_nom_7-7" x1="8.05" y1="13.19" x2="8.09" y2="13.19" xlink:href="#Dégradé_sans_nom_7"/><linearGradient id="Dégradé_sans_nom_7-8" x1="28.45" y1="13.15" x2="28.51" y2="13.15" xlink:href="#Dégradé_sans_nom_7"/><linearGradient id="Dégradé_sans_nom_7-9" x1="18.74" y1="17.39" x2="30.81" y2="17.39" xlink:href="#Dégradé_sans_nom_7"/><linearGradient id="Dégradé_sans_nom_7-10" x1="6.14" y1="17.39" x2="18.22" y2="17.39" xlink:href="#Dégradé_sans_nom_7"/></defs><title>favicon</title><g id="Layer_2" data-name="Layer 2"><g id="Calque_1" data-name="Calque 1"><path class="cls-1" d="M22.56,31.39H14.31a1.46,1.46,0,1,0,0,2.91h8.25a1.46,1.46,0,1,0,0-2.91Zm0,2.24H14.31a.79.79,0,1,1,0-1.58h8.25a.79.79,0,1,1,0,1.58Z"/><path class="cls-2" d="M13.42,35.28A3,3,0,0,0,16,38.19a2.52,2.52,0,0,0,4.83,0,3,3,0,0,0,2.6-2.91v-.34h-10Zm5,4a1.79,1.79,0,0,1-1.68-1.1h3.35A1.79,1.79,0,0,1,18.44,39.33Zm4.3-3.72a2.33,2.33,0,0,1-2.2,1.94l-.26,0H16.6l-.27,0a2.33,2.33,0,0,1-2.2-1.94Z"/><path class="cls-3" d="M35,17.86l1.91-.46A18.35,18.35,0,0,0,36.62,15l-2-.1a15.71,15.71,0,0,0-.46-1.76l1.68-1c-.13-.38-.28-.77-.45-1.15s-.34-.75-.53-1.11l-1.9.47a16.26,16.26,0,0,0-1-1.55l1.31-1.43A18.31,18.31,0,0,0,31.7,5.46L30,6.46a14.42,14.42,0,0,0-1.4-1.19l.81-1.74A18.68,18.68,0,0,0,27.29,2.2L26,3.64a14.85,14.85,0,0,0-1.69-.73L24.56,1A17.51,17.51,0,0,0,22.1.36L21.29,2.1a18.09,18.09,0,0,0-1.82-.21L19.14,0a20,20,0,0,0-2.56.08L16.34,2a16.25,16.25,0,0,0-1.78.32L13.68.61a19.51,19.51,0,0,0-2.38.79l-.06,0,.35,1.88c-.55.25-1.07.51-1.58.8L8.65,2.73A17.45,17.45,0,0,0,6.56,4.21l.9,1.7a15.78,15.78,0,0,0-1.25,1.2L4.49,6.19a16.66,16.66,0,0,0-1.55,2L4.32,9.57a15.36,15.36,0,0,0-.82,1.48l-1.92-.39a17.17,17.17,0,0,0-.89,2.39L2.42,14a14.7,14.7,0,0,0-.33,1.63l-2,.18A17.72,17.72,0,0,0,0,18.3l1.94.38a13,13,0,0,0,.17,1.64l-1.82.73a18.36,18.36,0,0,0,.65,2.47l2-.2c.1.26.2.52.31.77s.22.5.35.75L2,26.06A17.64,17.64,0,0,0,3.4,28.23l1.81-.74A16.56,16.56,0,0,0,6.3,28.76l-1.08,1.6a18.57,18.57,0,0,0,2,1.69l1.5-1.23a16.44,16.44,0,0,0,1.43.91l-.54,1.83c.38.21.76.39,1.15.57l1.6-2.86a14.8,14.8,0,0,1-7.79-7.72A14.51,14.51,0,0,1,12.61,4.36,15.28,15.28,0,0,1,32.4,12.2a14.5,14.5,0,0,1-7.78,19.06L26.4,34c.49-.22,1-.47,1.42-.73l-.63-1.8a16.77,16.77,0,0,0,1.48-1l1.56,1.16a17.77,17.77,0,0,0,1.85-1.72l-1.15-1.54A15.05,15.05,0,0,0,32.05,27l1.85.66a17.69,17.69,0,0,0,1.23-2.16l-1.56-1.15a16.15,16.15,0,0,0,.64-1.68l2,.1a17.49,17.49,0,0,0,.52-2.41l-1.85-.65A15.43,15.43,0,0,0,35,17.86Z"/><path class="cls-4" d="M28.39,13l0,0Z"/><path class="cls-5" d="M28.45,13.12,28.39,13Z"/><path class="cls-6" d="M8,13.3l.06-.08Z"/><path class="cls-7" d="M8.05,13.22l0-.06Z"/><path class="cls-8" d="M28.51,13.19l-.06-.07Z"/><path class="cls-9" d="M29.55,24.31a12.13,12.13,0,0,0,.78-1.9,2.31,2.31,0,0,0,.21-2.52,3,3,0,0,0-.51-1L30,18.75l0-.05h0l0,0a4.39,4.39,0,0,0-.37-4.74l0-.05-.2-.24,0,0h0a1.23,1.23,0,0,0-.54-.68h0l0,0,0,0a.85.85,0,0,0-.56-.08A3.44,3.44,0,0,0,26.77,8.5h0l-.14-.08,0,0-.12-.07-.08-.05a4.18,4.18,0,0,0-.57-.33c-.14-.92-.73-1.85-2.54-1.72,0,0-2.59-3-4.51.39,0,0-.29,1.92.81,2.77a2.59,2.59,0,0,0,.09,3.34,7.51,7.51,0,0,0-.27,1.43,2.52,2.52,0,0,0,.23,1.44c0,.3,0,.6.05.89v0l.27-.41L20,16a13.81,13.81,0,0,1,.86-1.12l.19-.22a3.9,3.9,0,0,0,.85-1.47,4.4,4.4,0,0,0,.14-.65,6,6,0,0,0,0-1.27,11.37,11.37,0,0,0-.42-2c-.26-.85-.54-1.64-.81-2.37l.43.16c.26.59.53,1.22.79,1.91a11.5,11.5,0,0,1,.58,2.09,1.57,1.57,0,0,1,0,.23,6.49,6.49,0,0,1,.06.78,1,1,0,0,0,.07-.15l.14-.3a2.37,2.37,0,0,0,.14-.32c.09-.23.19-.47.27-.73s.16-.54.22-.83l.07-.38.28-.56h0V8.9a1.93,1.93,0,0,1,0,.24l0,.24-.06.47c-.06.31-.14.6-.2.89s-.17.55-.25.8a1.91,1.91,0,0,1-.13.36l-.14.32a4.08,4.08,0,0,1-.25.55l-.16.31a3.73,3.73,0,0,1-.09.46,5.21,5.21,0,0,1-1,2.05l-.2.28a11.68,11.68,0,0,0-.76,1.21h0a10,10,0,0,0-.55,1.14l-.19.48c-.05.14-.1.27-.14.4h0c.12-.15.25-.3.38-.44s.33-.36.5-.52a13.72,13.72,0,0,1,1.13-.94l.28-.21.26-.21c.17-.15.33-.31.49-.48a7.12,7.12,0,0,0,.86-1.16,6.71,6.71,0,0,0,.35-.65c.05-.1.1-.22.15-.33l.14-.34a10.63,10.63,0,0,0,.4-1.34A11.66,11.66,0,0,0,25,10.31c0-.13,0-.25,0-.35l0,0c0,.09,0,.19,0,.3A12.19,12.19,0,0,1,25,12.58a10.52,10.52,0,0,1-.32,1.47l-.12.39c0,.12-.09.25-.14.38a7,7,0,0,1-.32.75A8,8,0,0,1,23.22,17a7.64,7.64,0,0,1-.51.62c-.08.1-.18.19-.27.29l-.27.25a10.78,10.78,0,0,0-1,1.05,9.92,9.92,0,0,0-.83,1.13l0,0-.21.36.27-.08a9,9,0,0,0,1.41-.54,5.84,5.84,0,0,0,2-1.58,4.46,4.46,0,0,0,.71-1.29l.27-.81c.08-.28.2-.53.3-.79s.23-.49.34-.72.24-.44.36-.64a8.21,8.21,0,0,1,.77-1l.3-.31.09.2a3.37,3.37,0,0,0-.27.34A7.94,7.94,0,0,0,26,14.54c-.1.2-.2.42-.3.65s-.2.46-.28.72-.17.5-.23.77l-.22.84a.24.24,0,0,1,0,.08l.36-.33.54-.44c.18-.15.38-.28.57-.43l.59-.37c.2-.1.39-.22.58-.31l.27-.13a.88.88,0,0,1,.05.15l-.28.16c-.18.1-.36.24-.55.36s-.38.28-.57.42l-.54.46-.51.49-.47.49c-.14.15-.27.32-.4.46l-.06.08c-.1.18-.2.36-.3.52a7.42,7.42,0,0,1-2.15,2.09,10.39,10.39,0,0,1-1.56.83l-.39.16h.06c-.1,0-.6.34-.83,3.78-.2,1.13.13,2.62,2.53,3.7,0,0,3.16.54,3.58-2.28C25.51,27.46,29.44,28.81,29.55,24.31Z"/><path class="cls-10" d="M7.41,24.31a13.28,13.28,0,0,1-.79-1.9,2.31,2.31,0,0,1-.2-2.52,2.87,2.87,0,0,1,.51-1L7,18.75l0-.05H7l0,0a4.39,4.39,0,0,1,.37-4.74l0-.05.19-.24,0,0h0a1.24,1.24,0,0,1,.55-.68h0l0,0,0,0a.85.85,0,0,1,.56-.08A3.44,3.44,0,0,1,10.18,8.5h0l.14-.08,0,0,.11-.07.09-.05a4.18,4.18,0,0,1,.57-.33c.14-.92.72-1.85,2.53-1.72,0,0,2.59-3,4.52.39,0,0,.28,1.92-.81,2.77a2.6,2.6,0,0,1-.09,3.34,7.08,7.08,0,0,1,.26,1.43,2.52,2.52,0,0,1-.22,1.44c0,.3,0,.6-.06.89v0c-.08-.14-.17-.28-.26-.41a.71.71,0,0,0-.1-.14,11.77,11.77,0,0,0-.85-1.12l-.2-.22A3.75,3.75,0,0,1,15,13.16a3.41,3.41,0,0,1-.14-.65,5.39,5.39,0,0,1,0-1.27,10.5,10.5,0,0,1,.42-2c.25-.85.54-1.64.81-2.37l-.43.16c-.26.59-.53,1.22-.79,1.91a12.35,12.35,0,0,0-.59,2.09l0,.23c0,.25-.06.51-.07.78a1,1,0,0,0-.07-.15l-.14-.3a2.37,2.37,0,0,1-.14-.32c-.08-.23-.18-.47-.26-.73s-.16-.54-.22-.83l-.07-.38L13,8.81h0V8.9c0,.08,0,.16,0,.24l0,.24.07.47c.06.31.13.6.2.89s.17.55.24.8a3,3,0,0,0,.14.36l.13.32c.09.2.17.4.25.55l.17.31c0,.15.05.31.08.46a5.36,5.36,0,0,0,1,2.05c.06.1.13.19.19.28a10.29,10.29,0,0,1,.77,1.21h0a11.87,11.87,0,0,1,.54,1.14c.07.16.14.32.2.48s.09.27.14.4h0c-.13-.15-.25-.3-.38-.44s-.33-.36-.5-.52a12.34,12.34,0,0,0-1.14-.94L14.87,17l-.26-.21c-.17-.15-.34-.31-.5-.48a7.7,7.7,0,0,1-.85-1.16,5.07,5.07,0,0,1-.35-.65c-.05-.1-.1-.22-.15-.33s-.1-.22-.14-.34a10.63,10.63,0,0,1-.4-1.34,11.66,11.66,0,0,1-.28-2.18c0-.13,0-.25,0-.35l0,0c0,.09,0,.19,0,.3A12.19,12.19,0,0,0,12,12.58a10.52,10.52,0,0,0,.32,1.47l.12.39c0,.12.08.25.13.38s.21.51.33.75A8,8,0,0,0,13.74,17c.16.22.33.42.5.62l.28.29.27.25a14,14,0,0,1,1,1.05,11.3,11.3,0,0,1,.83,1.13v0a3.35,3.35,0,0,1,.21.36l-.26-.08a8.6,8.6,0,0,1-1.41-.54,5.75,5.75,0,0,1-2-1.58,4.46,4.46,0,0,1-.71-1.29l-.27-.81c-.09-.28-.21-.53-.3-.79s-.23-.49-.34-.72-.24-.44-.36-.64a8.21,8.21,0,0,0-.77-1l-.3-.31c0,.07-.07.13-.1.2a3.39,3.39,0,0,1,.28.34,7,7,0,0,1,.66,1.07c.11.2.21.42.31.65s.19.46.27.72.18.5.24.77l.21.84,0,.08-.36-.33-.54-.44-.57-.43L9.91,16c-.2-.1-.39-.22-.58-.31l-.28-.13c0,.05,0,.1,0,.15l.27.16c.19.1.37.24.56.36s.38.28.56.42l.55.46.51.49.46.49c.15.15.28.32.4.46l.07.08a4.4,4.4,0,0,0,.3.52,7.42,7.42,0,0,0,2.15,2.09,10.39,10.39,0,0,0,1.56.83l.38.16h-.05c.1,0,.6.34.83,3.78.2,1.13-.13,2.62-2.53,3.7,0,0-3.16.54-3.59-2.28C11.44,27.46,7.52,28.81,7.41,24.31Z"/></g></g></svg>