<svg xmlns="http://www.w3.org/2000/svg" xmlns:xlink="http://www.w3.org/1999/xlink" viewBox="0 0 501.33 390.05"><defs><style>.cls-1{fill:url(#Dégradé_sans_nom_7);}.cls-2{fill:url(#Dégradé_sans_nom_7-2);}.cls-3{fill:url(#Dégradé_sans_nom_7-3);}.cls-4{fill:url(#Dégradé_sans_nom_7-4);}.cls-5{fill:url(#Dégradé_sans_nom_7-5);}.cls-6{fill:url(#Dégradé_sans_nom_7-6);}.cls-7{fill:url(#Dégradé_sans_nom_7-7);}.cls-8{fill:url(#Dégradé_sans_nom_7-8);}.cls-9{fill:url(#Dégradé_sans_nom_7-9);}.cls-10{fill:url(#Dégradé_sans_nom_7-10);}.cls-11{fill:url(#Dégradé_sans_nom_7-11);}.cls-12{fill:url(#Dégradé_sans_nom_7-12);}.cls-13{fill:url(#Dégradé_sans_nom_7-13);}.cls-14{fill:url(#Dégradé_sans_nom_7-14);}.cls-15{fill:url(#Dégradé_sans_nom_7-15);}.cls-16{fill:url(#Dégradé_sans_nom_7-16);}.cls-17{fill:url(#Dégradé_sans_nom_7-17);}.cls-18{fill:url(#Dégradé_sans_nom_7-18);}.cls-19{fill:url(#Dégradé_sans_nom_7-19);}.cls-20{fill:url(#Dégradé_sans_nom_7-20);}</style><linearGradient id="Dégradé_sans_nom_7" y1="363.46" x2="7.48" y2="363.46" gradientUnits="userSpaceOnUse"><stop offset="0" stop-color="#009fe3"/><stop offset="1" stop-color="#1d71b8"/></linearGradient><linearGradient id="Dégradé_sans_nom_7-2" x1="26.07" y1="363.46" x2="62.21" y2="363.46" xlink:href="#Dégradé_sans_nom_7"/><linearGradient id="Dégradé_sans_nom_7-3" x1="74.69" y1="363.46" x2="109.58" y2="363.46" xlink:href="#Dégradé_sans_nom_7"/><linearGradient id="Dégradé_sans_nom_7-4" x1="124.74" y1="363.46" x2="132.21" y2="363.46" xlink:href="#Dégradé_sans_nom_7"/><linearGradient id="Dégradé_sans_nom_7-5" x1="152.41" y1="363.46" x2="191.04" y2="363.46" xlink:href="#Dégradé_sans_nom_7"/><linearGradient id="Dégradé_sans_nom_7-6" x1="201.87" y1="362.85" x2="251.71" y2="362.85" xlink:href="#Dégradé_sans_nom_7"/><linearGradient id="Dégradé_sans_nom_7-7" x1="265.87" y1="363.46" x2="303.26" y2="363.46" xlink:href="#Dégradé_sans_nom_7"/><linearGradient id="Dégradé_sans_nom_7-8" x1="318.02" y1="363.46" x2="361.64" y2="363.46" xlink:href="#Dégradé_sans_nom_7"/><linearGradient id="Dégradé_sans_nom_7-9" x1="442.76" y1="363.46" x2="501.33" y2="363.46" xlink:href="#Dégradé_sans_nom_7"/><linearGradient id="Dégradé_sans_nom_7-10" x1="376.11" y1="363.46" x2="430.23" y2="363.46" xlink:href="#Dégradé_sans_nom_7"/><linearGradient id="Dégradé_sans_nom_7-11" x1="204.68" y1="268.34" x2="296.64" y2="268.34" xlink:href="#Dégradé_sans_nom_7"/><linearGradient id="Dégradé_sans_nom_7-12" x1="209.67" y1="306.17" x2="291.65" y2="306.17" xlink:href="#Dégradé_sans_nom_7"/><linearGradient id="Dégradé_sans_nom_7-13" x1="100.05" y1="139.42" x2="401.27" y2="139.42" xlink:href="#Dégradé_sans_nom_7"/><linearGradient id="Dégradé_sans_nom_7-14" x1="331.7" y1="106.33" x2="332.04" y2="106.33" xlink:href="#Dégradé_sans_nom_7"/><linearGradient id="Dégradé_sans_nom_7-15" x1="332.04" y1="106.85" x2="332.53" y2="106.85" xlink:href="#Dégradé_sans_nom_7"/><linearGradient id="Dégradé_sans_nom_7-16" x1="165.31" y1="108.34" x2="165.82" y2="108.34" xlink:href="#Dégradé_sans_nom_7"/><linearGradient id="Dégradé_sans_nom_7-17" x1="165.82" y1="107.76" x2="166.18" y2="107.76" xlink:href="#Dégradé_sans_nom_7"/><linearGradient id="Dégradé_sans_nom_7-18" x1="332.53" y1="107.45" x2="332.99" y2="107.45" xlink:href="#Dégradé_sans_nom_7"/><linearGradient id="Dégradé_sans_nom_7-19" x1="253.14" y1="142.09" x2="351.81" y2="142.09" xlink:href="#Dégradé_sans_nom_7"/><linearGradient id="Dégradé_sans_nom_7-20" x1="150.26" y1="142.09" x2="248.93" y2="142.09" xlink:href="#Dégradé_sans_nom_7"/></defs><title>logo_1</title><g id="Layer_2" data-name="Layer 2"><g id="Calque_1" data-name="Calque 1"><path class="cls-1" d="M0,388.84V338.07H7.48v50.77Z"/><path class="cls-2" d="M62.21,373.58c0,8.77-6.31,15.26-16.82,15.26H26.07v-7.25H44.14c6.47,0,10.59-2.57,10.59-8.16s-4.12-8.16-10.59-8.16H26.07V358H42.9c5.92,0,9.34-2,9.34-6.35s-3.42-6.35-9.34-6.35H26.07v-7.25H41.73c11.29,0,18,4.53,18,13.3,0,5.06-2.81,8.91-6.23,10.2C59.64,363,62.21,368.52,62.21,373.58Z"/><path class="cls-3" d="M74.69,345.19v-7.12h34.89v7.12ZM88.4,388.84V349.33h7.47v39.51Z"/><path class="cls-4" d="M124.74,388.84V338.07h7.47v50.77Z"/><path class="cls-5" d="M191,388.84h-10l-21.19-22.36v22.36h-7.47V338.07h7.47v22.36l19.94-22.36h10l-23,24.86Z"/><path class="cls-6" d="M251.71,388.84h-8.1L238.55,378h0l-11.73-25.08L215.05,378h0L210,388.84h-8.1l24.92-52Z"/><path class="cls-7" d="M303.26,388.84h-8.73l-13-17.53h-8.18v17.53h-7.48V364.06h18.62c5.45,0,10-2.72,10-9.29s-4.43-9.45-9.89-9.45H265.87v-7.25h16.2c13.63,0,19.94,6.65,19.94,16.24,0,7.86-4.44,14.28-12.23,16.32Z"/><path class="cls-8" d="M358.44,376.68l3.2,6.8a25.17,25.17,0,0,1-16.36,6c-15,0-27.26-11.64-27.26-26s12.23-26,27.26-26a25.1,25.1,0,0,1,16.36,5.9l-3.2,6.8a18,18,0,0,0-13.63-5.44c-10.67,0-19.31,8.39-19.31,18.74s8.64,18.73,19.31,18.73C350.73,382.19,354.86,380.31,358.44,376.68Z"/><path class="cls-9" d="M448.51,355.16l5.72,10.52-3.84,23.16h-7.63Zm45.91-6.74L472,390.05l-22.37-41.7,2-11.49L472,375.24l20.41-38.38Zm6.91,40.42h-7.64l-3.85-23.22,5.7-10.66Z"/><path class="cls-10" d="M413.56,387.72l.09,0a27.11,27.11,0,0,0,3.29-1.61l-.92-2.65a21.81,21.81,0,0,0,2.17-1.48l2.3,1.71a26,26,0,0,0,2.71-2.52l-1.68-2.27a25.25,25.25,0,0,0,1.64-2.07l2.71,1a25,25,0,0,0,1.81-3.18l-2.3-1.68a22.44,22.44,0,0,0,.95-2.47l2.89.15a25.06,25.06,0,0,0,.76-3.54l-2.71-.95a23.59,23.59,0,0,0,.16-2.66l2.8-.68a24.4,24.4,0,0,0-.36-3.59l-2.88-.13a21.46,21.46,0,0,0-.68-2.59l2.47-1.45c-.2-.57-.42-1.13-.66-1.69s-.5-1.1-.78-1.64l-2.79.7a23.73,23.73,0,0,0-1.43-2.28L425,348a25.5,25.5,0,0,0-2.4-2.77l-2.46,1.47a22.93,22.93,0,0,0-2.06-1.75l1.2-2.55a28.29,28.29,0,0,0-3.14-2l-1.91,2.11c-.81-.4-1.64-.76-2.48-1.08l.37-2.77a29.54,29.54,0,0,0-3.61-1l-1.18,2.56a26.61,26.61,0,0,0-2.67-.31l-.49-2.75a27.84,27.84,0,0,0-3.76.11l-.35,2.79a23.79,23.79,0,0,0-2.61.46l-1.3-2.49a28.54,28.54,0,0,0-3.49,1.16l-.08,0,.5,2.77a22.71,22.71,0,0,0-2.31,1.17l-2-2a27.19,27.19,0,0,0-3.07,2.16l1.32,2.5a25.34,25.34,0,0,0-1.83,1.76l-2.52-1.35a26.91,26.91,0,0,0-2.29,3l2,2a23,23,0,0,0-1.2,2.17l-2.83-.57a26.27,26.27,0,0,0-1.29,3.5l2.54,1.34a21.08,21.08,0,0,0-.49,2.39l-2.87.26a24.34,24.34,0,0,0-.19,3.72l2.83.56a22.17,22.17,0,0,0,.26,2.41l-2.67,1.07a26.46,26.46,0,0,0,.95,3.62l2.88-.29c.14.38.29.75.45,1.13s.33.74.51,1.1l-2.22,1.79a25.88,25.88,0,0,0,2,3.19l2.66-1.09a23.73,23.73,0,0,0,1.6,1.86l-1.58,2.35a27,27,0,0,0,2.87,2.48l2.2-1.8A24.16,24.16,0,0,0,391,383.8l-.8,2.7a29.26,29.26,0,0,0,3.48,1.55l1.56-2.35c.8.26,1.61.49,2.44.68l.06,2.81a27.92,27.92,0,0,0,3.78.5l.77-2.7q1.29,0,2.58,0l.91,2.66a26.73,26.73,0,0,0,3.74-.61l-.08-2.79a25.63,25.63,0,0,0,2.49-.79Zm-30.8-15.92a21.31,21.31,0,0,1,11.86-28.18c11.3-4.6,24.3.56,29.05,11.52a21.29,21.29,0,0,1-11.87,28.17C400.5,387.91,387.5,382.76,382.76,371.8Z"/><path class="cls-11" d="M284.38,256.44H217a11.91,11.91,0,1,0,0,23.8h67.43a11.91,11.91,0,1,0,0-23.8Zm0,18.35H217a6.45,6.45,0,1,1,0-12.9h67.43a6.45,6.45,0,1,1,0,12.9Z"/><path class="cls-12" d="M209.67,288.24c0,12,9.19,22.08,21.29,23.79a20.55,20.55,0,0,0,39.45,0c12.07-1.72,21.24-11.79,21.24-23.79v-2.73h-82Zm41,33.13a14.66,14.66,0,0,1-13.68-9h27.37A14.66,14.66,0,0,1,250.68,321.37ZM285.83,291a19,19,0,0,1-17.92,15.84l-2.17.13H235.67l-2.21-.13a19,19,0,0,1-18-15.84Z"/><path class="cls-13" d="M385.68,146l15.59-3.78a141,141,0,0,0-2-20l-16.05-.75A127,127,0,0,0,379.48,107L393.23,99q-1.67-4.73-3.67-9.39t-4.34-9.12l-15.56,3.87a129.79,129.79,0,0,0-8-12.7L372.37,60a146.14,146.14,0,0,0-13.31-15.37l-13.71,8.16A133.11,133.11,0,0,0,333.87,43l6.67-14.16A151.42,151.42,0,0,0,323.06,18L312.44,29.73a138.47,138.47,0,0,0-13.82-6l2.07-15.43a155.18,155.18,0,0,0-20.08-5.39L274,17.17a138.75,138.75,0,0,0-14.86-1.72L256.45.11a153.94,153.94,0,0,0-20.9.63l-2,15.51a138.65,138.65,0,0,0-14.52,2.6L211.81,5a154.47,154.47,0,0,0-19.42,6.45l-.47.2L194.75,27a137.58,137.58,0,0,0-12.89,6.52l-11.15-11.2a148.43,148.43,0,0,0-17.09,12.06L161,48.27a133,133,0,0,0-10.19,9.79l-14.05-7.51a145.89,145.89,0,0,0-12.71,16.51l11.27,11.16a127.06,127.06,0,0,0-6.68,12.08l-15.72-3.16a142.6,142.6,0,0,0-7.21,19.47l14.14,7.44a127.62,127.62,0,0,0-2.73,13.31l-16,1.47a140.26,140.26,0,0,0-1,20.72l15.78,3.07A127.32,127.32,0,0,0,117.28,166l-14.83,6a140.9,140.9,0,0,0,5.29,20.13l16-1.58q1.17,3.13,2.52,6.26c.9,2.07,1.85,4.12,2.84,6.13l-12.37,10a144.83,144.83,0,0,0,11.11,17.76l14.79-6.08A130.1,130.1,0,0,0,151.52,235l-8.8,13.08a149.25,149.25,0,0,0,16,13.79l12.29-10a135.73,135.73,0,0,0,11.7,7.42l-4.43,15c3.08,1.64,6.23,3.17,9.42,4.6l13.08-23.32a121.16,121.16,0,0,1-63.7-63.09c-26.4-61,3.17-131.21,66-156.82s135.24,3.07,161.64,64.08c26,60.17-2.37,129.29-63.49,155.75l14.49,22.46c4-1.85,7.85-3.83,11.59-6l-5.13-14.74A132.26,132.26,0,0,0,334.28,249l12.8,9.5a147,147,0,0,0,15.09-14l-9.38-12.62a133.56,133.56,0,0,0,9.14-11.5L377,225.7A145.89,145.89,0,0,0,387.12,208l-12.81-9.37a127.92,127.92,0,0,0,5.28-13.76l16.06.85a141.87,141.87,0,0,0,4.25-19.7l-15.08-5.3A127.77,127.77,0,0,0,385.68,146Z"/><path class="cls-14" d="M332,106.54l-.34-.42Z"/><path class="cls-15" d="M332.53,107.16l-.49-.62Z"/><path class="cls-16" d="M165.31,108.67l.51-.67Z"/><path class="cls-17" d="M165.82,108l.36-.48Z"/><path class="cls-18" d="M333,107.73l-.46-.57Z"/><path class="cls-19" d="M341.47,198.62a104,104,0,0,0,6.43-15.54c3.71-4.74,5.72-11.48,1.69-20.58a25.73,25.73,0,0,0-4.17-8.36l-.47-.93-.2-.38,0-.05-.15-.29c4.56-10.16,7.83-25.22-3-38.77l-.34-.42-1.57-2-.17-.22h0a10,10,0,0,0-4.43-5.53h0l-.25-.31.25.31a6.78,6.78,0,0,0-4.62-.65s9.89-23.06-11.61-35.52l-.09,0h0l-1.14-.66-.26-.15-1-.56-.72-.42A32.11,32.11,0,0,0,311,64.85c-1.17-7.52-5.93-15.12-20.71-14,0,0-21.17-24.43-36.89,3.2,0,0-2.34,15.64,6.59,22.6,0,0-11.39,14.78.77,27.29a60.35,60.35,0,0,0-2.17,11.66c-.33,4.24-.05,8.74,1.81,11.83.24,2.44.39,4.87.47,7.27V135c.69-1.13,1.4-2.25,2.14-3.36.25-.38.53-.76.79-1.14a102,102,0,0,1,7-9.09c.54-.63,1.08-1.26,1.61-1.85a31.28,31.28,0,0,0,6.91-12,30.49,30.49,0,0,0,1.11-5.28,45.66,45.66,0,0,0,0-10.39,91.17,91.17,0,0,0-3.43-16c-2.07-6.92-4.42-13.34-6.59-19.36,1.16.4,2.32.84,3.46,1.31,2.12,4.8,4.36,10,6.48,15.6a94.72,94.72,0,0,1,4.79,17.06c.1.62.17,1.28.26,1.93a58.47,58.47,0,0,1,.55,6.32l.57-1.2c.37-.77.76-1.57,1.15-2.4a19.56,19.56,0,0,0,1.14-2.65c.68-1.9,1.49-3.86,2.17-6s1.28-4.42,1.79-6.78c.19-1,.39-2.07.58-3.11l2.3-4.57.08.06-.05.69c-.05.66-.08,1.32-.15,2l-.27,1.94c-.19,1.29-.37,2.57-.55,3.85-.44,2.52-1.08,4.91-1.59,7.29s-1.38,4.44-2,6.52a21.36,21.36,0,0,1-1.09,2.9l-1.1,2.64a43,43,0,0,1-2.05,4.51l-1.34,2.52c-.18,1.28-.4,2.55-.7,3.81A44.61,44.61,0,0,1,277,127.4c-.56.76-1.1,1.5-1.63,2.25a103.12,103.12,0,0,0-6.24,9.86l-.06.11a96.48,96.48,0,0,0-4.48,9.3c-.55,1.33-1.08,2.65-1.56,4-.41,1.1-.81,2.2-1.17,3.29h0c1-1.23,2.07-2.44,3.13-3.63,1.32-1.47,2.67-2.89,4.08-4.22a95.78,95.78,0,0,1,9.25-7.72l2.26-1.69c.7-.54,1.4-1.11,2.1-1.73a53.7,53.7,0,0,0,4.06-3.94,60.82,60.82,0,0,0,9.83-14.72c.44-.88.83-1.81,1.25-2.76s.76-1.8,1.1-2.74a80.77,80.77,0,0,0,3.31-11,96.07,96.07,0,0,0,2.27-17.84q0-1.59.06-2.85l.33.41c0,.74.08,1.53.12,2.43a100,100,0,0,1-1,18.59,89.69,89.69,0,0,1-2.62,12c-.29,1-.64,2.08-1,3.15s-.69,2-1.1,3.09c-.77,2.09-1.65,4.16-2.63,6.18a69.93,69.93,0,0,1-6.88,11.51,64,64,0,0,1-4.14,5.05c-.71.79-1.46,1.57-2.24,2.34l-2.2,2.11a103.09,103.09,0,0,0-8,8.53,92.28,92.28,0,0,0-6.73,9.22l-.16.24c-.59,1-1.16,2-1.72,3,.71-.19,1.44-.41,2.16-.62a71.64,71.64,0,0,0,11.57-4.44,47.4,47.4,0,0,0,16.56-12.92,37.38,37.38,0,0,0,5.82-10.53l2.2-6.63c.68-2.29,1.65-4.35,2.46-6.46s1.85-4,2.74-5.89,2-3.57,3-5.22a60.88,60.88,0,0,1,6.27-8.29c.82-.94,1.64-1.76,2.45-2.53.25.52.52,1,.76,1.58-.73.86-1.47,1.76-2.21,2.78a64.29,64.29,0,0,0-5.47,8.73q-1.27,2.55-2.5,5.31c-.72,1.94-1.58,3.8-2.22,5.88s-1.41,4.11-1.91,6.36-1.17,4.55-1.76,6.87c-.06.21-.14.41-.2.62l2.9-2.68,4.43-3.65c1.52-1.19,3.11-2.29,4.68-3.44s3.2-2.1,4.8-3,3.18-1.84,4.75-2.55c.76-.38,1.51-.74,2.25-1.07.12.42.26.83.38,1.26-.74.41-1.5.84-2.26,1.31-1.52.83-3,1.93-4.57,2.93s-3.06,2.26-4.59,3.42-3,2.48-4.45,3.78l-4.18,4-3.78,4c-1.2,1.28-2.26,2.61-3.28,3.78l-.54.63a48.58,48.58,0,0,1-2.45,4.27,59.22,59.22,0,0,1-17.54,17.06,84.08,84.08,0,0,1-12.78,6.8c-1.07.46-2.12.9-3.13,1.29l.45,0c-.83.22-4.92,2.75-6.77,30.87-1.65,9.26,1.06,21.38,20.65,30.23,0,0,25.84,4.46,29.31-18.63C308.52,224.35,340.56,235.41,341.47,198.62Z"/><path class="cls-20" d="M160.6,198.62a104.07,104.07,0,0,1-6.44-15.54c-3.71-4.74-5.72-11.48-1.69-20.58a25.73,25.73,0,0,1,4.17-8.36l.47-.93.2-.38,0-.05.14-.29c-4.56-10.16-7.83-25.22,3-38.77l.35-.42,1.56-2,.18-.22h0a10,10,0,0,1,4.43-5.53h0l.25-.31-.25.31a6.75,6.75,0,0,1,4.61-.65s-9.88-23.06,11.62-35.52l.08,0h0l1.15-.66.26-.15,1-.56.72-.42a32.66,32.66,0,0,1,4.62-2.73c1.18-7.52,5.93-15.12,20.71-14,0,0,21.17-24.43,36.89,3.2,0,0,2.34,15.64-6.59,22.6,0,0,11.39,14.78-.77,27.29a60.81,60.81,0,0,1,2.18,11.66c.32,4.24,0,8.74-1.82,11.83-.23,2.44-.39,4.87-.47,7.27V135q-1-1.69-2.13-3.36l-.8-1.14a100.11,100.11,0,0,0-7-9.09c-.53-.63-1.07-1.26-1.61-1.85a31.26,31.26,0,0,1-6.9-12,29.59,29.59,0,0,1-1.12-5.28,45.66,45.66,0,0,1,0-10.39,91.17,91.17,0,0,1,3.43-16c2.07-6.92,4.43-13.34,6.59-19.36-1.16.4-2.32.84-3.46,1.31-2.12,4.8-4.36,10-6.48,15.6a95.55,95.55,0,0,0-4.79,17.06c-.1.62-.17,1.28-.25,1.93a58.47,58.47,0,0,0-.55,6.32l-.58-1.2-1.15-2.4a19.56,19.56,0,0,1-1.14-2.65c-.68-1.9-1.49-3.86-2.17-6s-1.28-4.42-1.79-6.78c-.19-1-.38-2.07-.58-3.11L206.4,72l-.07.06,0,.69c0,.66.08,1.32.15,2l.27,1.94c.19,1.29.37,2.57.56,3.85.43,2.52,1.07,4.91,1.58,7.29s1.39,4.44,2,6.52a22.77,22.77,0,0,0,1.09,2.9q.57,1.38,1.11,2.64a41,41,0,0,0,2.05,4.51l1.34,2.52c.18,1.28.39,2.55.69,3.81a44.61,44.61,0,0,0,7.86,16.73c.57.76,1.1,1.5,1.63,2.25a103.12,103.12,0,0,1,6.24,9.86l.06.11a94.18,94.18,0,0,1,4.48,9.3c.55,1.33,1.08,2.65,1.57,4,.4,1.1.81,2.2,1.17,3.29h0q-1.53-1.84-3.13-3.63c-1.32-1.47-2.67-2.89-4.08-4.22a94.59,94.59,0,0,0-9.25-7.72l-2.26-1.69c-.69-.54-1.4-1.11-2.1-1.73a53.7,53.7,0,0,1-4.06-3.94,57.9,57.9,0,0,1-7-9.44c-1-1.7-2-3.47-2.83-5.28-.44-.88-.83-1.81-1.25-2.76s-.76-1.8-1.1-2.74a79.29,79.29,0,0,1-3.3-11,95.36,95.36,0,0,1-2.28-17.84q0-1.59-.06-2.85l-.32.41c-.05.74-.09,1.53-.13,2.43a100.91,100.91,0,0,0,1,18.59,89.69,89.69,0,0,0,2.62,12c.29,1,.64,2.08,1,3.15s.68,2,1.09,3.09c.78,2.09,1.66,4.16,2.63,6.18a71.35,71.35,0,0,0,6.88,11.51c1.31,1.77,2.7,3.46,4.14,5.05.72.79,1.46,1.57,2.24,2.34l2.2,2.11a104.91,104.91,0,0,1,8,8.53,93.78,93.78,0,0,1,6.72,9.22l.16.24c.59,1,1.16,2,1.72,3-.7-.19-1.44-.41-2.16-.62a72,72,0,0,1-11.57-4.44,47.37,47.37,0,0,1-16.55-12.92,37.4,37.4,0,0,1-5.83-10.53l-2.2-6.63c-.68-2.29-1.64-4.35-2.45-6.46s-1.86-4-2.75-5.89-2-3.57-3-5.22a60.87,60.87,0,0,0-6.26-8.29c-.83-.94-1.65-1.76-2.46-2.53-.25.52-.51,1-.76,1.58.73.86,1.48,1.76,2.21,2.78a64.29,64.29,0,0,1,5.47,8.73q1.28,2.55,2.5,5.31c.72,1.94,1.58,3.8,2.23,5.88s1.41,4.11,1.9,6.36l1.77,6.87c.05.21.13.41.19.62l-2.9-2.68-4.42-3.65c-1.53-1.19-3.12-2.29-4.69-3.44s-3.2-2.1-4.8-3-3.18-1.84-4.75-2.55c-.76-.38-1.51-.74-2.24-1.07-.13.42-.27.83-.39,1.26.75.41,1.5.84,2.26,1.31,1.52.83,3,1.93,4.57,2.93s3.06,2.26,4.59,3.42,3,2.48,4.45,3.78l4.18,4,3.79,4c1.19,1.28,2.26,2.61,3.27,3.78l.55.63a48.53,48.53,0,0,0,2.44,4.27,59.22,59.22,0,0,0,17.54,17.06,84.08,84.08,0,0,0,12.78,6.8c1.07.46,2.12.9,3.14,1.29l-.46,0c.83.22,4.93,2.75,6.78,30.87,1.64,9.26-1.06,21.38-20.66,30.23,0,0-25.84,4.46-29.31-18.63C193.54,224.35,161.51,235.41,160.6,198.62Z"/></g></g></svg>