<svg xmlns="http://www.w3.org/2000/svg" xmlns:xlink="http://www.w3.org/1999/xlink" width="102.824" height="80" viewBox="0 0 102.824 80">
  <defs>
    <linearGradient id="linear-gradient" y1="0.5" x2="1" y2="0.5" gradientUnits="objectBoundingBox">
      <stop offset="0" stop-color="#009fe3"/>
      <stop offset="1" stop-color="#1d71b8"/>
    </linearGradient>
    <linearGradient id="linear-gradient-2" y1="0.5" y2="0.5" xlink:href="#linear-gradient"/>
    <linearGradient id="linear-gradient-5" x1="0.002" y1="0.5" x2="1.001" y2="0.5" xlink:href="#linear-gradient"/>
    <linearGradient id="linear-gradient-6" x1="-0.001" y1="0.5" y2="0.5" xlink:href="#linear-gradient"/>
    <linearGradient id="linear-gradient-8" y1="0.5" y2="0.5" xlink:href="#linear-gradient"/>
    <linearGradient id="linear-gradient-10" x1="0.001" y1="0.501" y2="0.501" xlink:href="#linear-gradient"/>
    <linearGradient id="linear-gradient-11" x1="0.001" y1="0.5" x2="0.998" y2="0.5" xlink:href="#linear-gradient"/>
    <linearGradient id="linear-gradient-12" y1="0.5" y2="0.5" xlink:href="#linear-gradient"/>
    <linearGradient id="linear-gradient-13" y1="0.5" y2="0.5" xlink:href="#linear-gradient"/>
    <linearGradient id="linear-gradient-14" x1="0.118" y1="0.5" x2="1.118" y2="0.5" xlink:href="#linear-gradient"/>
    <linearGradient id="linear-gradient-15" y1="0.5" y2="0.5" xlink:href="#linear-gradient"/>
    <linearGradient id="linear-gradient-16" y1="0.507" y2="0.507" xlink:href="#linear-gradient"/>
    <linearGradient id="linear-gradient-18" x1="-0.022" y1="0.509" x2="0.978" y2="0.509" xlink:href="#linear-gradient"/>
    <linearGradient id="linear-gradient-19" y1="0.5" y2="0.5" xlink:href="#linear-gradient"/>
    <linearGradient id="linear-gradient-20" y1="0.5" y2="0.5" xlink:href="#linear-gradient"/>
  </defs>
  <g id="logo-white" transform="translate(0 0)">
    <g id="Calque_1" data-name="Calque 1" transform="translate(0 0)">
      <path id="Tracé_1" data-name="Tracé 1" d="M0,348.483V338.07H1.534v10.413Z" transform="translate(0 -268.731)" fill="url(#linear-gradient)"/>
      <path id="Tracé_2" data-name="Tracé 2" d="M33.482,345.337a3.116,3.116,0,0,1-3.45,3.13H26.07V346.98h3.706c1.327,0,2.172-.527,2.172-1.674s-.845-1.674-2.172-1.674H26.07v-1.491h3.452c1.214,0,1.916-.41,1.916-1.3s-.7-1.3-1.916-1.3H26.07V338.05h3.212c2.316,0,3.692.929,3.692,2.728A2.174,2.174,0,0,1,31.7,342.87,2.4,2.4,0,0,1,33.482,345.337Z" transform="translate(-20.723 -268.715)" fill="url(#linear-gradient-2)"/>
      <path id="Tracé_3" data-name="Tracé 3" d="M74.69,339.53v-1.46h7.156v1.46Zm2.812,8.953v-8.1h1.532v8.1Z" transform="translate(-59.371 -268.731)" fill="url(#linear-gradient)"/>
      <path id="Tracé_4" data-name="Tracé 4" d="M124.74,348.483V338.07h1.532v10.413Z" transform="translate(-99.156 -268.731)" fill="url(#linear-gradient)"/>
      <path id="Tracé_5" data-name="Tracé 5" d="M160.269,348.483h-2.051l-4.346-4.586v4.586H152.34V338.07h1.532v4.586l4.09-4.586h2.051l-4.717,5.1Z" transform="translate(-121.095 -268.731)" fill="url(#linear-gradient-5)"/>
      <path id="Tracé_6" data-name="Tracé 6" d="M212.116,347.505h-1.661l-1.038-2.223h0l-2.406-5.144-2.414,5.144h0l-1.036,2.223H201.9l5.111-10.665Z" transform="translate(-160.49 -267.753)" fill="url(#linear-gradient-6)"/>
      <path id="Tracé_7" data-name="Tracé 7" d="M273.539,348.483h-1.791l-2.666-3.6H267.4v3.6H265.87V343.4h3.819a1.925,1.925,0,1,0,.023-3.844H265.87V338.07h3.323c2.8,0,4.09,1.364,4.09,3.331a3.3,3.3,0,0,1-2.508,3.347Z" transform="translate(-211.34 -268.731)" fill="url(#linear-gradient)"/>
      <path id="Tracé_8" data-name="Tracé 8" d="M326.31,345.519l.656,1.395a5.162,5.162,0,0,1-3.355,1.231,5.339,5.339,0,1,1,0-10.665,5.148,5.148,0,0,1,3.355,1.21l-.656,1.395a3.692,3.692,0,0,0-2.8-1.116,3.844,3.844,0,1,0,0,7.685A3.658,3.658,0,0,0,326.31,345.519Z" transform="translate(-252.794 -268.262)" fill="url(#linear-gradient-8)"/>
      <path id="Tracé_9" data-name="Tracé 9" d="M443.939,340.613l1.173,2.158-.788,4.75H442.76Zm9.416-1.382-4.6,8.538-4.588-8.553.41-2.357,4.178,7.872,4.186-7.872Zm1.417,8.29h-1.567l-.79-4.762,1.169-2.186Z" transform="translate(-351.949 -267.769)" fill="url(#linear-gradient)"/>
      <path id="Tracé_10" data-name="Tracé 10" d="M383.737,347.514h.018a5.56,5.56,0,0,0,.675-.33l-.189-.544a4.467,4.467,0,0,0,.445-.3l.472.351a5.332,5.332,0,0,0,.556-.517l-.345-.466a5.179,5.179,0,0,0,.336-.425l.556.205a5.122,5.122,0,0,0,.371-.652l-.472-.345a4.6,4.6,0,0,0,.195-.507l.593.031a5.141,5.141,0,0,0,.156-.726l-.556-.195a4.844,4.844,0,0,0,.033-.546l.574-.139a5,5,0,0,0-.074-.736l-.591-.027a4.4,4.4,0,0,0-.139-.531l.507-.3c-.041-.117-.086-.232-.135-.347s-.1-.226-.16-.336l-.572.144a4.868,4.868,0,0,0-.293-.468l.386-.441a5.226,5.226,0,0,0-.492-.568l-.5.3a4.7,4.7,0,0,0-.422-.359l.246-.523a5.8,5.8,0,0,0-.644-.41l-.392.433c-.166-.082-.336-.156-.509-.221l.076-.568a6.057,6.057,0,0,0-.74-.205l-.242.525a5.455,5.455,0,0,0-.548-.064l-.1-.564a5.717,5.717,0,0,0-.771.023l-.072.572a4.871,4.871,0,0,0-.535.094l-.267-.511a5.85,5.85,0,0,0-.716.238h-.016l.1.568a4.658,4.658,0,0,0-.474.24l-.41-.41a5.575,5.575,0,0,0-.63.443l.271.513a5.192,5.192,0,0,0-.375.361L377.4,339a5.53,5.53,0,0,0-.47.615l.41.41a4.721,4.721,0,0,0-.246.445l-.58-.117a5.388,5.388,0,0,0-.265.718l.521.275a4.324,4.324,0,0,0-.1.49l-.589.053a4.989,4.989,0,0,0-.039.763l.58.115a4.537,4.537,0,0,0,.053.494l-.548.219a5.429,5.429,0,0,0,.195.742l.591-.06c.029.078.059.154.092.232s.068.152.1.226l-.455.367a5.308,5.308,0,0,0,.41.654l.546-.224a4.867,4.867,0,0,0,.328.381l-.324.482a5.541,5.541,0,0,0,.589.509l.451-.369a4.941,4.941,0,0,0,.453.289l-.164.554a6,6,0,0,0,.714.318l.32-.482c.164.053.33.1.5.139l.012.576a5.729,5.729,0,0,0,.775.1l.158-.554h.529l.187.546a5.484,5.484,0,0,0,.767-.125l-.016-.572a5.246,5.246,0,0,0,.511-.162Zm-6.317-3.265a4.371,4.371,0,0,1,2.432-5.78,4.6,4.6,0,0,1,5.958,2.363,4.367,4.367,0,0,1-2.435,5.778A4.6,4.6,0,0,1,377.42,344.248Z" transform="translate(-298.915 -267.992)" fill="url(#linear-gradient-10)"/>
      <path id="Tracé_11" data-name="Tracé 11" d="M220.965,256.432h-13.82a2.443,2.443,0,1,0,0,4.881h13.83a2.443,2.443,0,1,0,0-4.881Zm0,3.764h-13.82a1.323,1.323,0,0,1,0-2.646h13.83a1.323,1.323,0,0,1,0,2.646Z" transform="translate(-162.638 -203.836)" fill="url(#linear-gradient-11)"/>
      <path id="Tracé_12" data-name="Tracé 12" d="M209.654,286.07a5,5,0,0,0,4.367,4.879,4.215,4.215,0,0,0,8.091,0,5,5,0,0,0,4.356-4.879v-.56H209.65Zm8.409,6.8a3.007,3.007,0,0,1-2.806-1.846h5.614a3.007,3.007,0,0,1-2.806,1.846Zm7.211-6.229a3.9,3.9,0,0,1-3.675,3.249l-.445.027h-6.167l-.453-.027a3.9,3.9,0,0,1-3.692-3.249Z" transform="translate(-166.65 -226.951)" fill="url(#linear-gradient-12)"/>
      <path id="Tracé_13" data-name="Tracé 13" d="M158.652,29.945l3.2-.775a28.92,28.92,0,0,0-.41-4.1l-3.292-.154a26.046,26.046,0,0,0-.767-2.968L160.2,20.3q-.343-.97-.753-1.926t-.89-1.871l-3.191.794a26.618,26.618,0,0,0-1.641-2.6l2.2-2.391a29.973,29.973,0,0,0-2.73-3.152l-2.812,1.674a27.3,27.3,0,0,0-2.355-2.008l1.368-2.9a31.055,31.055,0,0,0-3.585-2.223L143.63,6.1A28.4,28.4,0,0,0,140.8,4.867L141.22,1.7A31.827,31.827,0,0,0,137.1.6l-1.356,2.925a28.457,28.457,0,0,0-3.048-.353L132.146.022a31.573,31.573,0,0,0-4.287.129l-.41,3.181a28.438,28.438,0,0,0-2.978.533l-1.481-2.841a31.682,31.682,0,0,0-3.983,1.323l-.1.041.58,3.148a28.217,28.217,0,0,0-2.644,1.337l-2.287-2.3a30.444,30.444,0,0,0-3.505,2.474L112.57,9.9a27.277,27.277,0,0,0-2.09,2.008l-2.882-1.54a29.922,29.922,0,0,0-2.607,3.386l2.311,2.289a26.061,26.061,0,0,0-1.37,2.478l-3.224-.648a29.246,29.246,0,0,0-1.479,3.993l2.9,1.526a26.175,26.175,0,0,0-.56,2.73l-3.282.3a28.765,28.765,0,0,0-.205,4.25l3.237.63a26.113,26.113,0,0,0,.283,2.744l-3.042,1.231a28.9,28.9,0,0,0,1.085,4.129l3.282-.324q.24.642.517,1.284c.185.425.379.845.582,1.257l-2.537,2.051a29.706,29.706,0,0,0,2.279,3.643L108.8,46.07a26.684,26.684,0,0,0,1.823,2.129l-1.8,2.683A30.612,30.612,0,0,0,112.1,53.71l2.521-2.051a27.838,27.838,0,0,0,2.4,1.522l-.909,3.077c.632.336,1.278.65,1.932.943l2.683-4.783a24.85,24.85,0,0,1-13.065-12.94A24.312,24.312,0,0,1,121.2,7.314c12.887-5.253,27.738.63,33.153,13.143A24.3,24.3,0,0,1,141.331,52.4l2.972,4.607c.82-.379,1.61-.786,2.377-1.231l-1.052-3.023a27.126,27.126,0,0,0,2.482-1.684l2.625,1.948a30.151,30.151,0,0,0,3.095-2.871l-1.924-2.588a27.4,27.4,0,0,0,1.875-2.359l3.091,1.091a29.922,29.922,0,0,0,2.076-3.63l-2.627-1.922a26.241,26.241,0,0,0,1.083-2.822l3.294.174a29.094,29.094,0,0,0,.872-4.041l-3.093-1.087a26.2,26.2,0,0,0,.176-3.019Z" transform="translate(-79.548 0)" fill="url(#linear-gradient-13)"/>
      <path id="Tracé_14" data-name="Tracé 14" d="M331.73,106.206l-.07-.086Z" transform="translate(-263.636 -84.355)" fill="url(#linear-gradient-14)"/>
      <path id="Tracé_15" data-name="Tracé 15" d="M332.141,106.667l-.1-.127Z" transform="translate(-263.938 -84.688)" fill="url(#linear-gradient-15)"/>
      <path id="Tracé_16" data-name="Tracé 16" d="M165.31,108.137l.1-.137Z" transform="translate(-131.405 -85.849)" fill="url(#linear-gradient-16)"/>
      <path id="Tracé_17" data-name="Tracé 17" d="M165.82,107.618l.074-.1Z" transform="translate(-131.81 -85.467)" fill="url(#linear-gradient-15)"/>
      <path id="Tracé_18" data-name="Tracé 18" d="M332.634,107.277l-.094-.117Z" transform="translate(-264.335 -85.181)" fill="url(#linear-gradient-18)"/>
      <path id="Tracé_19" data-name="Tracé 19" d="M271.243,73.234a21.33,21.33,0,0,0,1.319-3.187,3.867,3.867,0,0,0,.347-4.221,5.277,5.277,0,0,0-.855-1.715l-.1-.191-.041-.078v-.01l-.031-.059c.935-2.084,1.606-5.173-.615-7.952l-.07-.086-.322-.41-.035-.045h0a2.051,2.051,0,0,0-.909-1.134h0l-.051-.064.051.064a1.391,1.391,0,0,0-.948-.133s2.028-4.73-2.381-7.285h-.018l-.234-.135-.053-.031-.205-.115-.148-.086a6.585,6.585,0,0,0-.954-.562c-.24-1.542-1.216-3.1-4.248-2.871,0,0-4.342-5.011-7.566.656,0,0-.48,3.208,1.352,4.635,0,0-2.336,3.031.158,5.6a12.379,12.379,0,0,0-.445,2.391,4.267,4.267,0,0,0,.371,2.426c.049.5.08,1,.1,1.491v.062c.142-.232.287-.461.439-.689.051-.078.109-.156.162-.234a20.92,20.92,0,0,1,1.436-1.864c.111-.129.221-.258.33-.379a6.416,6.416,0,0,0,1.417-2.461,6.254,6.254,0,0,0,.228-1.083,9.365,9.365,0,0,0,0-2.131,18.7,18.7,0,0,0-.7-3.282c-.425-1.419-.907-2.736-1.352-3.971.238.082.476.172.71.269.435.984.894,2.051,1.329,3.2a19.426,19.426,0,0,1,.982,3.5c.021.127.035.263.053.4a12,12,0,0,1,.113,1.3l.117-.246c.076-.158.156-.322.236-.492a4.015,4.015,0,0,0,.234-.544c.139-.39.306-.792.445-1.231s.263-.907.367-1.391c.039-.205.08-.425.119-.638l.472-.937.016.012-.01.142c-.01.135-.016.271-.031.41l-.055.4c-.039.265-.076.527-.113.79-.09.517-.221,1.007-.326,1.5s-.283.911-.41,1.337a4.379,4.379,0,0,1-.224.595l-.226.541a8.819,8.819,0,0,1-.42.925l-.275.517c-.037.263-.082.523-.144.781a9.15,9.15,0,0,1-1.608,3.411c-.115.156-.226.308-.334.461a21.153,21.153,0,0,0-1.28,2.022l-.012.023a19.782,19.782,0,0,0-.919,1.907c-.113.273-.222.544-.32.82-.084.226-.166.451-.24.675h0c.205-.252.425-.5.642-.745.271-.3.548-.593.837-.866a19.646,19.646,0,0,1,1.9-1.583l.464-.347c.144-.111.287-.228.431-.355a11.017,11.017,0,0,0,.833-.808,12.475,12.475,0,0,0,2.016-3.019c.09-.18.17-.371.256-.566s.156-.369.226-.562a16.567,16.567,0,0,0,.679-2.256,19.707,19.707,0,0,0,.466-3.659q0-.326.012-.585l.068.084c0,.152.016.314.025.5a20.508,20.508,0,0,1-.205,3.813,18.39,18.39,0,0,1-.537,2.461c-.059.205-.131.427-.205.646s-.142.41-.226.634c-.158.429-.338.853-.539,1.268a14.344,14.344,0,0,1-1.411,2.361,13.127,13.127,0,0,1-.849,1.036c-.146.162-.3.322-.459.48l-.451.433a21.144,21.144,0,0,0-1.641,1.75,18.928,18.928,0,0,0-1.38,1.891l-.033.049c-.121.205-.238.41-.353.615.146-.039.3-.084.443-.127a14.694,14.694,0,0,0,2.373-.911,9.722,9.722,0,0,0,3.4-2.65,7.666,7.666,0,0,0,1.194-2.16l.451-1.36c.139-.47.338-.892.5-1.325s.379-.82.562-1.208a11.535,11.535,0,0,1,.615-1.071,12.486,12.486,0,0,1,1.286-1.7c.168-.193.336-.361.5-.519.051.107.107.205.156.324-.15.176-.3.361-.453.57a13.186,13.186,0,0,0-1.122,1.791q-.26.523-.513,1.089c-.148.4-.324.779-.455,1.206s-.289.843-.392,1.3-.24.933-.361,1.409c-.012.043-.029.084-.041.127l.595-.55.909-.749c.312-.244.638-.47.96-.706a9.62,9.62,0,0,1,.984-.615c.328-.185.652-.377.974-.523.156-.078.31-.152.461-.219.025.086.053.17.078.258-.152.084-.308.172-.464.269-.312.17-.615.4-.937.6s-.628.464-.941.7-.615.509-.913.775l-.857.82-.775.82c-.246.263-.464.535-.673.775l-.111.129a9.962,9.962,0,0,1-.5.876,12.146,12.146,0,0,1-3.6,3.5,17.247,17.247,0,0,1-2.621,1.395c-.219.094-.435.185-.642.265h.092c-.17.045-1.009.564-1.389,6.331-.338,1.9.217,4.385,4.235,6.2,0,0,5.3.915,6.012-3.821C264.485,78.511,271.057,80.78,271.243,73.234Z" transform="translate(-201.207 -32.497)" fill="url(#linear-gradient-19)"/>
      <path id="Tracé_20" data-name="Tracé 20" d="M152.376,73.242a21.343,21.343,0,0,1-1.321-3.187,3.867,3.867,0,0,1-.347-4.221,5.277,5.277,0,0,1,.855-1.715l.1-.191.041-.078v-.01l.029-.059c-.935-2.084-1.606-5.173.615-7.952l.072-.086.32-.41.037-.045h0a2.051,2.051,0,0,1,.909-1.134h0l.051-.064-.051.064a1.384,1.384,0,0,1,.946-.133s-2.026-4.73,2.383-7.285h.016l.236-.135.053-.031.205-.115.148-.086a6.7,6.7,0,0,1,.948-.56c.242-1.542,1.216-3.1,4.248-2.871,0,0,4.342-5.011,7.566.656,0,0,.48,3.208-1.352,4.635,0,0,2.336,3.031-.158,5.6a12.472,12.472,0,0,1,.447,2.391,4.355,4.355,0,0,1-.373,2.426c-.047.5-.08,1-.1,1.491v.059q-.205-.347-.437-.689l-.164-.234a20.531,20.531,0,0,0-1.436-1.864c-.109-.129-.219-.258-.33-.379a6.412,6.412,0,0,1-1.415-2.461,6.069,6.069,0,0,1-.23-1.083,9.365,9.365,0,0,1,0-2.131,18.7,18.7,0,0,1,.7-3.282c.425-1.419.909-2.736,1.352-3.971-.238.082-.476.172-.71.269-.435.984-.894,2.051-1.329,3.2a19.6,19.6,0,0,0-.982,3.5c-.021.127-.035.263-.051.4a12,12,0,0,0-.113,1.3l-.119-.246-.236-.492a4.013,4.013,0,0,1-.234-.544c-.139-.39-.306-.792-.445-1.231s-.263-.907-.367-1.391c-.039-.205-.078-.425-.119-.638l-.468-.946-.014.012v.142a4.028,4.028,0,0,0,.031.41l.055.4c.039.265.076.527.115.79.088.517.219,1.007.324,1.5s.285.911.41,1.337a4.672,4.672,0,0,0,.224.595q.117.283.228.541a8.411,8.411,0,0,0,.42.925l.275.517c.037.263.08.523.142.781a9.15,9.15,0,0,0,1.612,3.431c.117.156.226.308.334.461a21.149,21.149,0,0,1,1.28,2.022l.012.023a19.317,19.317,0,0,1,.919,1.907c.113.273.222.544.322.82.082.226.166.451.24.675h0q-.314-.377-.642-.745c-.271-.3-.548-.593-.837-.866a19.4,19.4,0,0,0-1.9-1.583l-.464-.347c-.142-.111-.287-.228-.431-.355a11.017,11.017,0,0,1-.833-.808,11.875,11.875,0,0,1-1.436-1.936,12.171,12.171,0,0,1-.58-1.083c-.09-.18-.17-.371-.256-.566s-.156-.369-.226-.562a16.262,16.262,0,0,1-.677-2.256,19.56,19.56,0,0,1-.468-3.659q0-.326-.012-.585l-.066.084c-.01.152-.018.314-.027.5a20.7,20.7,0,0,0,.205,3.813,18.4,18.4,0,0,0,.537,2.461c.059.205.131.427.205.646s.139.41.224.634c.16.429.34.853.539,1.268a14.635,14.635,0,0,0,1.411,2.361c.269.363.554.71.849,1.036.148.162.3.322.459.48l.451.433a21.516,21.516,0,0,1,1.641,1.75,19.236,19.236,0,0,1,1.378,1.891l.033.049c.121.205.238.41.353.615-.144-.039-.3-.084-.443-.127a14.767,14.767,0,0,1-2.373-.911,9.716,9.716,0,0,1-3.394-2.65,7.671,7.671,0,0,1-1.2-2.16l-.451-1.36c-.139-.47-.336-.892-.5-1.325s-.382-.82-.564-1.208a11.535,11.535,0,0,0-.615-1.071,12.485,12.485,0,0,0-1.284-1.7c-.17-.193-.338-.361-.5-.519-.051.107-.1.205-.156.324.15.176.3.361.453.57a13.186,13.186,0,0,1,1.122,1.791q.263.523.513,1.089c.148.4.324.779.457,1.206s.289.843.39,1.3l.363,1.409c.01.043.027.084.039.127l-.595-.55-.907-.749c-.314-.244-.64-.47-.962-.706a9.616,9.616,0,0,0-.984-.615c-.328-.185-.652-.377-.974-.523-.156-.078-.31-.152-.459-.219-.027.086-.055.17-.08.258.154.084.308.172.464.269.312.17.615.4.937.6s.628.464.941.7.615.509.913.775l.857.82.777.82c.244.263.464.535.671.775l.113.129a9.954,9.954,0,0,0,.5.876,12.146,12.146,0,0,0,3.6,3.5,17.245,17.245,0,0,0,2.621,1.395c.219.094.435.185.644.265h-.094c.17.045,1.011.564,1.391,6.331.336,1.9-.217,4.385-4.237,6.2,0,0-5.3.915-6.012-3.821C159.132,78.519,152.562,80.788,152.376,73.242Z" transform="translate(-119.436 -32.505)" fill="url(#linear-gradient-20)"/>
    </g>
  </g>
</svg>
