<svg height="512pt" viewBox="0 0 512 512" width="512pt" xmlns="http://www.w3.org/2000/svg"><path d="m486.398438 162.132812h-162.132813c-4.710937 0-8.53125 3.820313-8.53125 8.535157 0 4.710937 3.820313 8.53125 8.53125 8.53125h162.132813c4.714843 0 8.535156 3.820312 8.535156 8.535156v170.664063h-315.734375v-93.863282c0-4.714844-3.820313-8.535156-8.53125-8.535156-4.714844 0-8.535157 3.820312-8.535157 8.535156v153.597656c0 14.140626 11.460938 25.601563 25.601563 25.601563h102.398437v17.917969c-19.851562 4.082031-34.105468 21.546875-34.132812 41.8125 0 4.714844 3.820312 8.535156 8.535156 8.535156h145.066406c4.710938 0 8.53125-3.820312 8.53125-8.535156-.023437-20.265625-14.28125-37.730469-34.132812-41.8125v-17.917969h102.398438c14.140624 0 25.601562-11.460937 25.601562-25.601563v-230.398437c0-14.140625-11.460938-25.601563-25.601562-25.601563zm-86.789063 332.800782h-125.082031c3.628906-10.21875 13.292968-17.054688 24.140625-17.066406h76.796875c10.847656.011718 20.511718 6.847656 24.144531 17.066406zm-32.675781-34.132813h-59.734375v-17.066406h59.734375zm128-42.667969c0 4.714844-3.820313 8.535157-8.535156 8.535157h-298.664063c-4.714844 0-8.535156-3.820313-8.535156-8.535157v-42.667968h315.734375zm0 0"/><path d="m324.265625 409.601562h25.601563c4.710937 0 8.53125-3.820312 8.53125-8.535156 0-4.710937-3.820313-8.53125-8.53125-8.53125h-25.601563c-4.710937 0-8.53125 3.820313-8.53125 8.53125 0 4.714844 3.820313 8.535156 8.53125 8.535156zm0 0"/><path d="m25.601562 238.933594h247.464844c14.140625 0 25.601563-11.460938 25.601563-25.601563v-145.066406c0-14.136719-11.460938-25.597656-25.601563-25.597656h-79.855468c-3.917969.003906-7.332032-2.660157-8.285157-6.460938l-4.199219-16.820312c-2.847656-11.394531-13.085937-19.386719-24.832031-19.386719h-87.097656c-11.75 0-21.996094 7.996094-24.839844 19.394531l-4.199219 16.804688c-.949218 3.800781-4.367187 6.46875-8.285156 6.46875h-5.871094c-14.140624 0-25.601562 11.460937-25.601562 25.597656v145.066406c0 14.140625 11.460938 25.601563 25.601562 25.601563zm-8.535156-137.925782 17.066406 5.027344v67.695313l-17.066406 5.035156zm264.535156 77.757813-17.066406-5.035156v-67.695313l17.066406-5.027344zm-256-119.03125h5.871094c11.75.003906 22-7.992187 24.847656-19.398437l4.199219-16.800782c.945313-3.800781 4.359375-6.46875 8.277344-6.46875h87.097656c3.914063 0 7.328125 2.664063 8.277344 6.460938l4.199219 16.816406c2.851562 11.398438 13.09375 19.390625 24.839844 19.390625h79.855468c4.714844 0 8.535156 3.820313 8.535156 8.53125v14.960937l-21.871093 6.441407c-7.25 2.15625-12.230469 8.804687-12.265625 16.367187v67.695313c.03125 7.558593 5.011718 14.207031 12.253906 16.367187l21.882812 6.449219v16.785156c0 4.714844-3.820312 8.535157-8.535156 8.535157h-247.464844c-4.714843 0-8.535156-3.820313-8.535156-8.535157v-16.785156l21.871094-6.441406c7.25-2.15625 12.234375-8.808594 12.261719-16.375v-67.695313c-.035157-7.558594-5.007813-14.207031-12.253907-16.367187l-21.878906-6.441407v-14.960937c0-4.710937 3.820313-8.53125 8.535156-8.53125zm0 0"/><path d="m93.867188 204.800781h76.800781c14.136719 0 25.597656-11.460937 25.597656-25.601562v-51.199219c0-14.136719-11.460937-25.601562-25.597656-25.601562h-76.800781c-14.140626 0-25.601563 11.464843-25.601563 25.601562v51.199219c0 14.140625 11.460937 25.601562 25.601563 25.601562zm-8.535157-76.800781c0-4.710938 3.820313-8.535156 8.535157-8.535156h76.800781c4.710937 0 8.53125 3.824218 8.53125 8.535156v51.199219c0 4.714843-3.820313 8.535156-8.53125 8.535156h-76.800781c-4.714844 0-8.535157-3.820313-8.535157-8.535156zm0 0"/><path d="m93.867188 85.332031h34.132812c9.425781 0 17.066406-7.640625 17.066406-17.066406v-17.066406c0-9.425781-7.640625-17.066407-17.066406-17.066407h-34.132812c-9.425782 0-17.066407 7.640626-17.066407 17.066407v17.066406c0 9.425781 7.640625 17.066406 17.066407 17.066406zm0-34.132812h34.132812v17.066406h-34.132812zm0 0"/><path d="m230.398438 110.933594c0 4.710937-3.820313 8.53125-8.53125 8.53125-4.714844 0-8.535157-3.820313-8.535157-8.53125 0-4.714844 3.820313-8.535156 8.535157-8.535156 4.710937 0 8.53125 3.820312 8.53125 8.535156zm0 0"/><path d="m230.398438 145.066406c0 4.714844-3.820313 8.535156-8.53125 8.535156-4.714844 0-8.535157-3.820312-8.535157-8.535156 0-4.710937 3.820313-8.53125 8.535157-8.53125 4.710937 0 8.53125 3.820313 8.53125 8.53125zm0 0"/><path d="m230.398438 179.199219c0 4.714843-3.820313 8.535156-8.53125 8.535156-4.714844 0-8.535157-3.820313-8.535157-8.535156 0-4.710938 3.820313-8.53125 8.535157-8.53125 4.710937 0 8.53125 3.820312 8.53125 8.53125zm0 0"/><path d="m137.265625 403.5-51.683594-31.011719c-5.273437-3.164062-11.839843-3.246093-17.191406-.214843-5.351563 3.027343-8.65625 8.699218-8.65625 14.851562v22.476562h-17.066406c-4.714844 0-8.535157-3.820312-8.535157-8.535156v-136.53125c0-4.714844-3.820312-8.535156-8.53125-8.535156-4.714843 0-8.535156 3.820312-8.535156 8.535156v136.53125c0 14.140625 11.460938 25.601563 25.601563 25.601563h17.066406v22.476562c.039063 9.40625 7.65625 17.023438 17.066406 17.066407 3.09375-.007813 6.128907-.859376 8.78125-2.457032l51.683594-31.011718c5.140625-3.085938 8.289063-8.640626 8.289063-14.632813 0-5.996094-3.148438-11.550781-8.289063-14.636719zm-60.464844 45.644531v-62.019531l51.6875 31.007812zm0 0"/><path d="m332.800781 341.332031h128c9.425781 0 17.066407-7.640625 17.066407-17.066406v-102.398437c0-9.425782-7.640626-17.066407-17.066407-17.066407h-128c-9.425781 0-17.066406 7.640625-17.066406 17.066407v102.398437c0 9.425781 7.640625 17.066406 17.066406 17.066406zm0-119.464843h128v102.398437h-128zm0 0"/><path d="m422.851562 261.613281-37.390624-18.695312c-3.96875-1.984375-8.683594-1.773438-12.457032.5625-3.773437 2.332031-6.070312 6.453125-6.070312 10.890625v37.390625c0 7.070312 5.730468 12.800781 12.800781 12.800781 1.988281 0 3.953125-.464844 5.734375-1.355469l37.390625-18.695312c4.339844-2.167969 7.082031-6.601563 7.082031-11.453125 0-4.851563-2.742187-9.285156-7.082031-11.453125zm-38.851562 23.246094v-23.585937l23.585938 11.792968zm0 0"/><path d="m247.464844 256h-25.597656c-9.425782 0-17.066407 7.640625-17.066407 17.066406v51.199219c0 9.425781 7.640625 17.066406 17.066407 17.066406h51.199218c9.425782 0 17.066406-7.640625 17.066406-17.066406v-51.199219c0-9.425781-7.640624-17.066406-17.066406-17.066406zm25.601562 34.132812h-17.066406v-17.066406h17.066406zm-51.199218-17.066406h17.066406v17.066406h-17.066406zm0 34.132813h17.066406v17.066406h-17.066406zm34.132812 17.066406v-17.066406h17.066406v17.066406zm0 0"/></svg>