<svg height="512pt" viewBox="0 0 512 512" width="512pt" xmlns="http://www.w3.org/2000/svg"><path d="m300.136719 432.550781h79.449219v52.964844h-79.449219zm0 0" fill="#7f8c8d"/><path d="m300.136719 432.550781h79.449219v26.484375h-79.449219zm0 0" fill="#5e5f62"/><path d="m326.621094 167.722656h167.722656c9.738281.03125 17.628906 7.917969 17.65625 17.65625v185.378906h-344.277344v-203.035156zm0 0" fill="#41767f"/><path d="m167.722656 370.757812h344.277344v52.964844c0 9.753906-7.90625 17.65625-17.65625 17.65625h-308.964844c-9.75 0-17.65625-7.902344-17.65625-17.65625zm0 0" fill="#95a5a5"/><path d="m300.136719 476.691406h79.449219c19.5 0 35.3125 15.808594 35.3125 35.308594h-150.070313c0-19.5 15.808594-35.308594 35.308594-35.308594zm0 0" fill="#95a5a5"/><path d="m353.101562 414.898438h-26.480468c-4.875 0-8.828125-3.953126-8.828125-8.828126s3.953125-8.828124 8.828125-8.828124h26.480468c4.878907 0 8.828126 3.953124 8.828126 8.828124s-3.949219 8.828126-8.828126 8.828126zm0 0" fill="#d1d4d1"/><path d="m273.65625 229.515625h-256c-9.75 0-17.65625-7.902344-17.65625-17.652344v-150.070312c0-9.75 7.90625-17.65625 17.65625-17.65625h6.074219c8.101562.003906 15.167969-5.511719 17.132812-13.371094l4.34375-17.390625c1.964844-7.863281 9.03125-13.37890625 17.132813-13.375h90.09375c8.105468-.00390625 15.171875 5.511719 17.136718 13.375l4.34375 17.390625c1.960938 7.855469 9.023438 13.371094 17.125 13.371094h82.617188c9.75 0 17.652344 7.90625 17.652344 17.65625v150.070312c0 9.75-7.902344 17.652344-17.652344 17.652344zm0 0" fill="#35495e"/><path d="m2.523438 187.902344 26.609374-8.457032c3.671876-1.152343 6.175782-4.558593 6.175782-8.410156v-70.3125c0-3.851562-2.503906-7.257812-6.175782-8.414062l-26.609374-8.445313zm0 0" fill="#2c3e50"/><path d="m291.308594 187.902344-28.679688-8.457032c-3.835937-1.015624-6.539062-4.445312-6.628906-8.410156v-70.3125c.097656-3.964844 2.796875-7.390625 6.628906-8.414062l28.679688-8.445313zm0 0" fill="#2c3e50"/><path d="m203.035156 123.585938v52.964843c0 19.503907-15.808594 35.3125-35.3125 35.3125h-79.445312c-19.503906 0-35.3125-15.808593-35.3125-35.3125v-52.964843c0-19.5 15.808594-35.308594 35.3125-35.308594h79.445312c19.503906 0 35.3125 15.808594 35.3125 35.308594zm0 0" fill="#2c3e50"/><path d="m88.277344 105.929688h79.445312c9.753906 0 17.65625 7.90625 17.65625 17.65625v52.964843c0 9.75-7.902344 17.65625-17.65625 17.65625h-79.445312c-9.753906 0-17.65625-7.90625-17.65625-17.65625v-52.964843c0-9.75 7.902344-17.65625 17.65625-17.65625zm0 0" fill="#7ed09e"/><path d="m88.277344 17.65625h35.308594c9.75 0 17.65625 7.902344 17.65625 17.652344v17.65625c0 9.75-7.90625 17.65625-17.65625 17.65625h-35.308594c-9.753906 0-17.65625-7.90625-17.65625-17.65625v-17.65625c0-9.75 7.902344-17.652344 17.65625-17.652344zm0 0" fill="#2c3e50"/><path d="m123.585938 26.484375h-35.308594c-4.875 0-8.828125 3.949219-8.828125 8.824219v17.65625c0 4.875 3.953125 8.828125 8.828125 8.828125h35.308594c4.875 0 8.828124-3.953125 8.828124-8.828125v-17.65625c0-4.875-3.953124-8.824219-8.828124-8.824219zm0 0" fill="#b0d3f0"/><path d="m229.515625 105.929688c0 4.875-3.949219 8.828124-8.824219 8.828124-4.878906 0-8.828125-3.953124-8.828125-8.828124s3.949219-8.828126 8.828125-8.828126c4.875 0 8.824219 3.953126 8.824219 8.828126zm0 0" fill="#2c2f38"/><path d="m229.515625 141.242188c0 4.875-3.949219 8.828124-8.824219 8.828124-4.878906 0-8.828125-3.953124-8.828125-8.828124s3.949219-8.828126 8.828125-8.828126c4.875 0 8.824219 3.953126 8.824219 8.828126zm0 0" fill="#2c2f38"/><path d="m229.515625 176.550781c0 4.875-3.949219 8.828125-8.824219 8.828125-4.878906 0-8.828125-3.953125-8.828125-8.828125s3.949219-8.828125 8.828125-8.828125c4.875 0 8.824219 3.953125 8.824219 8.828125zm0 0" fill="#2c2f38"/><path d="m70.621094 432.550781h-35.3125c-14.625 0-26.480469-11.855469-26.480469-26.480469v-141.242187c0-4.875 3.953125-8.828125 8.828125-8.828125s8.828125 3.953125 8.828125 8.828125v141.242187c0 4.875 3.949219 8.828126 8.824219 8.828126h35.3125c4.875 0 8.828125 3.949218 8.828125 8.824218s-3.953125 8.828125-8.828125 8.828125zm0 0" fill="#fb7b76"/><path d="m335.449219 211.863281h132.414062c4.875 0 8.828125 3.949219 8.828125 8.828125v105.929688c0 4.875-3.953125 8.828125-8.828125 8.828125h-132.414062c-4.875 0-8.828125-3.953125-8.828125-8.828125v-105.929688c0-4.878906 3.953125-8.828125 8.828125-8.828125zm0 0" fill="#67b9cc"/><path d="m379.585938 254.3125v38.683594c0 1.53125.792968 2.953125 2.09375 3.753906 1.304687.804688 2.929687.878906 4.296874.191406l38.683594-19.339844c1.492188-.75 2.4375-2.277343 2.4375-3.945312 0-1.671875-.945312-3.199219-2.4375-3.945312l-38.683594-19.34375c-1.367187-.683594-2.992187-.613282-4.296874.191406-1.300782.804687-2.09375 2.226562-2.09375 3.753906zm0 0" fill="#d1d4d1"/><g fill="#b0d3f0"><path d="m211.863281 264.828125h35.308594v35.308594h-35.308594zm0 0"/><path d="m247.171875 264.828125h35.3125v35.308594h-35.3125zm0 0"/><path d="m211.863281 300.136719h35.308594v35.3125h-35.308594zm0 0"/><path d="m247.171875 300.136719h35.3125v35.3125h-35.3125zm0 0"/></g><path d="m247.171875 308.964844h-35.308594c-4.875 0-8.828125-3.953125-8.828125-8.828125v-35.308594c0-4.875 3.953125-8.828125 8.828125-8.828125h35.308594c4.875 0 8.828125 3.953125 8.828125 8.828125v35.308594c0 4.875-3.953125 8.828125-8.828125 8.828125zm-26.480469-17.65625h17.652344v-17.652344h-17.652344zm0 0" fill="#90bae1"/><path d="m282.484375 308.964844h-35.3125c-4.875 0-8.828125-3.953125-8.828125-8.828125v-35.308594c0-4.875 3.953125-8.828125 8.828125-8.828125h35.3125c4.875 0 8.824219 3.953125 8.824219 8.828125v35.308594c0 4.875-3.949219 8.828125-8.824219 8.828125zm-26.484375-17.65625h17.65625v-17.652344h-17.65625zm0 0" fill="#90bae1"/><path d="m247.171875 344.277344h-35.308594c-4.875 0-8.828125-3.953125-8.828125-8.828125v-35.3125c0-4.875 3.953125-8.828125 8.828125-8.828125h35.308594c4.875 0 8.828125 3.953125 8.828125 8.828125v35.3125c0 4.875-3.953125 8.828125-8.828125 8.828125zm-26.480469-17.65625h17.652344v-17.65625h-17.652344zm0 0" fill="#90bae1"/><path d="m282.484375 344.277344h-35.3125c-4.875 0-8.828125-3.953125-8.828125-8.828125v-35.3125c0-4.875 3.953125-8.828125 8.828125-8.828125h35.3125c4.875 0 8.824219 3.953125 8.824219 8.828125v35.3125c0 4.875-3.949219 8.828125-8.824219 8.828125zm-26.484375-17.65625h17.65625v-17.65625h-17.65625zm0 0" fill="#90bae1"/><path d="m61.792969 391.644531v64.160157c.003906 3.175781 1.714843 6.109374 4.480469 7.675781 2.765624 1.5625 6.160156 1.523437 8.882812-.113281l53.46875-32.078126c2.65625-1.597656 4.28125-4.46875 4.28125-7.566406s-1.625-5.96875-4.28125-7.5625l-53.46875-32.082031c-2.722656-1.632813-6.117188-1.675781-8.882812-.109375-2.765626 1.566406-4.476563 4.496094-4.480469 7.675781zm0 0" fill="#e64c3c"/></svg>