<svg id="_x33_0" enable-background="new 0 0 64 64" height="512" viewBox="0 0 64 64" width="512" xmlns="http://www.w3.org/2000/svg"><g><g><g><path d="m27.83 39.51c1.05.25 2.13.41 3.24.47-4.84-.13-9.51-1.28-13.74-3.31-6.25-2.99-11.56-7.88-15.04-14.15l-.29-.52.29-.52c4.53-8.16 12.14-13.97 20.92-16.32-.34.5-.61 1.04-.8 1.61h-.01c-5.05 3.19-8.4 8.82-8.4 15.23 0 5.33 2.32 10.12 6 13.41 2.19 1.97 4.87 3.4 7.83 4.1z" fill="#ccd1d9"/></g><g><path d="m40.79 5.16c8.78 2.35 16.39 8.16 20.92 16.32l.29.52-.29.52c-2.99 5.4-7.34 9.76-12.47 12.79-.84.49-1.69.95-2.57 1.36l-13.74 3.31c1.11-.06 2.19-.22 3.24-.47 2.96-.7 5.64-2.13 7.83-4.1 3.68-3.29 6-8.08 6-13.41 0-6.41-3.35-12.04-8.4-15.23h-.01c-.19-.57-.46-1.11-.8-1.61z" fill="#ccd1d9"/></g><g><path d="m26 18c0 1.76 1.14 3.26 2.73 3.79v.01l-.73 2.2c-.95.24-1.85.6-2.67 1.08-3.23 1.84-5.33 5.3-5.33 9.17v1.16c-3.68-3.29-6-8.08-6-13.41 0-6.41 3.35-12.04 8.4-15.23h.01c-.27.73-.41 1.53-.41 2.35 0 .59.07 1.17.21 1.73l.54 2.16.01.01c-.47.53-.76 1.22-.76 1.98 0 .83.34 1.58.88 2.12s1.29.88 2.12.88z" fill="#69d6f4"/></g><g><path d="m38.67 25.08c-.82-.48-1.72-.84-2.67-1.08l-.73-2.2v-.01c1.59-.53 2.73-2.03 2.73-3.79h1c.83 0 1.58-.34 2.12-.88s.88-1.29.88-2.12c0-.76-.29-1.45-.76-1.98l.01-.01.54-2.16c.14-.56.21-1.14.21-1.73 0-.82-.14-1.62-.41-2.35h.01c5.05 3.19 8.4 8.82 8.4 15.23 0 5.33-2.32 10.12-6 13.41v-1.16c0-2.43-.82-4.69-2.24-6.5-.84-1.08-1.89-1.99-3.09-2.67z" fill="#69d6f4"/></g><g><path d="m41.79 10.85-.54 2.16-.01.01c-.54-.63-1.34-1.02-2.24-1.02h-1l-6.02-.6c-1.62-.16-2.96-1.19-3.59-2.59l-.73.36c-1.02.51-1.66 1.55-1.66 2.68v.15h-1c-.9 0-1.7.39-2.24 1.02l-.01-.01-.54-2.16c-.14-.56-.21-1.14-.21-1.73 0-.82.14-1.62.41-2.35.19-.57.46-1.11.8-1.61.26-.38.55-.74.88-1.07 1.29-1.29 3.07-2.09 5.03-2.09h5.76c2.46 0 4.64 1.25 5.91 3.16.34.5.61 1.04.8 1.61.27.73.41 1.53.41 2.35 0 .59-.07 1.17-.21 1.73z" fill="#b27946"/></g><g><path d="m33 30 3.17 9.51c-1.05.25-2.13.41-3.24.47-.31.02-.62.02-.93.02s-.62 0-.93-.02c-1.11-.06-2.19-.22-3.24-.47l3.17-9.51z" fill="#e6e9ed"/></g><g><path d="m34.21 27.32-1.21 2.68h-2l-1.21-2.68 2.21-1.32z" fill="#ccd1d9"/></g><g><path d="m27 29 2.79-1.68 1.21 2.68-3.17 9.51c-2.96-.7-5.64-2.13-7.83-4.1v-1.16c0-3.87 2.1-7.33 5.33-9.17z" fill="#ff826e"/></g><g><path d="m44 34.25v1.16c-2.19 1.97-4.87 3.4-7.83 4.1l-3.17-9.51 1.21-2.68 2.79 1.68 1.67-3.92c1.2.68 2.25 1.59 3.09 2.67 1.42 1.81 2.24 4.07 2.24 6.5z" fill="#ff826e"/></g><g><path d="m32 26 4-2c.95.24 1.85.6 2.67 1.08l-1.67 3.92-2.79-1.68z" fill="#fc6e51"/></g><g><path d="m28 24 4 2-2.21 1.32-2.79 1.68-1.67-3.92c.82-.48 1.72-.84 2.67-1.08z" fill="#fc6e51"/></g><g><path d="m36 24-4 2-4-2 .73-2.2v-.01c.4.14.82.21 1.27.21h4c.45 0 .87-.07 1.27-.21v.01z" fill="#f0d0b4"/></g><g><path d="m26 12v6h-1c-.83 0-1.58-.34-2.12-.88s-.88-1.29-.88-2.12c0-.76.29-1.45.76-1.98.54-.63 1.34-1.02 2.24-1.02z" fill="#f0d0b4"/></g><g><path d="m39 12c.9 0 1.7.39 2.24 1.02.47.53.76 1.22.76 1.98 0 .83-.34 1.58-.88 2.12s-1.29.88-2.12.88h-1v-6z" fill="#f0d0b4"/></g><g><path d="m38 12v6c0 1.76-1.14 3.26-2.73 3.79-.4.14-.82.21-1.27.21h-4c-.45 0-.87-.07-1.27-.21-1.59-.53-2.73-2.03-2.73-3.79v-6-.15c0-1.13.64-2.17 1.66-2.68l.73-.36c.63 1.4 1.97 2.43 3.59 2.59z" fill="#f0d0b4"/></g><g><path d="m14 47v14c0 .55-.45 1-1 1h-10c-.55 0-1-.45-1-1v-14c0-.55.45-1 1-1h5 5c.55 0 1 .45 1 1z" fill="#ffeaa7"/></g><g><path d="m38 47v14c0 .55-.45 1-1 1h-10c-.55 0-1-.45-1-1v-14c0-.55.45-1 1-1h5 5c.55 0 1 .45 1 1z" fill="#ffeaa7"/></g><g><path d="m50 61v-14c0-.55.45-1 1-1h5 5c.55 0 1 .45 1 1v14c0 .55-.45 1-1 1h-10c-.55 0-1-.45-1-1z" fill="#ffeaa7"/></g></g><g><path d="m29 19h3c1.615 0 3.067-.897 3.789-2.342l.105-.211-1.789-.895-.105.212c-.381.762-1.147 1.236-2 1.236h-3z"/><path d="m29 57h6v2h-6z"/><path d="m29 53h6v2h-6z"/><path d="m29 49h6v2h-6z"/><path d="m61 45h-4.586l-8.072-8.072c5.896-3.117 10.894-7.894 14.245-13.926l.558-1.002-.558-1.002c-4.522-8.139-12.235-14.208-21.196-16.708-1.482-1.992-3.846-3.29-6.514-3.29h-5.754c-2.668 0-5.032 1.298-6.514 3.29-8.961 2.5-16.674 8.568-21.196 16.708l-.558 1.002.558 1.002c3.351 6.032 8.349 10.808 14.245 13.926l-8.072 8.072h-4.586c-1.103 0-2 .897-2 2v14c0 1.103.897 2 2 2h10c1.103 0 2-.897 2-2v-14c0-1.103-.897-2-2-2h-2.586l7.143-7.143c4.172 1.893 8.729 2.974 13.443 3.109v4.034h-4c-1.103 0-2 .897-2 2v14c0 1.103.897 2 2 2h10c1.103 0 2-.897 2-2v-14c0-1.103-.897-2-2-2h-4v-4.034c4.714-.135 9.271-1.216 13.443-3.109l7.143 7.143h-2.586c-1.103 0-2 .897-2 2v14c0 1.103.897 2 2 2h10c1.103 0 2-.897 2-2v-14c0-1.103-.897-2-2-2zm-47.998 16h-10.002v-14h10zm24 0h-10.002v-14h10zm23.837-39.031.016.031-.017.031c-3.79 6.821-9.809 11.942-16.851 14.693 4.275-3.487 7.013-8.79 7.013-14.724 0-5.784-2.581-11.139-6.998-14.73 7.093 2.785 13.113 7.997 16.837 14.699zm-35.839-4.969c-1.103 0-2-.897-2-2s.897-2 2-2zm-3.757-5.907.425 1.701c-.42.633-.668 1.391-.668 2.206 0 2.206 1.794 4 4 4h.101c.289 1.419 1.193 2.604 2.408 3.31l-.29.868c-4.472 1.348-7.657 5.235-8.146 9.835-2.534-2.97-4.073-6.812-4.073-11.013 0-5.06 2.21-9.753 6.004-12.962 0 .028-.004.056-.004.085 0 .665.082 1.328.243 1.97zm17.757 1.907c1.103 0 2 .897 2 2s-.897 2-2 2zm-.101 6h.101c2.206 0 4-1.794 4-4 0-.815-.248-1.573-.668-2.206l.425-1.7c.161-.643.243-1.306.243-1.971 0-.029-.004-.057-.004-.086 3.794 3.209 6.004 7.902 6.004 12.963 0 4.201-1.539 8.043-4.073 11.013-.489-4.599-3.675-8.487-8.146-9.835l-.29-.868c1.215-.706 2.119-1.891 2.408-3.31zm-8.899 4h4c.203 0 .396-.036.593-.06l.184.553-2.777 1.389-2.777-1.389.184-.553c.197.024.39.06.593.06zm4.077 3.08 2.02-1.01c.444.128.874.282 1.286.469l-.855 2.012zm-6.174-1.01 2.02 1.01-2.452 1.471-.855-2.012c.413-.187.844-.341 1.287-.469zm-3.025 1.492 1.65 3.887 2.816-1.689.584 1.296-2.746 8.239c-2.302-.682-4.399-1.838-6.182-3.356v-.692c0-3.111 1.496-5.924 3.878-7.685zm6.768 2.438-.575-1.277.929-.557.929.557-.575 1.277zm3.01-.24 2.816 1.689 1.65-3.887c2.382 1.761 3.878 4.574 3.878 7.684v.692c-1.783 1.518-3.88 2.674-6.182 3.356l-2.746-8.239zm2.344-10.76c0 1.654-1.346 3-3 3h-4c-1.654 0-3-1.346-3-3v-6.146c0-.718.375-1.367.987-1.726.877 1.243 2.269 2.102 3.894 2.265l5.119.512zm-7.859 20.74 2.579-7.74h.559l2.58 7.74c-.931.159-1.883.26-2.859.26s-1.928-.101-2.859-.26zm-.018-35.74h5.754c3.376 0 6.123 2.747 6.123 6.123 0 .501-.062 1.001-.183 1.485l-.187.747c-.499-.224-1.048-.355-1.63-.355h-.948l-5.972-.597c-1.756-.175-3.08-1.638-3.08-3.403h-2c0 .449.054.886.156 1.304-1.073.556-1.807 1.546-2.056 2.696h-.1c-.582 0-1.131.131-1.631.355l-.187-.748c-.12-.483-.182-.983-.182-1.484 0-3.376 2.747-6.123 6.123-6.123zm-25.962 19.031-.016-.031.017-.031c3.724-6.703 9.745-11.915 16.84-14.7-4.42 3.591-7.002 8.946-7.002 14.731 0 5.934 2.738 11.237 7.012 14.724-7.042-2.751-13.061-7.872-16.851-14.693zm47.839 38.969v-14h10l.002 14z"/><path d="m5 57h6v2h-6z"/><path d="m5 53h6v2h-6z"/><path d="m5 49h6v2h-6z"/><path d="m54.845 55.431-1.138-1.138-1.414 1.414 2.862 2.862 4.677-7.014-1.664-1.11z"/></g></g></svg>