<svg id="_x33_0" enable-background="new 0 0 64 64" height="512" viewBox="0 0 64 64" width="512" xmlns="http://www.w3.org/2000/svg"><g><path d="m29 19h3c1.615 0 3.067-.897 3.789-2.342l.105-.211-1.789-.895-.105.212c-.381.762-1.147 1.236-2 1.236h-3z"/><path d="m29 57h6v2h-6z"/><path d="m29 53h6v2h-6z"/><path d="m29 49h6v2h-6z"/><path d="m61 45h-4.586l-8.072-8.072c5.896-3.117 10.894-7.894 14.245-13.926l.558-1.002-.558-1.002c-4.522-8.139-12.235-14.208-21.196-16.708-1.482-1.992-3.846-3.29-6.514-3.29h-5.754c-2.668 0-5.032 1.298-6.514 3.29-8.961 2.5-16.674 8.568-21.196 16.708l-.558 1.002.558 1.002c3.351 6.032 8.349 10.808 14.245 13.926l-8.072 8.072h-4.586c-1.103 0-2 .897-2 2v14c0 1.103.897 2 2 2h10c1.103 0 2-.897 2-2v-14c0-1.103-.897-2-2-2h-2.586l7.143-7.143c4.172 1.893 8.729 2.974 13.443 3.109v4.034h-4c-1.103 0-2 .897-2 2v14c0 1.103.897 2 2 2h10c1.103 0 2-.897 2-2v-14c0-1.103-.897-2-2-2h-4v-4.034c4.714-.135 9.271-1.216 13.443-3.109l7.143 7.143h-2.586c-1.103 0-2 .897-2 2v14c0 1.103.897 2 2 2h10c1.103 0 2-.897 2-2v-14c0-1.103-.897-2-2-2zm-47.998 16h-10.002v-14h10zm24 0h-10.002v-14h10zm23.837-39.031.016.031-.017.031c-3.79 6.821-9.809 11.942-16.851 14.693 4.275-3.487 7.013-8.79 7.013-14.724 0-5.784-2.581-11.139-6.998-14.73 7.093 2.785 13.113 7.997 16.837 14.699zm-35.839-4.969c-1.103 0-2-.897-2-2s.897-2 2-2zm-3.757-5.907.425 1.701c-.42.633-.668 1.391-.668 2.206 0 2.206 1.794 4 4 4h.101c.289 1.419 1.193 2.604 2.408 3.31l-.29.868c-4.472 1.348-7.657 5.235-8.146 9.835-2.534-2.97-4.073-6.812-4.073-11.013 0-5.06 2.21-9.753 6.004-12.962 0 .028-.004.056-.004.085 0 .665.082 1.328.243 1.97zm17.757 1.907c1.103 0 2 .897 2 2s-.897 2-2 2zm-.101 6h.101c2.206 0 4-1.794 4-4 0-.815-.248-1.573-.668-2.206l.425-1.7c.161-.643.243-1.306.243-1.971 0-.029-.004-.057-.004-.086 3.794 3.209 6.004 7.902 6.004 12.963 0 4.201-1.539 8.043-4.073 11.013-.489-4.599-3.675-8.487-8.146-9.835l-.29-.868c1.215-.706 2.119-1.891 2.408-3.31zm-8.899 4h4c.203 0 .396-.036.593-.06l.184.553-2.777 1.389-2.777-1.389.184-.553c.197.024.39.06.593.06zm4.077 3.08 2.02-1.01c.444.128.874.282 1.286.469l-.855 2.012zm-6.174-1.01 2.02 1.01-2.452 1.471-.855-2.012c.413-.187.844-.341 1.287-.469zm-3.025 1.492 1.65 3.887 2.816-1.689.584 1.296-2.746 8.239c-2.302-.682-4.399-1.838-6.182-3.356v-.692c0-3.111 1.496-5.924 3.878-7.685zm6.768 2.438-.575-1.277.929-.557.929.557-.575 1.277zm3.01-.24 2.816 1.689 1.65-3.887c2.382 1.761 3.878 4.574 3.878 7.684v.692c-1.783 1.518-3.88 2.674-6.182 3.356l-2.746-8.239zm2.344-10.76c0 1.654-1.346 3-3 3h-4c-1.654 0-3-1.346-3-3v-6.146c0-.718.375-1.367.987-1.726.877 1.243 2.269 2.102 3.894 2.265l5.119.512zm-7.859 20.74 2.579-7.74h.559l2.58 7.74c-.931.159-1.883.26-2.859.26s-1.928-.101-2.859-.26zm-.018-35.74h5.754c3.376 0 6.123 2.747 6.123 6.123 0 .501-.062 1.001-.183 1.485l-.187.747c-.499-.224-1.048-.355-1.63-.355h-.948l-5.972-.597c-1.756-.175-3.08-1.638-3.08-3.403h-2c0 .449.054.886.156 1.304-1.073.556-1.807 1.546-2.056 2.696h-.1c-.582 0-1.131.131-1.631.355l-.187-.748c-.12-.483-.182-.983-.182-1.484 0-3.376 2.747-6.123 6.123-6.123zm-25.962 19.031-.016-.031.017-.031c3.724-6.703 9.745-11.915 16.84-14.7-4.42 3.591-7.002 8.946-7.002 14.731 0 5.934 2.738 11.237 7.012 14.724-7.042-2.751-13.061-7.872-16.851-14.693zm47.839 38.969v-14h10l.002 14z"/><path d="m5 57h6v2h-6z"/><path d="m5 53h6v2h-6z"/><path d="m5 49h6v2h-6z"/><path d="m54.845 55.431-1.138-1.138-1.414 1.414 2.862 2.862 4.677-7.014-1.664-1.11z"/></g></svg>