<?xml version="1.0" encoding="iso-8859-1"?>
<!-- Generator: Adobe Illustrator 19.0.0, SVG Export Plug-In . SVG Version: 6.00 Build 0)  -->
<svg version="1.1" id="Capa_1" xmlns="http://www.w3.org/2000/svg" xmlns:xlink="http://www.w3.org/1999/xlink" x="0px" y="0px"
	 viewBox="0 0 512 512" style="enable-background:new 0 0 512 512;" xml:space="preserve">
<path style="fill:#FFDA45;" d="M386.499,326.499c-31.8,32.1-51.299,75.101-54.899,120.101c-0.601,7.798-7.2,13.799-15,13.799
	H195.399c-7.8,0-14.399-6-15-13.799c-3.6-45-23.099-88.001-54.899-120.101c-5.101-4.799-6-12.9-2.1-18.9l117.6-176.4l13.2,23.401
	l1.8-2.401l15-21l117.599,176.4C392.5,313.599,391.601,321.7,386.499,326.499z"/>
<path style="fill:#FFBC36;" d="M386.499,326.499c-31.8,32.1-51.299,75.101-54.899,120.101c-0.601,7.798-7.2,13.799-15,13.799H256
	v-308.2l15-21l117.599,176.4C392.5,313.599,391.601,321.7,386.499,326.499z"/>
<path style="fill:#BF6015;" d="M286,422h-60c-41.4,0-75,33.6-75,75c0,8.399,6.599,15,15,15h180c8.401,0,15-6.601,15-15
	C361,455.6,327.4,422,286,422z"/>
<path style="fill:#994C10;" d="M361,497c0,8.399-6.599,15-15,15h-90v-90h30C327.4,422,361,455.6,361,497z"/>
<path style="fill:#1689FC;" d="M451,45c0,8.399-6.599,15-15,15H76c-8.401,0-15-6.601-15-15c0-8.401,6.599-15,15-15h360
	C444.401,30,451,36.599,451,45z"/>
<path style="fill:#136EF1;" d="M451,45c0,8.399-6.599,15-15,15H256V30h180C444.401,30,451,36.599,451,45z"/>
<path style="fill:#1689FC;" d="M76,240c-8.291,0-15-6.709-15-15c0-95.684,68.394-176.572,162.627-192.319
	c8.13-1.45,15.894,4.16,17.271,12.319c1.362,8.174-4.146,15.908-12.319,17.271C148.861,75.601,91,144.038,91,225
	C91,233.291,84.291,240,76,240z"/>
<path style="fill:#136EF1;" d="M436,240c-8.291,0-15-6.709-15-15c0-80.962-57.861-149.399-137.578-162.729
	c-8.174-1.362-13.682-9.097-12.319-17.271c1.362-8.159,9.082-13.784,17.271-12.319C382.606,48.428,451,129.316,451,225
	C451,233.291,444.291,240,436,240z"/>
<path style="fill:#00C8C8;" d="M76,300c-24.814,0-45-20.186-45-45s20.186-45,45-45s45,20.186,45,45S100.814,300,76,300z"/>
<path style="fill:#E1F1FA;" d="M76,270c-8.271,0-15-6.729-15-15s6.729-15,15-15s15,6.729,15,15S84.271,270,76,270z"/>
<path style="fill:#00A1B2;" d="M436,300c-24.814,0-45-20.186-45-45s20.186-45,45-45s45,20.186,45,45S460.814,300,436,300z"/>
<path style="fill:#BFE1FF;" d="M436,270c-8.271,0-15-6.729-15-15s6.729-15,15-15s15,6.729,15,15S444.271,270,436,270z"/>
<g>
	<path style="fill:#00C8C8;" d="M256,0c-24.901,0-45,20.099-45,45c0,24.899,20.099,45,45,45s45-20.101,45-45
		C301,20.099,280.901,0,256,0z"/>
	<path style="fill:#00C8C8;" d="M75,90H15C6.709,90,0,83.291,0,75V15C0,6.709,6.709,0,15,0h60c8.291,0,15,6.709,15,15v60
		C90,83.291,83.291,90,75,90z"/>
</g>
<rect x="30" y="30" style="fill:#E1F1FA;" width="30" height="30"/>
<path style="fill:#00A1B2;" d="M497,90h-60c-8.291,0-15-6.709-15-15V15c0-8.291,6.709-15,15-15h60c8.291,0,15,6.709,15,15v60
	C512,83.291,505.291,90,497,90z"/>
<rect x="452" y="30" style="fill:#BFE1FF;" width="30" height="30"/>
<g>
	<path style="fill:#994C0F;" d="M256,271c-24.901,0-45,20.099-45,45c0,24.899,20.099,45,45,45s45-20.101,45-45
		C301,291.099,280.901,271,256,271z"/>
	<path style="fill:#994C0F;" d="M271,131.199V286c0,8.399-6.599,15-15,15s-15-6.601-15-15V131.199l2.401-3.6
		c2.999-4.2,7.8-6.299,12.599-6.299c4.799,0,9.6,2.098,12.599,6.299L271,131.199z"/>
</g>
<path style="fill:#00A1B2;" d="M256,90V0c24.901,0,45,20.099,45,45C301,69.899,280.901,90,256,90z"/>
<path style="fill:#E1F1FA;" d="M256,60c-8.271,0-15-6.729-15-15s6.729-15,15-15s15,6.729,15,15S264.271,60,256,60z"/>
<path style="fill:#BFE1FF;" d="M271,45c0-8.271-6.729-15-15-15v30C264.271,60,271,53.271,271,45z"/>
<g>
	<path style="fill:#713708;" d="M256,301V121.3c4.799,0,9.6,2.098,12.599,6.299l2.401,3.6V286C271,294.399,264.401,301,256,301z"/>
	<path style="fill:#713708;" d="M301,316c0,24.899-20.099,45-45,45v-90C280.901,271,301,291.099,301,316z"/>
</g>
<g>
</g>
<g>
</g>
<g>
</g>
<g>
</g>
<g>
</g>
<g>
</g>
<g>
</g>
<g>
</g>
<g>
</g>
<g>
</g>
<g>
</g>
<g>
</g>
<g>
</g>
<g>
</g>
<g>
</g>
</svg>
