<svg id="Layer_1" enable-background="new 0 0 480 480" height="512" viewBox="0 0 480 480" width="512" xmlns="http://www.w3.org/2000/svg"><g fill="#fe4f60"><circle cx="38.5" cy="38.5" r="30.5"/><circle cx="38.5" cy="441.5" r="30.5"/><circle cx="441.5" cy="441.5" r="30.5"/><circle cx="441.5" cy="38.5" r="30.5"/></g><path d="m51.725 28.726c-11.331 2.604-20.404 11.654-23.007 22.997-1.755 7.647-12.077 9.439-16.196 2.762-12.129-19.665 1.39-45.027 24.046-46.425 6.591-.407 12.768 1.284 17.927 4.469 6.679 4.122 4.88 14.438-2.77 16.197z" fill="#ff6d7a"/><path d="m454.725 28.726c-11.331 2.605-20.403 11.654-23.007 22.997-1.755 7.647-12.077 9.439-16.196 2.762-3.181-5.157-4.869-11.331-4.462-17.918 1.4-22.674 26.784-36.17 46.435-24.039 6.679 4.123 4.88 14.439-2.77 16.198z" fill="#ff6d7a"/><path d="m51.725 431.726c-11.331 2.605-20.403 11.654-23.007 22.997-1.755 7.647-12.077 9.439-16.196 2.762-3.181-5.157-4.869-11.331-4.462-17.918 1.4-22.674 26.784-36.17 46.435-24.039 6.679 4.123 4.88 14.439-2.77 16.198z" fill="#ff6d7a"/><path d="m454.725 431.726c-11.331 2.605-20.403 11.654-23.007 22.997-1.755 7.647-12.077 9.439-16.196 2.762-3.181-5.157-4.869-11.331-4.462-17.918 1.4-22.674 26.784-36.17 46.435-24.039 6.679 4.123 4.88 14.439-2.77 16.198z" fill="#ff6d7a"/><circle cx="240" cy="239.94" fill="#f1fafc" r="155.06"/><path d="m240 239.94v155.06c4.653-2.849 86.885-55.226 86.885-155.06z" fill="#caf2fc"/><path d="m240 84.88v155.06h86.885c0-99.834-82.232-152.211-86.885-155.06z" fill="#d6f4fc"/><path d="m240 84.88c4.653 2.849 86.885 55.226 86.885 155.06h68.175c0-85.636-69.424-155.06-155.06-155.06z" fill="#bdeffc"/><path d="m326.885 239.94c0 99.834-82.232 152.211-86.885 155.06 85.636 0 155.06-69.424 155.06-155.06z" fill="#b0edfc"/><path d="m240 239.94v155.06c-4.653-2.849-86.885-55.226-86.885-155.06z" fill="#dbf5fc"/><path d="m240 84.88v155.06h-86.885c0-99.834 82.232-152.211 86.885-155.06z" fill="#e8f8fc"/><path d="m153.115 239.94c0 99.834 82.232 152.211 86.885 155.06-85.636 0-155.06-69.424-155.06-155.06z" fill="#e5f8fc"/><path d="m403 240c0-89.878-73.122-163-163-163s-163 73.122-163 163c0 42.321 16.217 80.923 42.757 109.929l-34.664 34.664c-5.056 5.055-1.405 13.657 5.657 13.657 2.047 0 4.095-.781 5.657-2.343l34.714-34.714c29.047 26.122 67.28 41.81 108.888 41.808 89.875-.006 162.991-73.126 162.991-163.001zm-84.34-8h-70.66v-131.492c22.271 17.583 67.416 61.613 70.66 131.492zm-86.66-138.78v138.78h-70.649c2.293-48.31 24.958-84.146 44.144-106.089 2.908-3.326 2.569-8.38-.757-11.288-3.326-2.909-8.38-2.569-11.288.757-20.996 24.013-45.817 63.36-48.113 116.62h-52.117c4.026-74.701 64.079-134.754 138.78-138.78zm-138.78 154.78h52.11c2.89 67.935 42.044 113.604 67.933 136.556-65.352-12.059-116.337-67.789-120.043-136.556zm68.115 0h70.665v131.413c-39.585-31.423-68.183-77.484-70.665-131.413zm86.665 138.78v-138.78h70.647c-2.367 49.99-26.473 86.74-46.873 109.146-2.975 3.267-2.737 8.327.53 11.301 3.267 2.975 8.327 2.737 11.301-.53 22.309-24.502 48.689-64.826 51.058-119.917h25.337c4.418 0 8-3.582 8-8s-3.582-8-8-8h-25.329c-2.885-67.919-42.022-113.593-67.9-136.549 68.317 12.622 120.229 72.634 120.229 144.549 0 78.372-61.65 142.611-139 146.78zm171.936 22.842-38.779-38.779c-3.124-3.124-8.189-3.124-11.313 0-3.125 3.124-3.125 8.189 0 11.313l38.995 38.995c-15.961 25.526 2.496 58.849 32.661 58.849 21.229 0 38.5-17.271 38.5-38.5 0-30.897-34.701-49.091-60.064-31.878zm21.564 54.378c-12.407 0-22.5-10.093-22.5-22.5s10.093-22.5 22.5-22.5 22.5 10.093 22.5 22.5-10.093 22.5-22.5 22.5zm-382.652-392.838 38.995 38.995c3.125 3.125 8.189 3.124 11.313 0 3.125-3.124 3.125-8.189 0-11.313l-38.778-38.78c17.212-25.363-.983-60.064-31.878-60.064-21.229 0-38.5 17.271-38.5 38.5 0 30.208 33.368 48.593 58.848 32.662zm-20.348-55.162c12.407 0 22.5 10.093 22.5 22.5s-10.093 22.5-22.5 22.5-22.5-10.093-22.5-22.5 10.093-22.5 22.5-22.5zm0 387c-21.229 0-38.5 17.271-38.5 38.5s17.271 38.5 38.5 38.5 38.5-17.271 38.5-38.5-17.271-38.5-38.5-38.5zm0 61c-12.407 0-22.5-10.093-22.5-22.5s10.093-22.5 22.5-22.5 22.5 10.093 22.5 22.5-10.093 22.5-22.5 22.5zm342.657-354.843 38.779-38.779c25.363 17.212 60.064-.983 60.064-31.878 0-21.229-17.271-38.5-38.5-38.5-30.208 0-48.593 33.368-32.662 58.848l-38.995 38.995c-3.125 3.124-3.125 8.189 0 11.313 3.125 3.125 8.19 3.125 11.314.001zm60.343-93.157c12.407 0 22.5 10.093 22.5 22.5s-10.093 22.5-22.5 22.5-22.5-10.093-22.5-22.5 10.093-22.5 22.5-22.5z"/></svg>