<svg height="512" viewBox="0 0 60 60" width="512" xmlns="http://www.w3.org/2000/svg"><g id="002---Cutting-Ribbon" transform="translate(0 -1)"><path id="Shape" d="m12 14c-4.34 0-8 2.75-8 6s3.66 6 8 6 8-2.75 8-6-3.66-6-8-6zm0 10c-3.2 0-6-1.87-6-4s2.8-4 6-4 6 1.87 6 4-2.8 4-6 4z"/><circle id="Oval" cx="27" cy="31" r="1"/><path id="Shape" d="m0 42c0 5.51 5.38 10 12 10 8.82 0 14.54-7.65 10.89-14.2l4-2.09 9 4.92c-4.27 3.64-7.33 8.37-7.84 18.11-.0442198.7354491.3194938 1.4356515.9466172 1.8223775.6271233.3867261 1.4160836.3973393 2.0533828.0276225l2.95-1.72 3 1.83c.5956919.3464731 1.3277943.3618681 1.9375249.0407434.6097305-.3211247 1.0111915-.9335299 1.0624751-1.6207434.0638812-2.4131372.597142-4.7907333 1.57-7 1.07-2 3.88-3.8 6.31-5.57 2.68.91 6.94 2.08 9.57 1.07 1.6-.62 1.91-1.62 2.4-2.71.2144604-.4788442.0223717-1.0420133-.44-1.29l-5.21-2.8c2.67-3.15 3.94-6.46 3.8-9.82.0445159-3.5414932-1.2277228-6.9733304-3.57-9.63l5.08-3.05c.4330547-.2633314.6006233-.8090037.39-1.27l-.41-.9c-1.18-2.68-5-2.91-11.53-.72-2.51-1.82-5.27-3.63-6.34-5.59-.9726144-2.20934678-1.5058643-4.58689442-1.57-7-.052035-.6975801-.4647491-1.31727981-1.0883592-1.6341964s-1.3674792-.28498868-1.9616408.0841964l-3 1.85-2.92-1.73c-.6341277-.36732126-1.4183676-.35841414-2.0439889.02321488-.6256214.38162903-.9924248 1.07485832-.9560111 1.80678512.51 9.69 3.57 14.49 7.83 18.12l-9 4.93-4-2.08c3.66-6.61-2.16-14.21-10.91-14.21-6.62 0-12 4.49-12 10 0 6.93 8.19 11.57 15.64 9.52l2.7 1.48-2.7 1.48c-7.5-2.06-15.64 2.62-15.64 9.52zm43.42-14.81c2.46 2.19 2.58 3.15 2.58 3.43v.79c0 .29-.14 1.24-2.72 3.51l-7.28-3.92zm-3.55 24c-1.35 2.49-1.71 6.31-1.8 7.83l-3-1.83c-.633865-.3808262-1.426135-.3808262-2.06 0l-2.91 1.71c.0952733-3.9921603 1.0467221-7.9173126 2.79-11.51 1.2517208-2.2006002 2.9273659-4.1311609 4.93-5.68 6.35 3.49 5.5 3.09 7.91 4.05-2.09 1.44-4.64 3.24-5.86 5.4zm16.92-5.41c-2.74 1-8.76-1.3-8.86-1.32-3.67-1.32-2.75-1-18.86-9.82l4.79-2.48 23.82 12.84c-.1817924.3610535-.5033574.6320353-.89.75zm.93-28.65-4.61 2.77c-1.0048216-1.0327901-2.0735974-2.0013682-3.2-2.9 2.09-.68 6.91-1.91 7.81.1zm-24.87-2.47c-1.7428227-3.5999538-2.6941708-7.53151092-2.79-11.53l2.94 1.74c.6188022.35726559 1.3811978.35726559 2 0l3-1.85c.1 1.53.46 5.35 1.81 7.84 1.12 2 3.27 3.6 5.56 5.25 5.33 3.8 10.89 8.33 10.63 14.89.12 3-1 5.92-3.55 8.81l-7.3-3.92c3.18-2.89 2.85-4.07 2.85-5.16.18-2.73-4.58-6.2-6.84-7.84-3.31-2.41-6.32-4.56-8.31-8.23zm-16.24 13.11c-.4558178-.2477786-.9900833-.3087351-1.49-.17-6.21 1.68-13.12-2.02-13.12-7.6 0-4.41 4.49-8 10-8s10 3.59 10 8c0 2.82-1.49 3.25-1 4.78.1521058.5264987.5135958.9675164 1 1.22l2.84 1.47-4.39 2.41zm21-5.05c1.65 1.26 2.72 2 4.16 3.09l-19.77 10.19c-.4843012.2502012-.8454922.6872423-1 1.21-.45 1.53 1 1.94 1 4.77 0 4.41-4.49 8-10 8s-10-3.57-10-7.98c0-5.66 7-9.27 13.11-7.6.498633.141786 1.032839.0844216 1.49-.16 39-21.36 9.4-5.16 20.98-11.52z"/><path id="Shape" d="m4 42c0 3.25 3.66 6 8 6s8-2.75 8-6c0-2.45-2-4.36-4.22-5.28-5.55-2.25-11.78 1.03-11.78 5.28zm13.1-2c2.62 2.76-.88 6-5.1 6-3.2 0-6-1.87-6-4s2.8-4 6-4c1.9011066-.0538389 3.7422845.6681916 5.1 2z"/></g></svg>