<svg height="480pt" viewBox="0 -1 480 480" width="480pt" xmlns="http://www.w3.org/2000/svg"><path d="m56 173.664062c13.253906 0 24-10.746093 24-24 0-13.253906-10.746094-24-24-24s-24 10.746094-24 24c0 13.253907 10.746094 24 24 24zm0-32c4.417969 0 8 3.582032 8 8 0 4.417969-3.582031 8-8 8s-8-3.582031-8-8c0-4.417968 3.582031-8 8-8zm0 0"/><path d="m424 173.664062c13.253906 0 24-10.746093 24-24 0-13.253906-10.746094-24-24-24s-24 10.746094-24 24c0 13.253907 10.746094 24 24 24zm0-32c4.417969 0 8 3.582032 8 8 0 4.417969-3.582031 8-8 8s-8-3.582031-8-8c0-4.417968 3.582031-8 8-8zm0 0"/><path d="m80 245.664062c0-13.253906-10.746094-24-24-24s-24 10.746094-24 24c0 13.253907 10.746094 24 24 24s24-10.746093 24-24zm-32 0c0-4.417968 3.582031-8 8-8s8 3.582032 8 8c0 4.417969-3.582031 8-8 8s-8-3.582031-8-8zm0 0"/><path d="m48 189.664062v16c0 4.417969 3.582031 8 8 8s8-3.582031 8-8v-16c0-4.417968-3.582031-8-8-8s-8 3.582032-8 8zm0 0"/><path d="m472 93.664062h-96c-4.417969 0-8 3.582032-8 8v192c0 4.417969 3.582031 8 8 8h24v40h-56v-24c0-4.417968-3.582031-8-8-8h-24v-24c0-4.417968-3.582031-8-8-8h-48c-4.417969 0-8 3.582032-8 8v24h-16v-24c0-4.417968-3.582031-8-8-8h-48c-4.417969 0-8 3.582032-8 8v24h-24c-4.417969 0-8 3.582032-8 8v24h-56v-40h24c4.417969 0 8-3.582031 8-8v-192c0-4.417968-3.582031-8-8-8h-96c-4.417969 0-8 3.582032-8 8v192c0 4.417969 3.582031 8 8 8h24v40h-24c-4.417969 0-8 3.582032-8 8v48c0 4.417969 3.582031 8 8 8v64c0 4.417969 3.582031 8 8 8h448c4.417969 0 8-3.582031 8-8v-64c4.417969 0 8-3.582031 8-8v-48c0-4.417968-3.582031-8-8-8h-24v-40h24c4.417969 0 8-3.582031 8-8v-192c0-4.417968-3.582031-8-8-8zm-208 200h32v16h-32zm-80 0h32v16h-32zm-32 32h176v16h-176zm-136-216h80v176h-80zm32 192h16v40h-16zm408 160h-432v-56h432zm8-72h-448v-32h448zm-32-48h-16v-40h16zm32-56h-80v-176h80zm0 0"/><path d="m424 269.664062c13.253906 0 24-10.746093 24-24 0-13.253906-10.746094-24-24-24s-24 10.746094-24 24c0 13.253907 10.746094 24 24 24zm0-32c4.417969 0 8 3.582032 8 8 0 4.417969-3.582031 8-8 8s-8-3.582031-8-8c0-4.417968 3.582031-8 8-8zm0 0"/><path d="m416 189.664062v16c0 4.417969 3.582031 8 8 8s8-3.582031 8-8v-16c0-4.417968-3.582031-8-8-8s-8 3.582032-8 8zm0 0"/><path d="m134.625 15.039062c-10.449219-9.941406-26.167969-11.886718-38.730469-4.800781l-10.238281-10.238281-11.3125 11.320312 10.175781 10.175782c-7.511719 12.503906-5.507812 28.523437 4.855469 38.792968l16.96875 16.96875c3.125 3.121094 8.1875 3.121094 11.3125 0l33.945312-33.9375c3.121094-3.125 3.121094-8.1875 0-11.3125zm-22.625 45.25-11.3125-11.3125c-4.160156-4.019531-5.828125-9.964843-4.363281-15.5625 1.464843-5.59375 5.832031-9.960937 11.425781-11.425781 5.597656-1.464843 11.542969.203125 15.5625 4.363281l11.3125 11.3125zm0 0"/><path d="m380.289062.0078125-10.25 10.2382815c-12.558593-7.085938-28.277343-5.140625-38.726562 4.800781l-16.96875 16.960937c-3.121094 3.125-3.121094 8.1875 0 11.3125l33.945312 33.9375c3.121094 3.121094 8.1875 3.121094 11.3125 0l16.964844-16.96875c10.367188-10.269531 12.371094-26.289062 4.859375-38.792968l10.175781-10.175782zm-15.03125 48.9687495-11.3125 11.3125-22.632812-22.625 11.3125-11.3125c6.332031-6.046874 16.300781-6.046874 22.632812 0 6.246094 6.25 6.246094 16.375 0 22.625zm0 0"/><path d="m128.410156 104.195312 15.175782-5.058593 40 119.996093-15.179688 5.058594zm0 0"/><path d="m164.113281 60.652344 7.773438-13.984375 72 40-7.769531 13.988281zm0 0"/><path d="m259.554688 79.007812 48-31.996093 8.875 13.3125-48 32zm0 0"/><path d="m296.519531 210.785156 40.027344-103.984375 14.941406 5.75-40.03125 103.984375zm0 0"/><path d="m257.859375 160.546875 40-47.996094 12.289063 10.242188-40 47.996093zm0 0"/><path d="m185.054688 137.628906 13.890624-7.9375 32 56-13.890624 7.9375zm0 0"/></svg>