<svg height="469pt" viewBox="-2 0 469 469.65533" width="469pt" xmlns="http://www.w3.org/2000/svg"><path d="m368.328125 101.65625h96v192h-96zm0 0" fill="#5a6470"/><path d="m8.328125 397.65625h448v72h-448zm0 0" fill="#5a6470"/><path d="m.328125 349.65625h464v48h-464zm0 0" fill="#aabece"/><path d="m.328125 101.65625h96v192h-96zm0 0" fill="#5a6470"/><path d="m64.328125 149.65625c0 8.835938-7.164063 16-16 16s-16-7.164062-16-16 7.164063-16 16-16 16 7.164062 16 16zm0 0" fill="#aabece"/><path d="m432.328125 149.65625c0 8.835938-7.164063 16-16 16s-16-7.164062-16-16 7.164063-16 16-16 16 7.164062 16 16zm0 0" fill="#aabece"/><path d="m64.328125 245.65625c0 8.835938-7.164063 16-16 16s-16-7.164062-16-16 7.164063-16 16-16 16 7.164062 16 16zm0 0" fill="#aabece"/><path d="m48.328125 213.65625c-4.417969 0-8-3.582031-8-8v-16c0-4.417969 3.582031-8 8-8s8 3.582031 8 8v16c0 4.417969-3.582031 8-8 8zm0 0" fill="#aabece"/><path d="m32.328125 293.65625h32v56h-32zm0 0" fill="#f4c864"/><path d="m432.328125 245.65625c0 8.835938-7.164063 16-16 16s-16-7.164062-16-16 7.164063-16 16-16 16 7.164062 16 16zm0 0" fill="#aabece"/><path d="m416.328125 213.65625c-4.417969 0-8-3.582031-8-8v-16c0-4.417969 3.582031-8 8-8s8 3.582031 8 8v16c0 4.417969-3.582031 8-8 8zm0 0" fill="#aabece"/><path d="m400.328125 293.65625h32v56h-32zm0 0" fill="#f4c864"/><path d="m136.328125 317.65625h192v32h-192zm0 0" fill="#5a6470"/><path d="m168.328125 285.65625h48v32h-48zm0 0" fill="#f4c864"/><path d="m248.328125 285.65625h48v32h-48zm0 0" fill="#f4c864"/><path d="m87.359375 20.683594c9.375-9.371094 24.570313-9.371094 33.941406 0l16.972657 16.972656-33.941407 33.941406-16.972656-16.972656c-9.371094-9.371094-9.371094-24.566406 0-33.941406zm0 0" fill="#5a6470"/><path d="m66.671875 11.3125 11.3125-11.3125 15.996094 15.996094-11.3125 11.316406zm0 0" fill="#aabece"/><path d="m346.265625 71.59375-33.941406-33.941406 16.96875-16.972656c9.371093-9.371094 24.570312-9.371094 33.941406 0 9.371094 9.375 9.371094 24.570312 0 33.941406zm0 0" fill="#5a6470"/><path d="m356.605469 15.996094 16-15.996094 11.3125 11.3125-15.996094 16zm0 0" fill="#aabece"/><g fill="#e97424"><path d="m120.734375 104.1875 15.179687-5.0625 40 120-15.179687 5.058594zm0 0"/><path d="m156.441406 60.644531 7.769532-13.984375 72.003906 40-7.769532 13.988282zm0 0"/><path d="m251.882812 79 48-32 8.875 13.3125-48 32zm0 0"/><path d="m288.847656 210.777344 40.027344-103.988282 14.941406 5.753907-40.03125 103.984375zm0 0"/><path d="m250.175781 160.519531 40.023438-47.980469 12.285156 10.25-40.019531 47.980469zm0 0"/><path d="m177.382812 137.621094 13.890626-7.9375 32 55.996094-13.894532 7.941406zm0 0"/></g></svg>