<svg height="512" viewBox="0 0 64 64" width="512" xmlns="http://www.w3.org/2000/svg"><g id="screen-mobile-laptop-megaphone-Digital_Marketing" data-name="screen-mobile-laptop-megaphone-Digital Marketing"><path d="m59 53h-54v-32a2 2 0 0 1 2-2h50a2 2 0 0 1 2 2z" fill="#3780ea"/><rect fill="#e8e5fb" height="40" rx="2" width="26" x="35" y="3"/><path d="m35 7h26v26h-26z" fill="#5bcbfa"/><circle cx="48" cy="38" fill="#f6cc4f" r="2"/><path d="m61 53v4a4.012 4.012 0 0 1 -4 4h-50a4.012 4.012 0 0 1 -4-4v-4z" fill="#e8e5fb"/><path d="m38 53v3a1 1 0 0 1 -1 1h-10a1 1 0 0 1 -1-1v-3z" fill="#acabb1"/><path d="m47 22-1 6h-3v-6z" fill="#c7bec5"/><path d="m42 14h7v8h-7z" fill="#e8e5fb"/><path d="m56.41 16.59a1.955 1.955 0 0 1 .59 1.41 2.006 2.006 0 0 1 -2 2h-2v-4h2a1.955 1.955 0 0 1 1.41.59z" fill="#ec455a"/><path d="m42 15v6l-3-1v-4z" fill="#ec455a"/><path d="m54 12v12l-5-2v-8z" fill="#f6cc4f"/><path d="m20 37-1 6h-3v-6z" fill="#c7bec5"/><path d="m15 29h7v8h-7z" fill="#e8e5fb"/><path d="m29.41 31.59a1.955 1.955 0 0 1 .59 1.41 2.006 2.006 0 0 1 -2 2h-2v-4h2a1.955 1.955 0 0 1 1.41.59z" fill="#ec455a"/><path d="m15 30v6l-3-1v-4z" fill="#ec455a"/><path d="m27 27v12l-5-2v-8z" fill="#f6cc4f"/><g fill="#5bcbfa"><path d="m11 21h-3a1 1 0 0 0 -1 1v3h2v-2h2z"/><path d="m55 49h-2v2h3a1 1 0 0 0 1-1v-3h-2z"/></g></g></svg>