<?xml version="1.0"?>
<svg xmlns="http://www.w3.org/2000/svg" viewBox="0 0 64 64" width="512" height="512"><g id="screen-mobile-laptop-megaphone-Digital_Marketing" data-name="screen-mobile-laptop-megaphone-Digital Marketing"><path d="M62,41V5a3.009,3.009,0,0,0-3-3H37a3.009,3.009,0,0,0-3,3V18H7a3.009,3.009,0,0,0-3,3V52a2.006,2.006,0,0,0-2,2v3a5,5,0,0,0,5,5H57a5,5,0,0,0,5-5V54a2.006,2.006,0,0,0-2-2V43.82A3.01,3.01,0,0,0,62,41ZM36,5a1,1,0,0,1,1-1H59a1,1,0,0,1,1,1V6H36Zm0,3H60V32H36ZM6,21a1,1,0,0,1,1-1H34V41a3.009,3.009,0,0,0,3,3H58v8H6ZM37,54v2H27V54Zm23,3a3.009,3.009,0,0,1-3,3H7a3.009,3.009,0,0,1-3-3V54H25v2a2.006,2.006,0,0,0,2,2H37a2.006,2.006,0,0,0,2-2V54H60ZM59,42H37a1,1,0,0,1-1-1V34H60v7A1,1,0,0,1,59,42Z"/><path d="M48,35a3,3,0,1,0,3,3A3,3,0,0,0,48,35Zm0,4a1,1,0,1,1,1-1A1,1,0,0,1,48,39Z"/><path d="M11,21H8a1,1,0,0,0-1,1v3H9V23h2Z"/><path d="M55,49H53v2h3a1,1,0,0,0,1-1V47H55Z"/><path d="M55,15V12a1,1,0,0,0-.44-.83,1.021,1.021,0,0,0-.93-.1L48.81,13H42a1,1,0,0,0-1,1v.28l-2.32.77A1.014,1.014,0,0,0,38,16v4a1.014,1.014,0,0,0,.68.95l2.32.77V22a1,1,0,0,0,1,1v5a1,1,0,0,0,1,1h3a1,1,0,0,0,.99-.84L47.85,23h.96l4.82,1.93A.937.937,0,0,0,54,25a1.023,1.023,0,0,0,.56-.17A1,1,0,0,0,55,24V21a3,3,0,0,0,0-6ZM41,19.61l-1-.33V16.72l1-.33ZM45.15,27H44V23h1.82ZM48,21H43V15h5Zm5,1.52-3-1.2V14.68l3-1.2ZM55,19V17a1,1,0,0,1,0,2Z"/><path d="M28,30V27a1,1,0,0,0-.44-.83,1.021,1.021,0,0,0-.93-.1L21.81,28H15a1,1,0,0,0-1,1v.28l-2.32.77A1.014,1.014,0,0,0,11,31v4a1.014,1.014,0,0,0,.68.95l2.32.77V37a1,1,0,0,0,1,1v5a1,1,0,0,0,1,1h3a1,1,0,0,0,.99-.84L20.85,38h.96l4.82,1.93A.937.937,0,0,0,27,40a1.023,1.023,0,0,0,.56-.17A1,1,0,0,0,28,39V36a3,3,0,0,0,0-6ZM14,34.61l-1-.33V31.72l1-.33ZM18.15,42H17V38h1.82ZM21,36H16V30h5Zm5,1.52-3-1.2V29.68l3-1.2ZM28,34V32a1,1,0,0,1,0,2Z"/></g></svg>
