<svg id="Layer_1" enable-background="new 0 0 496 496" height="512" viewBox="0 0 496 496" width="512" xmlns="http://www.w3.org/2000/svg"><path d="m169.437 152.573c14.507 84.468 142.852 83.828 157.285-.21 4.29-24.977 7.77-40.411 6.964-64.885-.686-20.837 1.103-44.984-21.445-67.385-12.93-12.845-29.985-19.919-48.026-19.919h-34.382c-36.147 0-65.483 29.255-66.688 65.837-1.497 45.434-1.257 42.602 6.292 86.562zm125.746-5.626c-8.374 48.762-85.731 49.561-94.208.21-4.578-26.66-4.764-27.376-5.42-32.805 8.698-2.726 18.901-7.721 27.622-16.852 24.973 9.385 51.209 13.195 77.96 11.314-.779 8.89-1.416 11.707-5.954 38.133zm-65.351-114.773h34.382c19.981 0 36.169 16.263 36.853 37.022l.247 7.512c-21.888 1.877-43.536-.848-64.204-8.18-2.49-16.197-25.018-18.609-30.792-3.201-2.21 5.893-6.003 10.819-11.61 14.45l.419-12.713c.644-19.564 15.888-34.89 34.705-34.89zm65.168 398.652c0 8.837-7.163 16-16 16h-62c-8.836 0-16-7.163-16-16s7.164-16 16-16h62c8.837 0 16 7.163 16 16zm161-119h-5.117v-67c0-7.343-2.377-8.604-22.8-33.777 14.468-27.134-5.279-60.223-36.2-60.223-22.607 0-41 18.393-41 41 0 27.108 26.066 46.977 52.353 39.389l15.647 19.285v61.326h-30.104c-2.19-48.064-39.46-87.888-88.175-92.255-2.489-.56-102.31-.679-105.326 0-48.744 4.37-85.987 44.223-88.176 92.255h-30.102v-61.326l15.647-19.285c26.262 7.58 52.353-12.259 52.353-39.389 0-22.607-18.393-41-41-41-30.877 0-50.693 33.042-36.2 60.223-20.422 25.171-22.8 26.433-22.8 33.777v67h-5c-22.056 0-40 17.944-40 40v6c0 22.056 17.944 40 40 40h5v82c0 8.837 7.164 16 16 16s16-7.163 16-16v-82h342v82c0 8.837 7.163 16 16 16s16-7.163 16-16v-82h5c22.056 0 40-17.944 40-40v-6c0-22.056-17.944-40-40-40zm-179.939-60.654c-13.108 20.908-43.088 20.978-56.239 0zm-90.075 2.545c8.56 26.101 33.341 45.186 61.956 45.186s53.396-19.085 61.956-45.186c26.5 7.627 45 31.095 46.836 58.108h-217.585c1.841-27.047 20.373-50.491 46.837-58.108zm278.014 104.109c0 4.411-3.589 8-8 8-14.082 0-400.206 0-416 0-4.411 0-8-3.589-8-8v-6c0-4.411 3.589-8 8-8h416c4.411 0 8 3.589 8 8z"/></svg>