<svg id="Layer_1" enable-background="new 0 0 512 512" height="512" viewBox="0 0 512 512" width="512" xmlns="http://www.w3.org/2000/svg"><g><path d="m128.533 232.8h254.934v130.667h-254.934z"/><path d="m372.727 393.467h-233.454l17.126 34.266h199.202z"/><path d="m128.533 168.533h254.934v34.267h-254.934z"/><path d="m117.321 138.533h277.359l16.527-16.527c2.813-2.813 4.394-6.628 4.394-10.606v-96.4c0-6.067-3.654-11.537-9.26-13.858-5.604-2.32-12.057-1.038-16.347 3.252l-21.527 21.526-21.528-21.526c-2.812-2.814-6.627-4.394-10.606-4.394h-160.666c-3.979 0-7.794 1.58-10.606 4.394l-21.528 21.526-21.526-21.526c-4.289-4.29-10.743-5.572-16.347-3.252-5.605 2.321-9.26 7.791-9.26 13.858v96.4c0 3.978 1.58 7.793 4.394 10.606z"/><path d="m160.667 457.733v39.267c0 8.284 6.716 15 15 15h160.666c8.284 0 15-6.716 15-15v-39.267z"/></g></svg>