<svg id="Capa_1" enable-background="new 0 0 512 512" height="512" viewBox="0 0 512 512" width="512" xmlns="http://www.w3.org/2000/svg"><g><g><path d="m144.882 453.992h222.236v50.508h-222.236z" fill="#e4f6ff"/></g><g><path d="m342.874 453.992h24.244v50.508h-24.244z" fill="#e4f6ff"/></g><g><path d="m417.626 128.719 10.102-121.219h-56.569l-10.102 32.325h-30.305l-10.102-32.325h-129.3l-10.102 32.325h-30.305l-10.101-32.325h-56.57l10.102 121.219z" fill="#3d4fc3"/></g><g><path d="m401.464 7.5-10.102 121.219h26.264l10.102-121.219z" fill="#3342aa"/></g><g><path d="m104.476 286.305v50.508c0 11.158 9.045 20.203 20.203 20.203h262.642c11.158 0 20.203-9.045 20.203-20.203v-50.508c0-11.158-9.045-20.203-20.203-20.203h-262.642c-11.158 0-20.203 9.045-20.203 20.203z" fill="#3d4fc3"/></g><g><path d="m387.321 266.102h-5.051v90.915h5.051c11.158 0 20.203-9.045 20.203-20.203v-50.508c0-11.159-9.045-20.204-20.203-20.204z" fill="#3342aa"/></g><g><path d="m124.679 169.126h262.642v96.976h-262.642z" fill="#f6e781"/></g><g><path d="m365.098 169.126h22.224v96.976h-22.224z" fill="#f1cb86"/></g><g><path d="m157.004 201.451h197.992v32.325h-197.992z" fill="#3d4fc3"/></g><g><path d="m124.679 357.016h262.642v96.976h-262.642z" fill="#2b3890"/></g><g><path d="m363.077 357.016h24.244v96.976h-24.244z" fill="#21386b"/></g><g><path d="m114.577 128.719 10.102 40.407h262.642l10.102-40.407z" fill="#2b3890"/></g><g><path d="m375.199 128.719-10.101 40.407h22.223l10.102-40.407z" fill="#21386b"/></g><g><g><path d="m205.492 405.504c0-8.926 7.236-16.163 16.163-16.163h68.691c8.926 0 16.163 7.236 16.163 16.163 0 8.926-7.236 16.163-16.163 16.163h-68.691c-8.927 0-16.163-7.237-16.163-16.163z" fill="#e4f6ff"/></g><g><circle cx="290.346" cy="405.504" fill="#dd5790" r="16.163"/></g></g><g><path d="m362.496 233.776v-32.325c0-4.142-3.358-7.5-7.5-7.5h-197.992c-4.142 0-7.5 3.358-7.5 7.5v32.325c0 4.142 3.358 7.5 7.5 7.5h197.992c4.142 0 7.5-3.358 7.5-7.5zm-15-7.5h-182.992v-17.325h182.992z"/><path d="m433.249 2.421c-1.42-1.543-3.422-2.421-5.519-2.421h-56.57c-3.281 0-6.181 2.132-7.159 5.264l-8.456 27.066h-19.281l-8.456-27.066c-.977-3.132-3.877-5.264-7.158-5.264h-129.3c-3.281 0-6.181 2.132-7.159 5.264l-8.456 27.066h-19.281l-8.456-27.066c-.977-3.132-3.877-5.264-7.158-5.264h-56.57c-2.097 0-4.099.878-5.519 2.422-1.42 1.543-2.129 3.611-1.955 5.701l10.1 121.22c.324 3.887 3.573 6.877 7.474 6.877h14.352l8.458 33.83v89.59c-11.64 3.28-20.199 13.985-20.199 26.659v50.51c0 12.679 8.56 23.389 20.2 26.669v90.511c0 4.142 3.358 7.5 7.5 7.5h12.702v43.01c0 4.142 3.358 7.5 7.5 7.5h222.236c4.142 0 7.5-3.358 7.5-7.5v-43.01h12.702c4.142 0 7.5-3.358 7.5-7.5v-90.511c11.64-3.281 20.2-13.99 20.2-26.669v-50.509c0-12.674-8.56-23.38-20.199-26.659v-89.59l8.458-33.83h14.352c3.901 0 7.15-2.99 7.474-6.877l2.89-34.71c.344-4.128-2.724-7.753-6.852-8.097-4.132-.345-7.753 2.724-8.097 6.852l-2.317 27.833h-309.459l-8.85-106.222h42.904l8.456 27.066c.978 3.131 3.878 5.264 7.159 5.264h30.31c3.281 0 6.181-2.132 7.159-5.264l8.456-27.066h118.271l8.456 27.066c.978 3.131 3.878 5.264 7.159 5.264h30.31c3.281 0 6.181-2.132 7.159-5.264l8.455-27.066h42.905l-3.614 43.408c-.344 4.128 2.724 7.752 6.852 8.096 4.133.34 7.752-2.724 8.096-6.852l4.29-51.53c.174-2.09-.535-4.157-1.955-5.701zm-53.429 444.069h-45.46c-4.142 0-7.5 3.358-7.5 7.5s3.358 7.5 7.5 7.5h25.258v35.51h-207.236v-35.51h146.878c4.142 0 7.5-3.358 7.5-7.5s-3.358-7.5-7.5-7.5h-167.08v-81.97h247.64zm20.2-160.19v50.51c0 7.008-5.697 12.71-12.7 12.71h-262.64c-7.003 0-12.7-5.702-12.7-12.71v-50.51c0-6.997 5.689-12.691 12.685-12.699.005 0 .009.001.014.001.01 0 .019-.001.029-.001h34.742c4.142 0 7.5-3.358 7.5-7.5s-3.358-7.5-7.5-7.5h-27.271v-81.974h247.642v81.973h-185.271c-4.142 0-7.5 3.358-7.5 7.5s3.358 7.5 7.5 7.5h192.742c.01 0 .019.001.029.001.005 0 .009-.001.014-.001 6.996.009 12.685 5.702 12.685 12.7zm-18.555-124.674h-250.93l-6.352-25.406h263.634z"/><path d="m142.862 290.927c-4.142 0-7.5 3.358-7.5 7.5v26.264c0 4.142 3.358 7.5 7.5 7.5s7.5-3.358 7.5-7.5v-26.264c0-4.142-3.358-7.5-7.5-7.5z"/><path d="m175.187 290.927c-4.142 0-7.5 3.358-7.5 7.5v26.264c0 4.142 3.358 7.5 7.5 7.5s7.5-3.358 7.5-7.5v-26.264c0-4.142-3.358-7.5-7.5-7.5z"/><path d="m207.512 290.927c-4.142 0-7.5 3.358-7.5 7.5v26.264c0 4.142 3.358 7.5 7.5 7.5s7.5-3.358 7.5-7.5v-26.264c0-4.142-3.358-7.5-7.5-7.5z"/><path d="m239.837 290.927c-4.142 0-7.5 3.358-7.5 7.5v26.264c0 4.142 3.358 7.5 7.5 7.5s7.5-3.358 7.5-7.5v-26.264c0-4.142-3.357-7.5-7.5-7.5z"/><path d="m272.163 290.927c-4.142 0-7.5 3.358-7.5 7.5v26.264c0 4.142 3.358 7.5 7.5 7.5s7.5-3.358 7.5-7.5v-26.264c0-4.142-3.358-7.5-7.5-7.5z"/><path d="m304.488 290.927c-4.142 0-7.5 3.358-7.5 7.5v26.264c0 4.142 3.358 7.5 7.5 7.5s7.5-3.358 7.5-7.5v-26.264c0-4.142-3.358-7.5-7.5-7.5z"/><path d="m336.813 290.927c-4.142 0-7.5 3.358-7.5 7.5v26.264c0 4.142 3.358 7.5 7.5 7.5s7.5-3.358 7.5-7.5v-26.264c0-4.142-3.358-7.5-7.5-7.5z"/><path d="m369.138 290.927c-4.142 0-7.5 3.358-7.5 7.5v26.264c0 4.142 3.358 7.5 7.5 7.5s7.5-3.358 7.5-7.5v-26.264c0-4.142-3.358-7.5-7.5-7.5z"/><path d="m221.654 429.167h68.691c11.825 0 21.651-8.718 23.389-20.064.18-1.174.273-2.375.273-3.599s-.093-2.425-.273-3.599c-1.739-11.346-11.565-20.064-23.389-20.064h-68.691c-13.048 0-23.663 10.615-23.663 23.663s10.616 23.663 23.663 23.663zm77.354-23.663c0 4.776-3.886 8.663-8.663 8.663s-8.663-3.886-8.663-8.663 3.886-8.663 8.663-8.663 8.663 3.887 8.663 8.663zm-77.354-8.663h46.678c-1.06 2.685-1.65 5.605-1.65 8.663s.589 5.978 1.65 8.663h-46.678c-4.776 0-8.663-3.886-8.663-8.663s3.887-8.663 8.663-8.663z"/></g></g></svg>